SplineFontDB: 3.2
FontName: Bender-Bold
FullName: Bender Bold
FamilyName: Bender
Weight: Bold
Copyright: Copyright (c) 2009 by Oleg Zhuravlev, Gladkikh Ivan. All rights reserved.
Version: 001.001
ItalicAngle: 0
UnderlinePosition: -100
UnderlineWidth: 50
Ascent: 800
Descent: 200
InvalidEm: 0
sfntRevision: 0x00010000
LayerCount: 2
Layer: 0 0 "Back" 1
Layer: 1 0 "Fore" 0
XUID: [1021 811 -1780499127 10577]
StyleMap: 0x0020
FSType: 4
OS2Version: 2
OS2_WeightWidthSlopeOnly: 0
OS2_UseTypoMetrics: 0
CreationTime: 1245964665
ModificationTime: 1672873149
PfmFamily: 17
TTFWeight: 700
TTFWidth: 5
LineGap: 30
VLineGap: 0
Panose: 2 0 8 3 3 0 0 2 0 4
OS2TypoAscent: 710
OS2TypoAOffset: 0
OS2TypoDescent: -180
OS2TypoDOffset: 0
OS2TypoLinegap: 60
OS2WinAscent: 920
OS2WinAOffset: 0
OS2WinDescent: 180
OS2WinDOffset: 0
HheadAscent: 920
HheadAOffset: 0
HheadDescent: -180
HheadDOffset: 0
OS2SubXSize: 700
OS2SubYSize: 650
OS2SubXOff: 0
OS2SubYOff: 140
OS2SupXSize: 700
OS2SupYSize: 650
OS2SupXOff: 0
OS2SupYOff: 477
OS2StrikeYSize: 50
OS2StrikeYPos: 250
OS2CapHeight: 710
OS2XHeight: 563
OS2Vendor: 'PYRS'
OS2CodePages: 20000097.00000000
OS2UnicodeRanges: 8000020f.0000000a.00000000.00000000

StartChar: exclam
Encoding: 33 33 1
Width: 269
Flags: MW
HStem: -15 21G<107 107 107 162> 690 20G<73 193 193 193>
VStem: 76 115
LayerCount: 2
Fore
SplineSet
79 160 m 1
 73 710 l 1
 193 710 l 1
 189 160 l 1
 79 160 l 1
107 -15 m 1
 70 22 l 1
 70 77 l 1
 107 114 l 1
 162 114 l 1
 199 77 l 1
 199 22 l 1
 162 -15 l 1
 107 -15 l 1
EndSplineSet
Validated: 1
EndChar

StartChar: quotedbl
Encoding: 34 34 2
Width: 360
Flags: MW
HStem: 399 21G<46 46 46 134 226 314 226 226> 690 20G<30 150 150 150 210 330 330 330>
VStem: 38 104 218 104
LayerCount: 2
Fore
SplineSet
46 399 m 1
 30 710 l 1
 150 710 l 1
 134 399 l 1
 46 399 l 1
226 399 m 1
 210 710 l 1
 330 710 l 1
 314 399 l 1
 226 399 l 1
EndSplineSet
Validated: 1
EndChar

StartChar: numbersign
Encoding: 35 35 3
Width: 748
Flags: MW
HStem: 0 21G<45 163 45 45 306 306 306 424> 172 105<0 113 0 153 0 231 272 374 532 644> 433 105<104 215 104 255 374 476 104 334 635 748> 690 20G<324 442 442 442 585 703 703 703>
LayerCount: 2
Fore
SplineSet
163 0 m 1
 45 0 l 1
 113 172 l 1
 0 172 l 1
 0 277 l 1
 153 277 l 1
 215 433 l 1
 104 433 l 1
 104 538 l 1
 255 538 l 1
 324 710 l 1
 442 710 l 1
 374 538 l 1
 516 538 l 1
 585 710 l 1
 703 710 l 1
 635 538 l 1
 748 538 l 1
 748 433 l 1
 595 433 l 1
 532 277 l 1
 644 277 l 1
 644 172 l 1
 492 172 l 1
 424 0 l 1
 306 0 l 1
 374 172 l 1
 231 172 l 1
 163 0 l 1
334 433 m 1
 272 277 l 1
 414 277 l 1
 476 433 l 1
 334 433 l 1
EndSplineSet
Validated: 1
EndChar

StartChar: dollar
Encoding: 36 36 4
Width: 564
Flags: MW
HStem: -70 175<230 334 230 230> 0 105<184 230 166 358 334 358 184 409 334 334> 605 105<206 230 334 383 206 206> 605 175<230 334 230 383 206 334>
VStem: 230 104<-70 0 -70 0 710 780> 409 115<156 223 223 223>
LayerCount: 2
Fore
SplineSet
161 486 m 1xac
 487 323 l 1
 524 254 l 1
 524 115 l 1
 409 0 l 1
 334 0 l 1x6c
 334 -70 l 1
 230 -70 l 1xac
 230 0 l 1
 166 0 l 1x6c
 40 42 l 1
 74 143 l 1
 184 105 l 1
 358 105 l 1
 409 156 l 1
 409 223 l 1
 400 238 l 1
 72 402 l 1
 40 469 l 1
 40 595 l 1
 155 710 l 1
 230 710 l 1xac
 230 780 l 1
 334 780 l 1x9c
 334 710 l 1
 402 710 l 1
 524 669 l 1
 493 570 l 1
 383 605 l 1
 206 605 l 1
 155 554 l 1
 155 500 l 1
 161 486 l 1xac
EndSplineSet
Validated: 1
EndChar

StartChar: percent
Encoding: 37 37 5
Width: 802
Flags: MW
HStem: -20 20G 710 20G
LayerCount: 2
Fore
SplineSet
547 310 m 1
 677 310 l 1
 772 215 l 1
 772 95 l 1
 677 0 l 1
 547 0 l 1
 452 95 l 1
 452 215 l 1
 547 310 l 1
181 -20 m 1
 95 46 l 1
 621 730 l 1
 707 663 l 1
 181 -20 l 1
641 215 m 1
 583 215 l 1
 552 184 l 1
 552 126 l 1
 583 95 l 1
 641 95 l 1
 672 126 l 1
 672 184 l 1
 641 215 l 1
219 615 m 1
 161 615 l 1
 130 584 l 1
 130 526 l 1
 161 495 l 1
 219 495 l 1
 250 526 l 1
 250 584 l 1
 219 615 l 1
255 710 m 1
 350 615 l 1
 350 495 l 1
 255 400 l 1
 125 400 l 1
 30 495 l 1
 30 615 l 1
 125 710 l 1
 255 710 l 1
EndSplineSet
Validated: 1
EndChar

StartChar: ampersand
Encoding: 38 38 6
Width: 599
Flags: MW
HStem: -20 21G<502 502> 0 105<187 303 187 356 136 303> 605 105<255 351 255 255>
VStem: 403 115<470 553 553 553>
LayerCount: 2
Fore
SplineSet
502 -20 m 1xb0
 428 70 l 1
 356 0 l 1
 136 0 l 1x70
 20 115 l 1
 20 247 l 1
 165 388 l 1
 88 482 l 1
 88 595 l 1
 204 710 l 1
 402 710 l 1
 518 594 l 1
 518 470 l 1
 403 470 l 1
 403 553 l 1
 351 605 l 1
 255 605 l 1
 203 553 l 1
 203 519 l 1
 437 235 l 1
 510 306 l 1
 589 226 l 1
 509 148 l 1
 589 51 l 1
 502 -20 l 1xb0
187 105 m 1x70
 303 105 l 1
 356 157 l 1
 235 303 l 1
 135 206 l 1
 135 157 l 1
 187 105 l 1x70
EndSplineSet
Validated: 1
EndChar

StartChar: quotesingle
Encoding: 39 39 7
Width: 180
Flags: MW
HStem: 399 21G<46 46 46 134> 690 20G<30 150 150 150>
VStem: 38 104
LayerCount: 2
Fore
SplineSet
46 399 m 1
 30 710 l 1
 150 710 l 1
 134 399 l 1
 46 399 l 1
EndSplineSet
Validated: 1
EndChar

StartChar: asterisk
Encoding: 42 42 8
Width: 410
Flags: MW
HStem: 359 21G<160 250 160 160> 690 20G<160 250 250 250>
VStem: 160 90<359 451 359 451 618 710>
LayerCount: 2
Fore
SplineSet
250 710 m 1
 250 618 l 1
 331 668 l 1
 380 589 l 1
 291 535 l 1
 380 480 l 1
 331 401 l 1
 250 451 l 1
 250 359 l 1
 160 359 l 1
 160 451 l 1
 79 401 l 1
 30 480 l 1
 119 534 l 1
 30 589 l 1
 79 668 l 1
 160 618 l 1
 160 710 l 1
 250 710 l 1
EndSplineSet
Validated: 1
EndChar

StartChar: plus
Encoding: 43 43 9
Width: 500
Flags: MW
HStem: 120 21G<192 307 192 192> 292 105<20 192 20 192 307 480> 550 20G<192 307 307 307>
VStem: 192 115<120 292 120 292 397 570>
LayerCount: 2
Fore
SplineSet
192 570 m 1
 307 570 l 1
 307 397 l 1
 480 397 l 1
 480 292 l 1
 307 292 l 1
 307 120 l 1
 192 120 l 1
 192 292 l 1
 20 292 l 1
 20 397 l 1
 192 397 l 1
 192 570 l 1
EndSplineSet
Validated: 1
EndChar

StartChar: hyphen
Encoding: 45 45 10
Width: 480
Flags: MW
HStem: 292 105<20 460 20 460>
LayerCount: 2
Fore
SplineSet
20 292 m 1
 20 397 l 1
 460 397 l 1
 460 292 l 1
 20 292 l 1
EndSplineSet
Validated: 1
EndChar

StartChar: period
Encoding: 46 46 11
Width: 189
Flags: MW
HStem: -15 21G<67 67 67 122> 94 20G<67 122 122 122>
LayerCount: 2
Fore
SplineSet
67 -15 m 1
 30 22 l 1
 30 77 l 1
 67 114 l 1
 122 114 l 1
 159 77 l 1
 159 22 l 1
 122 -15 l 1
 67 -15 l 1
EndSplineSet
Validated: 1
EndChar

StartChar: zero
Encoding: 48 48 12
Width: 635
Flags: MW
HStem: 0 105<231 403 231 449 186 403> 605 105<232 404 232 232>
VStem: 60 115<222 552 222 595 222 595> 460 115<158 488 488 488>
LayerCount: 2
Fore
SplineSet
186 710 m 1
 449 710 l 1
 575 595 l 1
 575 115 l 1
 449 0 l 1
 186 0 l 1
 60 115 l 1
 60 595 l 1
 186 710 l 1
403 105 m 1
 460 158 l 1
 460 488 l 1
 231 105 l 1
 403 105 l 1
175 552 m 1
 175 222 l 1
 404 605 l 1
 232 605 l 1
 175 552 l 1
EndSplineSet
Validated: 1
EndChar

StartChar: one
Encoding: 49 49 13
Width: 373
Flags: MW
HStem: 0 105<46 147 262 363 46 147> 690 20G<168 262 262 262>
VStem: 147 115<105 510 510 510>
LayerCount: 2
Fore
SplineSet
124 510 m 1
 88 474 l 1
 10 552 l 1
 168 710 l 1
 262 710 l 1
 262 105 l 1
 363 105 l 1
 363 0 l 1
 46 0 l 1
 46 105 l 1
 147 105 l 1
 147 510 l 1
 152 543 l 1
 148 545 l 1
 124 510 l 1
EndSplineSet
Validated: 1
EndChar

StartChar: two
Encoding: 50 50 14
Width: 561
Flags: MW
HStem: 0 105<141 521 141 521> 605 105<163 163 163 355>
VStem: 406 115<444 553 553 553>
LayerCount: 2
Fore
SplineSet
163 605 m 1
 51 570 l 1
 20 670 l 1
 149 710 l 1
 406 710 l 1
 521 594 l 1
 521 409 l 1
 431 308 l 1
 141 127 l 1
 141 105 l 1
 521 105 l 1
 521 0 l 1
 26 0 l 1
 26 182 l 1
 354 386 l 1
 406 444 l 1
 406 553 l 1
 355 605 l 1
 163 605 l 1
EndSplineSet
Validated: 1
EndChar

StartChar: three
Encoding: 51 51 15
Width: 551
Flags: MW
HStem: 0 105<155 355 155 405 132 355> 315 105<341 355> 605 105<27 334 27 521>
VStem: 406 115<155 265 265 265>
LayerCount: 2
Fore
SplineSet
341 420 m 1
 405 420 l 1
 521 305 l 1
 521 115 l 1
 405 0 l 1
 132 0 l 1
 10 42 l 1
 45 143 l 1
 155 105 l 1
 355 105 l 1
 406 155 l 1
 406 265 l 1
 355 315 l 1
 157 315 l 1
 157 412 l 1
 334 582 l 1
 369 606 l 1
 367 610 l 1
 334 605 l 1
 27 605 l 1
 27 710 l 1
 521 710 l 1
 521 616 l 1
 341 443 l 1
 306 419 l 1
 308 415 l 1
 341 420 l 1
EndSplineSet
Validated: 1
EndChar

StartChar: four
Encoding: 52 52 16
Width: 576
Flags: MW
HStem: 0 21G<378 493 378 378> 151 105<172 378 172 378 493 566> 690 20G<396 493 493 493>
VStem: 378 115<0 151 0 151 256 490 490 490>
LayerCount: 2
Fore
SplineSet
493 256 m 1
 566 256 l 1
 566 151 l 1
 493 151 l 1
 493 0 l 1
 378 0 l 1
 378 151 l 1
 10 151 l 1
 10 265 l 1
 396 710 l 1
 493 710 l 1
 493 256 l 1
172 256 m 1
 378 256 l 1
 378 490 l 1
 383 523 l 1
 379 525 l 1
 355 490 l 1
 172 279 l 1
 137 255 l 1
 139 251 l 1
 172 256 l 1
EndSplineSet
Validated: 1
EndChar

StartChar: five
Encoding: 53 53 17
Width: 583
Flags: MW
HStem: 0 105<198 375 198 427 175 375> 328 105<178 375> 605 105<178 533 178 178>
VStem: 63 115<433 605 433 710 433 710> 428 115<157 276 276 276>
LayerCount: 2
Fore
SplineSet
63 710 m 1
 533 710 l 1
 533 605 l 1
 178 605 l 1
 178 433 l 1
 427 433 l 1
 543 318 l 1
 543 115 l 1
 427 0 l 1
 175 0 l 1
 50 42 l 1
 85 143 l 1
 198 105 l 1
 375 105 l 1
 428 157 l 1
 428 276 l 1
 375 328 l 1
 63 328 l 1
 63 710 l 1
EndSplineSet
Validated: 1
EndChar

StartChar: six
Encoding: 54 54 18
Width: 605
Flags: MW
HStem: 0 105<225 400 225 450 175 400> 335 105<242 400 229 450> 605 105<225 426 225 225>
VStem: 60 115<156 323 421 554> 450 115<156 284 284 284>
LayerCount: 2
Fore
SplineSet
60 116 m 1
 60 594 l 1
 175 710 l 1
 444 710 l 1
 565 669 l 1
 532 569 l 1
 426 605 l 1
 225 605 l 1
 175 554 l 1
 175 421 l 1
 242 440 l 1
 450 440 l 1
 565 324 l 1
 565 116 l 1
 450 0 l 1
 175 0 l 1
 60 116 l 1
400 335 m 1
 229 335 l 1
 175 323 l 1
 175 156 l 1
 225 105 l 1
 400 105 l 1
 450 156 l 1
 450 284 l 1
 400 335 l 1
EndSplineSet
Validated: 1
EndChar

StartChar: seven
Encoding: 55 55 19
Width: 515
Flags: MW
HStem: 0 21G<165 280 165 165> 605 105<10 380 10 495>
VStem: 165 115<0 170 0 196 0 196>
LayerCount: 2
Fore
SplineSet
280 170 m 1
 280 0 l 1
 165 0 l 1
 165 196 l 1
 380 586 l 1
 380 605 l 1
 10 605 l 1
 10 710 l 1
 495 710 l 1
 495 560 l 1
 280 170 l 1
EndSplineSet
Validated: 1
EndChar

StartChar: eight
Encoding: 56 56 20
Width: 623
Flags: MW
HStem: 0 105<228 395 228 447 176 395> 312 105<241 241 241 382> 605 105<233 233 233 390>
VStem: 60 115<157 261 157 297 157 297> 448 115<157 261 261 261>
LayerCount: 2
Fore
SplineSet
233 605 m 1
 180 553 l 1
 180 461 l 1
 236 417 l 1
 387 417 l 1
 443 461 l 1
 443 553 l 1
 390 605 l 1
 233 605 l 1
241 312 m 1
 175 261 l 1
 175 157 l 1
 228 105 l 1
 395 105 l 1
 448 157 l 1
 448 261 l 1
 382 312 l 1
 241 312 l 1
181 710 m 1
 442 710 l 1
 558 595 l 1
 558 430 l 1
 476 365 l 1
 563 297 l 1
 563 115 l 1
 447 0 l 1
 176 0 l 1
 60 115 l 1
 60 297 l 1
 147 365 l 1
 65 430 l 1
 65 595 l 1
 181 710 l 1
EndSplineSet
Validated: 1
EndChar

StartChar: colon
Encoding: 58 58 21
Width: 189
Flags: MW
HStem: -15 21G<67 67 67 122> 450 20G<67 122 122 122>
VStem: 30 129<22 77 22 77 378 433>
LayerCount: 2
Fore
SplineSet
67 -15 m 1
 30 22 l 1
 30 77 l 1
 67 114 l 1
 122 114 l 1
 159 77 l 1
 159 22 l 1
 122 -15 l 1
 67 -15 l 1
67 341 m 1
 30 378 l 1
 30 433 l 1
 67 470 l 1
 122 470 l 1
 159 433 l 1
 159 378 l 1
 122 341 l 1
 67 341 l 1
EndSplineSet
Validated: 1
EndChar

StartChar: semicolon
Encoding: 59 59 22
Width: 199
Flags: MW
HStem: -180 21G<0 0 0 80> 450 20G<77 132 132 132>
LayerCount: 2
Fore
SplineSet
77 341 m 1
 40 378 l 1
 40 433 l 1
 77 470 l 1
 132 470 l 1
 169 433 l 1
 169 378 l 1
 132 341 l 1
 77 341 l 1
0 -180 m 1
 60 90 l 1
 180 90 l 1
 80 -180 l 1
 0 -180 l 1
EndSplineSet
Validated: 1
EndChar

StartChar: equal
Encoding: 61 61 23
Width: 480
Flags: MW
HStem: 192 105<20 460 20 460> 393 105<20 460 20 460>
LayerCount: 2
Fore
SplineSet
20 393 m 1
 20 498 l 1
 460 498 l 1
 460 393 l 1
 20 393 l 1
20 192 m 1
 20 297 l 1
 460 297 l 1
 460 192 l 1
 20 192 l 1
EndSplineSet
Validated: 1
EndChar

StartChar: question
Encoding: 63 63 24
Width: 558
Flags: MW
HStem: -15 21G<233 233 233 288> 605 105<177 177 177 352>
VStem: 203 115<160 229 160 277 160 277> 403 115<454 554 554 554>
LayerCount: 2
Fore
SplineSet
177 605 m 1
 78 507 l 1
 0 586 l 1
 125 710 l 1
 403 710 l 1
 518 595 l 1
 518 406 l 1
 318 229 l 1
 318 160 l 1
 203 160 l 1
 203 277 l 1
 403 454 l 1
 403 554 l 1
 352 605 l 1
 177 605 l 1
233 -15 m 1
 196 22 l 1
 196 77 l 1
 233 114 l 1
 288 114 l 1
 325 77 l 1
 325 22 l 1
 288 -15 l 1
 233 -15 l 1
EndSplineSet
Validated: 1
EndChar

StartChar: at
Encoding: 64 64 25
Width: 929
Flags: MW
HStem: -114 105<267 726 267 726 220 726> 65 100<354 496 399 496 399 522> 252 100<399 551 399 399> 431 100<407 520 407 407> 605 105<267 662 267 267>
VStem: 70 115<65 531 65 576 65 576> 551 110<228 252 252 252 352 400 400 400> 744 115<206 531 531 531>
LayerCount: 2
Fore
SplineSet
551 228 m 1
 551 252 l 1
 399 252 l 1
 368 221 l 1
 368 196 l 1
 399 165 l 1
 496 165 l 1
 551 228 l 1
394 531 m 1
 565 531 l 1
 661 436 l 1
 661 205 l 1
 668 174 l 1
 712 174 l 1
 744 206 l 1
 744 531 l 1
 662 605 l 1
 267 605 l 1
 185 531 l 1
 185 65 l 1
 267 -9 l 1
 726 -9 l 1
 726 -114 l 1
 220 -114 l 1
 70 20 l 1
 70 576 l 1
 220 710 l 1
 709 710 l 1
 859 576 l 1
 859 164 l 1
 763 69 l 1
 596 69 l 1
 580 132 l 1
 522 65 l 1
 354 65 l 1
 258 160 l 1
 258 257 l 1
 354 352 l 1
 551 352 l 1
 551 400 l 1
 520 431 l 1
 407 431 l 1
 296 396 l 1
 266 491 l 1
 394 531 l 1
EndSplineSet
Validated: 1
EndChar

StartChar: B
Encoding: 66 66 26
Width: 625
Flags: MW
HStem: 0 105<185 410 185 459> 317 105<185 394 185 399> 605 105<185 185 185 408>
VStem: 70 115<105 317 105 422 422 605> 439 115<453 574 574 574> 460 115<155 266 266 266>
LayerCount: 2
Fore
SplineSet
488 370 m 1xf8
 575 302 l 1
 575 116 l 1xf4
 459 0 l 1
 70 0 l 1
 70 710 l 1
 458 710 l 1
 554 614 l 1
 554 422 l 1
 488 370 l 1xf8
460 266 m 1
 394 317 l 1
 185 317 l 1
 185 105 l 1
 410 105 l 1
 460 155 l 1
 460 266 l 1
185 605 m 1
 185 422 l 1
 399 422 l 1
 439 453 l 1
 439 574 l 1xf8
 408 605 l 1
 185 605 l 1
EndSplineSet
Validated: 1
EndChar

StartChar: C
Encoding: 67 67 27
Width: 606
Flags: MW
HStem: 0 105<227 409 227 461 176 409> 605 105<227 398 227 227>
VStem: 60 115<157 553 157 594 157 594> 450 115<470 553 553 553>
LayerCount: 2
Fore
SplineSet
409 105 m 1
 497 193 l 1
 576 115 l 1
 461 0 l 1
 176 0 l 1
 60 116 l 1
 60 594 l 1
 176 710 l 1
 449 710 l 1
 565 594 l 1
 565 470 l 1
 450 470 l 1
 450 553 l 1
 398 605 l 1
 227 605 l 1
 175 553 l 1
 175 157 l 1
 227 105 l 1
 409 105 l 1
EndSplineSet
Validated: 1
EndChar

StartChar: D
Encoding: 68 68 28
Width: 636
Flags: MW
HStem: 0 105<185 409 185 460> 605 105<185 409 185 185>
VStem: 70 115<105 605 105 710 105 710> 461 115<157 553 553 553>
LayerCount: 2
Fore
SplineSet
70 710 m 1
 460 710 l 1
 576 593 l 1
 576 117 l 1
 460 0 l 1
 70 0 l 1
 70 710 l 1
461 553 m 1
 409 605 l 1
 185 605 l 1
 185 105 l 1
 409 105 l 1
 461 157 l 1
 461 553 l 1
EndSplineSet
Validated: 1
EndChar

StartChar: E
Encoding: 69 69 29
Width: 553
Flags: MW
HStem: 0 105<185 523 185 523> 318 105<185 481 185 481> 605 105<185 523 185 185>
VStem: 70 115<105 318 423 605>
LayerCount: 2
Fore
SplineSet
70 0 m 1
 70 710 l 1
 523 710 l 1
 523 605 l 1
 185 605 l 1
 185 423 l 1
 481 423 l 1
 481 318 l 1
 185 318 l 1
 185 105 l 1
 523 105 l 1
 523 0 l 1
 70 0 l 1
EndSplineSet
Validated: 1
EndChar

StartChar: F
Encoding: 70 70 30
Width: 543
Flags: MW
HStem: 0 21G<70 70 70 185> 295 105<185 481 185 481> 605 105<185 523 185 185>
VStem: 70 115<0 295 400 605>
LayerCount: 2
Fore
SplineSet
70 0 m 1
 70 710 l 1
 523 710 l 1
 523 605 l 1
 185 605 l 1
 185 400 l 1
 481 400 l 1
 481 295 l 1
 185 295 l 1
 185 0 l 1
 70 0 l 1
EndSplineSet
Validated: 1
EndChar

StartChar: G
Encoding: 71 71 31
Width: 625
Flags: MW
HStem: 0 105<225 400 225 450 175 400> 276 105<297 450 297 527> 605 105<225 400 225 225>
VStem: 60 115<156 554> 450 115<156 276 276 276 470 554 554 554>
LayerCount: 2
Fore
SplineSet
565 595 m 1
 565 470 l 1
 450 470 l 1
 450 554 l 1
 400 605 l 1
 225 605 l 1
 175 554 l 1
 175 156 l 1
 225 105 l 1
 400 105 l 1
 450 156 l 1
 450 276 l 1
 297 276 l 1
 297 381 l 1
 527 381 l 1
 565 343 l 1
 565 115 l 1
 450 0 l 1
 175 0 l 1
 60 115 l 1
 60 595 l 1
 175 710 l 1
 450 710 l 1
 565 595 l 1
EndSplineSet
Validated: 1
EndChar

StartChar: H
Encoding: 72 72 32
Width: 645
Flags: MW
HStem: 0 21G<70 185 70 70 460 575 460 460> 318 105<185 460 185 460> 690 20G<70 185 185 185 460 575 575 575>
VStem: 70 115<0 318 0 423 423 710> 460 115<0 318 318 318 423 710 0 710>
LayerCount: 2
Fore
SplineSet
460 423 m 1
 460 710 l 1
 575 710 l 1
 575 0 l 1
 460 0 l 1
 460 318 l 1
 185 318 l 1
 185 0 l 1
 70 0 l 1
 70 710 l 1
 185 710 l 1
 185 423 l 1
 460 423 l 1
EndSplineSet
Validated: 1
EndChar

StartChar: I
Encoding: 73 73 33
Width: 397
Flags: MW
HStem: 0 105<40 141 256 357 40 141> 605 105<40 141 40 357 256 256 256 357>
VStem: 141 115<105 605 105 605>
LayerCount: 2
Fore
SplineSet
357 0 m 1
 40 0 l 1
 40 105 l 1
 141 105 l 1
 141 605 l 1
 40 605 l 1
 40 710 l 1
 357 710 l 1
 357 605 l 1
 256 605 l 1
 256 105 l 1
 357 105 l 1
 357 0 l 1
EndSplineSet
Validated: 1
EndChar

StartChar: J
Encoding: 74 74 34
Width: 544
Flags: MW
HStem: 0 105<137 317 189 317 189 368> 605 105<231 369 231 484>
VStem: 369 115<157 605 605 605>
LayerCount: 2
Fore
SplineSet
137 0 m 1
 0 137 l 1
 78 214 l 1
 189 105 l 1
 317 105 l 1
 369 157 l 1
 369 605 l 1
 231 605 l 1
 231 710 l 1
 484 710 l 1
 484 116 l 1
 368 0 l 1
 137 0 l 1
EndSplineSet
Validated: 1
EndChar

StartChar: K
Encoding: 75 75 35
Width: 577
Flags: MW
HStem: -20 20G 710 20G
VStem: 70 115<0 223 393 710>
LayerCount: 2
Fore
SplineSet
345 404 m 1
 566 38 l 1
 470 -20 l 1
 267 316 l 1
 185 223 l 1
 185 0 l 1
 70 0 l 1
 70 710 l 1
 185 710 l 1
 185 393 l 1
 482 730 l 1
 567 656 l 1
 345 404 l 1
EndSplineSet
Validated: 1
EndChar

StartChar: L
Encoding: 76 76 36
Width: 528
Flags: MW
HStem: 0 105<185 518 185 518> 690 20G<70 185 185 185>
VStem: 70 115<105 710 105 710 105 710>
LayerCount: 2
Fore
SplineSet
70 0 m 1
 70 710 l 1
 185 710 l 1
 185 105 l 1
 518 105 l 1
 518 0 l 1
 70 0 l 1
EndSplineSet
Validated: 1
EndChar

StartChar: N
Encoding: 78 78 37
Width: 646
Flags: MW
HStem: 0 21G<70 185 70 70 465 576 465 465> 690 20G<70 181 181 181 461 576 576 576>
VStem: 70 115<0 455 0 710> 461 115<255 710 0 710>
LayerCount: 2
Fore
SplineSet
181 710 m 1
 442 254 l 1
 466 193 l 1
 470 193 l 1
 461 255 l 1
 461 710 l 1
 576 710 l 1
 576 0 l 1
 465 0 l 1
 204 456 l 1
 180 517 l 1
 176 517 l 1
 185 455 l 1
 185 0 l 1
 70 0 l 1
 70 710 l 1
 181 710 l 1
EndSplineSet
Validated: 1
EndChar

StartChar: O
Encoding: 79 79 38
Width: 655
Flags: MW
HStem: 0 105<232 423 232 469 186 423> 605 105<232 423 232 232>
VStem: 60 115<157 552 157 595 157 595> 480 115<158 552 552 552>
LayerCount: 2
Fore
SplineSet
186 710 m 1
 469 710 l 1
 595 595 l 1
 595 115 l 1
 469 0 l 1
 186 0 l 1
 60 115 l 1
 60 595 l 1
 186 710 l 1
480 552 m 1
 423 605 l 1
 232 605 l 1
 175 552 l 1
 175 157 l 1
 232 105 l 1
 423 105 l 1
 480 158 l 1
 480 552 l 1
EndSplineSet
Validated: 1
EndChar

StartChar: P
Encoding: 80 80 39
Width: 615
Flags: MW
HStem: 0 21G<70 185 70 70> 247 105<185 409 185 409 185 459> 605 105<185 409 185 185>
VStem: 70 115<0 247 0 352 352 605> 460 115<404 553 553 553>
LayerCount: 2
Fore
SplineSet
185 247 m 1
 185 0 l 1
 70 0 l 1
 70 710 l 1
 459 710 l 1
 575 595 l 1
 575 362 l 1
 459 247 l 1
 185 247 l 1
409 605 m 1
 185 605 l 1
 185 352 l 1
 409 352 l 1
 460 404 l 1
 460 553 l 1
 409 605 l 1
EndSplineSet
Validated: 1
EndChar

StartChar: Q
Encoding: 81 81 40
Width: 655
Flags: MW
HStem: -138 21G<270 385 270 270> 0 105<232 270 232 270 186 270 385 423> 605 105<232 423 232 232>
VStem: 60 115<157 552 157 595 157 595> 270 115<-138 0 -138 0 105 165> 480 115<158 552 552 552>
CounterMasks: 1 1c
LayerCount: 2
Fore
SplineSet
270 0 m 1
 186 0 l 1
 60 115 l 1
 60 595 l 1
 186 710 l 1
 469 710 l 1
 595 595 l 1
 595 115 l 1
 469 0 l 1
 385 0 l 1
 385 -138 l 1
 270 -138 l 1
 270 0 l 1
480 552 m 1
 423 605 l 1
 232 605 l 1
 175 552 l 1
 175 157 l 1
 232 105 l 1
 270 105 l 1
 270 165 l 1
 385 165 l 1
 385 105 l 1
 423 105 l 1
 480 158 l 1
 480 552 l 1
EndSplineSet
Validated: 1
EndChar

StartChar: R
Encoding: 82 82 41
Width: 627
Flags: MW
HStem: -20 20G 274 105<185 235 185 412 400 400 400 412 185 466> 605 105<185 412 185 185>
VStem: 70 115<0 274 379 605> 460 115<426 558 558 558>
LayerCount: 2
Fore
SplineSet
412 605 m 1
 185 605 l 1
 185 379 l 1
 412 379 l 1
 460 426 l 1
 460 558 l 1
 412 605 l 1
398 263 m 1
 587 56 l 1
 503 -20 l 1
 235 274 l 1
 185 274 l 1
 185 0 l 1
 70 0 l 1
 70 710 l 1
 466 710 l 1
 575 602 l 1
 575 382 l 1
 466 274 l 1
 400 274 l 1
 377 284 l 1
 375 281 l 1
 398 263 l 1
EndSplineSet
Validated: 1
EndChar

StartChar: S
Encoding: 83 83 42
Width: 564
Flags: MW
HStem: 0 105<184 358 184 409 166 358> 605 105<206 383 206 206>
VStem: 409 115<156 223 223 223>
LayerCount: 2
Fore
SplineSet
383 605 m 1
 206 605 l 1
 155 554 l 1
 155 500 l 1
 161 486 l 1
 487 323 l 1
 524 254 l 1
 524 115 l 1
 409 0 l 1
 166 0 l 1
 40 42 l 1
 74 143 l 1
 184 105 l 1
 358 105 l 1
 409 156 l 1
 409 223 l 1
 400 238 l 1
 72 402 l 1
 40 469 l 1
 40 595 l 1
 155 710 l 1
 402 710 l 1
 524 669 l 1
 493 570 l 1
 383 605 l 1
EndSplineSet
Validated: 1
EndChar

StartChar: T
Encoding: 84 84 43
Width: 539
Flags: MW
HStem: 0 21G<212 327 212 212> 605 105<10 212 10 529 327 529 327 327>
VStem: 212 115<0 605 0 605>
LayerCount: 2
Fore
SplineSet
327 605 m 1
 327 0 l 1
 212 0 l 1
 212 605 l 1
 10 605 l 1
 10 710 l 1
 529 710 l 1
 529 605 l 1
 327 605 l 1
EndSplineSet
Validated: 1
EndChar

StartChar: U
Encoding: 85 85 44
Width: 625
Flags: MW
HStem: 0 105<176 399 226 399 226 449> 690 20G<60 175 175 175 450 565 565 565>
VStem: 60 115<157 710 157 710 157 710> 450 115<157 710 115 710>
LayerCount: 2
Fore
SplineSet
176 0 m 1
 60 115 l 1
 60 710 l 1
 175 710 l 1
 175 157 l 1
 226 105 l 1
 399 105 l 1
 450 157 l 1
 450 710 l 1
 565 710 l 1
 565 115 l 1
 449 0 l 1
 176 0 l 1
EndSplineSet
Validated: 1
EndChar

StartChar: V
Encoding: 86 86 45
Width: 600
Flags: MW
HStem: 0 21G<235 365 235 235> 710 20G<119 119 481 481>
LayerCount: 2
Fore
SplineSet
298 144 m 1
 302 144 l 1
 313 212 l 1
 481 730 l 1
 590 695 l 1
 365 0 l 1
 235 0 l 1
 10 695 l 1
 119 730 l 1
 287 212 l 1
 298 144 l 1
EndSplineSet
Validated: 1
EndChar

StartChar: W
Encoding: 87 87 46
Width: 910
Flags: MW
HStem: 0 21G<207 312 207 207 598 703 598 598> 710 20G<121 121 789 789>
LayerCount: 2
Fore
SplineSet
400 679 m 1
 510 679 l 1
 632 269 l 1
 644 201 l 1
 648 201 l 1
 659 269 l 1
 789 730 l 1
 900 699 l 1
 703 0 l 1
 598 0 l 1
 468 441 l 1
 457 509 l 1
 453 509 l 1
 442 441 l 1
 312 0 l 1
 207 0 l 1
 10 699 l 1
 121 730 l 1
 251 269 l 1
 262 201 l 1
 266 201 l 1
 278 269 l 1
 400 679 l 1
EndSplineSet
Validated: 1
EndChar

StartChar: Y
Encoding: 89 89 47
Width: 588
Flags: MW
HStem: 0 21G<236 351 236 236> 710 20G<114 114 474 474>
VStem: 236 115<0 219 0 221 0 221>
LayerCount: 2
Fore
SplineSet
236 221 m 1
 10 678 l 1
 114 730 l 1
 281 392 l 1
 292 334 l 1
 296 334 l 1
 307 392 l 1
 474 730 l 1
 578 678 l 1
 351 219 l 1
 351 0 l 1
 236 0 l 1
 236 221 l 1
EndSplineSet
Validated: 1
EndChar

StartChar: Z
Encoding: 90 90 48
Width: 555
Flags: MW
HStem: 0 105<191 520 191 520> 605 105<35 364 35 525>
LayerCount: 2
Fore
SplineSet
191 105 m 1
 520 105 l 1
 520 0 l 1
 30 0 l 1
 30 87 l 1
 366 594 l 1
 389 612 l 1
 387 615 l 1
 364 605 l 1
 35 605 l 1
 35 710 l 1
 525 710 l 1
 525 621 l 1
 189 116 l 1
 166 98 l 1
 168 95 l 1
 191 105 l 1
EndSplineSet
Validated: 1
EndChar

StartChar: bracketleft
Encoding: 91 91 49
Width: 259
Flags: MW
HStem: -168 105<155 259 155 259> 605 105<155 259 155 155>
VStem: 40 115<-63 605 -63 710 -63 710> 40 219<-168 -63 605 710>
LayerCount: 2
Fore
SplineSet
259 -168 m 1xd0
 40 -168 l 1
 40 710 l 1
 259 710 l 1
 259 605 l 1xd0
 155 605 l 1
 155 -63 l 1xe0
 259 -63 l 1
 259 -168 l 1xd0
EndSplineSet
Validated: 1
EndChar

StartChar: asciicircum
Encoding: 94 94 50
Width: 510
Flags: MW
HStem: 356 21G<87 87 423 423> 690 20G<218 292 292 292>
LayerCount: 2
Fore
SplineSet
218 710 m 1
 292 710 l 1
 510 422 l 1
 423 356 l 1
 255 578 l 1
 87 356 l 1
 0 422 l 1
 218 710 l 1
EndSplineSet
Validated: 1
EndChar

StartChar: underscore
Encoding: 95 95 51
Width: 466
Flags: MW
HStem: -105 105<0 466 0 466>
LayerCount: 2
Fore
SplineSet
0 -105 m 1
 0 0 l 1
 466 0 l 1
 466 -105 l 1
 0 -105 l 1
EndSplineSet
Validated: 1
EndChar

StartChar: grave
Encoding: 96 96 52
Width: 235
Flags: MW
HStem: 480 21G<150 245 150 150> 690 20G<-10 104 104 104>
LayerCount: 2
Fore
SplineSet
104 710 m 1
 245 480 l 1
 150 480 l 1
 -10 710 l 1
 104 710 l 1
EndSplineSet
Validated: 1
EndChar

StartChar: a
Encoding: 97 97 53
Width: 564
Flags: MW
HStem: -10 21G<426 426> 0 105<191 318 191 349 141 318> 219 105<191 373 191 191> 438 105<196 342 196 196>
VStem: 373 115<168 219 219 219 324 407 407 407>
LayerCount: 2
Fore
SplineSet
181 543 m 1x78
 392 543 l 1
 488 448 l 1
 488 140 l 1
 519 13 l 1
 426 -10 l 1xb8
 407 67 l 1
 349 0 l 1
 141 0 l 1
 45 95 l 1
 45 229 l 1
 141 324 l 1
 373 324 l 1
 373 407 l 1
 342 438 l 1
 196 438 l 1
 84 403 l 1
 53 503 l 1
 181 543 l 1x78
373 168 m 1
 373 219 l 1
 191 219 l 1
 160 188 l 1
 160 136 l 1
 191 105 l 1
 318 105 l 1x78
 373 168 l 1
EndSplineSet
Validated: 1
EndChar

StartChar: b
Encoding: 98 98 54
Width: 576
Flags: MW
HStem: 0 105<225 375 225 425 175 375> 438 105<258 375 258 258> 700 20G<153 153>
VStem: 79 115<136 392 504 582 582 582> 406 115<136 407 407 407>
LayerCount: 2
Fore
SplineSet
194 596 m 1
 194 504 l 1
 248 543 l 1
 425 543 l 1
 521 448 l 1
 521 95 l 1
 425 0 l 1
 175 0 l 1
 79 95 l 1
 79 582 l 1
 45 684 l 1
 153 720 l 1
 194 596 l 1
194 392 m 1
 194 136 l 1
 225 105 l 1
 375 105 l 1
 406 136 l 1
 406 407 l 1
 375 438 l 1
 258 438 l 1
 194 392 l 1
EndSplineSet
Validated: 1
EndChar

StartChar: c
Encoding: 99 99 55
Width: 529
Flags: MW
HStem: 0 105<201 362 201 376 151 362> 330 213<382 401 151 497 382 382> 438 105<201 351 201 201>
VStem: 55 115<136 407 136 448 136 448> 382 115<330 407 407 407>
LayerCount: 2
Fore
SplineSet
362 105 m 1xb8
 472 140 l 1
 504 40 l 1
 376 0 l 1
 151 0 l 1
 55 95 l 1
 55 448 l 1
 151 543 l 1
 401 543 l 1
 497 448 l 1
 497 330 l 1
 382 330 l 1xd8
 382 407 l 1
 351 438 l 1
 201 438 l 1
 170 407 l 1
 170 136 l 1
 201 105 l 1
 362 105 l 1xb8
EndSplineSet
Validated: 1
EndChar

StartChar: d
Encoding: 100 100 56
Width: 573
Flags: MW
HStem: -10 21G<435 435> 0 105<201 327 201 358 151 327> 438 105<201 318 201 201> 690 20G<382 497 497 497>
VStem: 55 115<136 407 136 448 136 448> 382 115<168 392 392 392 504 710 140 710>
LayerCount: 2
Fore
SplineSet
327 105 m 1x7c
 382 168 l 1
 382 392 l 1
 318 438 l 1
 201 438 l 1
 170 407 l 1
 170 136 l 1
 201 105 l 1
 327 105 l 1x7c
358 0 m 1
 151 0 l 1x7c
 55 95 l 1
 55 448 l 1
 151 543 l 1
 328 543 l 1
 382 504 l 1
 382 710 l 1
 497 710 l 1
 497 140 l 1
 528 13 l 1
 435 -10 l 1xbc
 416 67 l 1
 358 0 l 1
EndSplineSet
Validated: 1
EndChar

StartChar: e
Encoding: 101 101 57
Width: 535
Flags: MW
HStem: 0 105<201 357 201 372 151 357> 210 105<170 356 170 411 170 356> 438 105<201 201 201 351>
VStem: 55 115<136 210 136 315 315 407> 382 115<341 407 407 407>
LayerCount: 2
Fore
SplineSet
357 105 m 1
 469 140 l 1
 500 40 l 1
 372 0 l 1
 151 0 l 1
 55 95 l 1
 55 448 l 1
 151 543 l 1
 401 543 l 1
 497 448 l 1
 497 295 l 1
 411 210 l 1
 170 210 l 1
 170 136 l 1
 201 105 l 1
 357 105 l 1
201 438 m 1
 170 407 l 1
 170 315 l 1
 356 315 l 1
 382 341 l 1
 382 407 l 1
 351 438 l 1
 201 438 l 1
EndSplineSet
Validated: 1
EndChar

StartChar: f
Encoding: 102 102 58
Width: 423
Flags: MW
HStem: 0 21G<115 230 115 115> 378 105<25 115 25 115 230 375> 605 105<261 328 261 261>
VStem: 115 115<0 378 0 378 483 574>
LayerCount: 2
Fore
SplineSet
115 615 m 1
 210 710 l 1
 340 710 l 1
 468 670 l 1
 437 571 l 1
 328 605 l 1
 261 605 l 1
 230 574 l 1
 230 483 l 1
 375 483 l 1
 375 378 l 1
 230 378 l 1
 230 0 l 1
 115 0 l 1
 115 378 l 1
 25 378 l 1
 25 483 l 1
 115 483 l 1
 115 615 l 1
EndSplineSet
Validated: 1
EndChar

StartChar: g
Encoding: 103 103 59
Width: 554
Flags: MW
HStem: -168 95<192 387 192 433 180 387> -18 95<181 387 135 433> 132 105<227 363 227 413 181 363> 438 105<208 331 208 208> 554 20G<496 496>
VStem: 62 115<287 407 287 448 287 448> 394 115<268 383 383 383>
LayerCount: 2
Fore
SplineSet
192 -73 m 1
 387 -73 l 1
 401 -59 l 1
 401 -32 l 1
 387 -18 l 1
 135 -18 l 1
 62 55 l 1
 62 154 l 1
 108 200 l 1
 62 246 l 1
 62 448 l 1
 158 543 l 1
 369 543 l 1
 496 574 l 1
 519 481 l 1
 442 462 l 1
 509 404 l 1
 509 227 l 1
 413 132 l 1
 181 132 l 1
 167 118 l 1
 167 91 l 1
 181 77 l 1
 433 77 l 1
 506 4 l 1
 506 -95 l 1
 433 -168 l 1
 180 -168 l 1
 55 -129 l 1
 83 -39 l 1
 192 -73 l 1
394 383 m 1
 331 438 l 1
 208 438 l 1
 177 407 l 1
 177 287 l 1
 227 237 l 1
 363 237 l 1
 394 268 l 1
 394 383 l 1
EndSplineSet
Validated: 1
EndChar

StartChar: h
Encoding: 104 104 60
Width: 576
Flags: MW
HStem: 0 21G<79 194 79 79 406 406 406 521> 438 105<258 375 258 258> 700 20G<153 153>
VStem: 79 115<0 392 0 504 504 582 582 582> 406 115<0 407 407 407>
LayerCount: 2
Fore
SplineSet
194 392 m 1
 194 0 l 1
 79 0 l 1
 79 582 l 1
 45 684 l 1
 153 720 l 1
 194 596 l 1
 194 504 l 1
 248 543 l 1
 425 543 l 1
 521 448 l 1
 521 0 l 1
 406 0 l 1
 406 407 l 1
 375 438 l 1
 258 438 l 1
 194 392 l 1
EndSplineSet
Validated: 1
EndChar

StartChar: i
Encoding: 105 105 61
Width: 256
Flags: MW
HStem: 0 21G<79 194 79 79> 714 20G<109 164 164 164>
VStem: 79 115<0 415 415 415>
LayerCount: 2
Fore
SplineSet
194 429 m 1
 194 0 l 1
 79 0 l 1
 79 415 l 1
 45 517 l 1
 153 553 l 1
 194 429 l 1
109 605 m 1
 72 642 l 1
 72 697 l 1
 109 734 l 1
 164 734 l 1
 201 697 l 1
 201 642 l 1
 164 605 l 1
 109 605 l 1
EndSplineSet
Validated: 1
EndChar

StartChar: j
Encoding: 106 106 62
Width: 254
Flags: MW
HStem: -185 21G<-41 -41> 714 20G<107 162 162 162>
VStem: 77 115<-1 415 415 415>
LayerCount: 2
Fore
SplineSet
192 429 m 1
 192 -31 l 1
 123 -127 l 1
 -41 -185 l 1
 -75 -84 l 1
 49 -40 l 1
 77 -1 l 1
 77 415 l 1
 43 517 l 1
 151 553 l 1
 192 429 l 1
107 605 m 1
 70 642 l 1
 70 697 l 1
 107 734 l 1
 162 734 l 1
 199 697 l 1
 199 642 l 1
 162 605 l 1
 107 605 l 1
EndSplineSet
Validated: 1
EndChar

StartChar: k
Encoding: 107 107 63
Width: 516
Flags: MW
HStem: -20 20G<89 204 89 89> -15 21G<425 425> 700 20G<163 163>
VStem: 89 115<0 186 334 582 582 582>
LayerCount: 2
Fore
SplineSet
204 596 m 1xb0
 204 334 l 1
 440 558 l 1
 516 478 l 1
 337 308 l 1
 516 48 l 1
 425 -15 l 1x70
 254 233 l 1
 204 186 l 1
 204 0 l 1
 89 0 l 1
 89 582 l 1
 55 684 l 1
 163 720 l 1
 204 596 l 1xb0
EndSplineSet
Validated: 1
EndChar

StartChar: l
Encoding: 108 108 64
Width: 249
Flags: MW
HStem: 0 21G<79 194 79 79> 700 20G<153 153>
VStem: 79 115<0 582 582 582>
LayerCount: 2
Fore
SplineSet
194 596 m 1
 194 0 l 1
 79 0 l 1
 79 582 l 1
 45 684 l 1
 153 720 l 1
 194 596 l 1
EndSplineSet
Validated: 1
EndChar

StartChar: m
Encoding: 109 109 65
Width: 844
Flags: MW
HStem: 0 21G<76 191 76 76 375 490 375 375 674 789 674 674> 438 105<246 338 246 246 527 643 527 527> 533 20G<138 138>
VStem: 76 115<0 375 0 403 0 403> 375 115<0 398 0 398> 674 115<0 407 407 407>
CounterMasks: 1 1c
LayerCount: 2
Fore
SplineSet
381 543 m 1xdc
 433 486 l 1
 485 543 l 1
 693 543 l 1
 789 448 l 1
 789 0 l 1
 674 0 l 1
 674 407 l 1
 643 438 l 1
 527 438 l 1
 490 398 l 1
 490 0 l 1
 375 0 l 1
 375 398 l 1
 338 438 l 1
 246 438 l 1xdc
 191 375 l 1
 191 0 l 1
 76 0 l 1
 76 403 l 1
 45 530 l 1
 138 553 l 1xbc
 157 476 l 1
 215 543 l 1
 381 543 l 1xdc
EndSplineSet
Validated: 1
EndChar

StartChar: n
Encoding: 110 110 66
Width: 574
Flags: MW
HStem: 0 21G<76 191 76 76 404 519 404 404> 438 105<246 373 246 246> 533 20G<138 138>
VStem: 76 115<0 375 0 403 0 403> 404 115<0 407 407 407>
LayerCount: 2
Fore
SplineSet
76 403 m 1xd8
 45 530 l 1
 138 553 l 1xb8
 157 476 l 1
 215 543 l 1
 423 543 l 1
 519 448 l 1
 519 0 l 1
 404 0 l 1
 404 407 l 1
 373 438 l 1
 246 438 l 1
 191 375 l 1
 191 0 l 1
 76 0 l 1
 76 403 l 1xd8
EndSplineSet
Validated: 1
EndChar

StartChar: o
Encoding: 111 111 67
Width: 557
Flags: MW
HStem: 0 105<201 356 201 407 150 356> 438 105<201 356 201 201>
VStem: 55 115<136 407 136 447 136 447> 387 115<136 407 407 407>
LayerCount: 2
Fore
SplineSet
502 96 m 1
 407 0 l 1
 150 0 l 1
 55 96 l 1
 55 447 l 1
 150 543 l 1
 407 543 l 1
 502 447 l 1
 502 96 l 1
201 105 m 1
 356 105 l 1
 387 136 l 1
 387 407 l 1
 356 438 l 1
 201 438 l 1
 170 407 l 1
 170 136 l 1
 201 105 l 1
EndSplineSet
Validated: 1
EndChar

StartChar: p
Encoding: 112 112 68
Width: 573
Flags: MW
HStem: -168 21G<76 191 76 76> 0 105<255 372 255 422 245 372> 438 105<246 246 246 372> 533 20G<138 138>
VStem: 76 115<-168 39 151 375> 403 115<136 407 407 407>
LayerCount: 2
Fore
SplineSet
246 438 m 1xec
 191 375 l 1
 191 151 l 1
 255 105 l 1
 372 105 l 1
 403 136 l 1
 403 407 l 1
 372 438 l 1
 246 438 l 1xec
215 543 m 1
 422 543 l 1xec
 518 448 l 1
 518 95 l 1
 422 0 l 1
 245 0 l 1
 191 39 l 1
 191 -168 l 1
 76 -168 l 1
 76 403 l 1
 45 530 l 1
 138 553 l 1xdc
 157 476 l 1
 215 543 l 1
EndSplineSet
Validated: 1
EndChar

StartChar: q
Encoding: 113 113 69
Width: 566
Flags: MW
HStem: -177 21G<423 423> 0 105<201 318 201 328 151 318> 438 105<201 351 201 201>
VStem: 55 115<136 407 136 448 136 448> 382 115<-39 39 39 39 151 407 407 407>
LayerCount: 2
Fore
SplineSet
382 -53 m 1
 382 39 l 1
 328 0 l 1
 151 0 l 1
 55 95 l 1
 55 448 l 1
 151 543 l 1
 401 543 l 1
 497 448 l 1
 497 -39 l 1
 531 -141 l 1
 423 -177 l 1
 382 -53 l 1
382 151 m 1
 382 407 l 1
 351 438 l 1
 201 438 l 1
 170 407 l 1
 170 136 l 1
 201 105 l 1
 318 105 l 1
 382 151 l 1
EndSplineSet
Validated: 1
EndChar

StartChar: r
Encoding: 114 114 70
Width: 499
Flags: MW
HStem: 0 21G<76 191 76 76> 438 105<246 246 246 333> 533 20G<138 138>
VStem: 76 115<0 375 0 403 0 403>
LayerCount: 2
Fore
SplineSet
246 438 m 1xd0
 191 375 l 1
 191 0 l 1
 76 0 l 1
 76 403 l 1
 45 530 l 1
 138 553 l 1xb0
 157 476 l 1
 215 543 l 1
 381 543 l 1
 499 428 l 1
 423 350 l 1
 333 438 l 1
 246 438 l 1xd0
EndSplineSet
Validated: 1
EndChar

StartChar: s
Encoding: 115 115 71
Width: 491
Flags: MW
HStem: 0 105<173 312 173 364 151 312> 438 105<178 318 178 178>
LayerCount: 2
Fore
SplineSet
146 385 m 1
 160 362 l 1
 421 272 l 1
 459 210 l 1
 459 95 l 1
 364 0 l 1
 151 0 l 1
 25 42 l 1
 59 143 l 1
 173 105 l 1
 312 105 l 1
 344 137 l 1
 344 160 l 1
 330 183 l 1
 69 273 l 1
 31 335 l 1
 31 448 l 1
 126 543 l 1
 340 543 l 1
 466 501 l 1
 432 400 l 1
 318 438 l 1
 178 438 l 1
 146 406 l 1
 146 385 l 1
EndSplineSet
Validated: 1
EndChar

StartChar: t
Encoding: 116 116 72
Width: 463
Flags: MW
HStem: 0 105<256 323 256 335 205 323> 428 105<20 110 20 110 225 370> 660 20G<110 225 225 225>
VStem: 110 115<136 428 136 428 136 428 533 680>
LayerCount: 2
Fore
SplineSet
110 428 m 1
 20 428 l 1
 20 533 l 1
 110 533 l 1
 110 680 l 1
 225 680 l 1
 225 533 l 1
 370 533 l 1
 370 428 l 1
 225 428 l 1
 225 136 l 1
 256 105 l 1
 323 105 l 1
 432 139 l 1
 463 40 l 1
 335 0 l 1
 205 0 l 1
 110 95 l 1
 110 428 l 1
EndSplineSet
Validated: 1
EndChar

StartChar: u
Encoding: 117 117 73
Width: 574
Flags: MW
HStem: -10 21G<436 436> 0 105<201 328 201 359 151 328> 523 20G<55 170 170 170 383 498 498 498>
VStem: 55 115<136 543 136 543 136 543> 383 115<168 543>
LayerCount: 2
Fore
SplineSet
498 140 m 1x78
 529 13 l 1
 436 -10 l 1xb8
 417 67 l 1
 359 0 l 1
 151 0 l 1
 55 95 l 1
 55 543 l 1
 170 543 l 1
 170 136 l 1
 201 105 l 1
 328 105 l 1
 383 168 l 1
 383 543 l 1
 498 543 l 1
 498 140 l 1x78
EndSplineSet
Validated: 1
EndChar

StartChar: v
Encoding: 118 118 74
Width: 528
Flags: MW
HStem: 0 21G<211 317 211 211> 538 20G<114 114 414 414>
LayerCount: 2
Fore
SplineSet
262 152 m 1
 266 152 l 1
 279 211 l 1
 414 558 l 1
 518 517 l 1
 317 0 l 1
 211 0 l 1
 10 517 l 1
 114 558 l 1
 249 211 l 1
 262 152 l 1
EndSplineSet
Validated: 1
EndChar

StartChar: w
Encoding: 119 119 75
Width: 744
Flags: MW
HStem: 0 21G<166 263 166 166 481 578 481 481> 538 20G<115 115 629 629>
LayerCount: 2
Fore
SplineSet
317 517 m 1
 427 517 l 1
 511 250 l 1
 522 192 l 1
 526 192 l 1
 538 250 l 1
 629 558 l 1
 734 527 l 1
 578 0 l 1
 481 0 l 1
 385 305 l 1
 374 363 l 1
 370 363 l 1
 359 305 l 1
 263 0 l 1
 166 0 l 1
 10 527 l 1
 115 558 l 1
 206 250 l 1
 218 192 l 1
 222 192 l 1
 233 250 l 1
 317 517 l 1
EndSplineSet
Validated: 1
EndChar

StartChar: z
Encoding: 122 122 76
Width: 472
Flags: MW
HStem: 0 105<187 450 187 450> 438 105<22 286 22 452>
LayerCount: 2
Fore
SplineSet
187 105 m 1
 450 105 l 1
 450 0 l 1
 20 0 l 1
 20 90 l 1
 288 427 l 1
 311 445 l 1
 309 448 l 1
 286 438 l 1
 22 438 l 1
 22 543 l 1
 452 543 l 1
 452 452 l 1
 185 116 l 1
 162 98 l 1
 164 95 l 1
 187 105 l 1
EndSplineSet
Validated: 1
EndChar

StartChar: braceleft
Encoding: 123 123 77
Width: 341
Flags: MW
HStem: -188 21G<318 318> 710 20G<318 318>
VStem: 108 115<-12 162 162 162 374 554>
LayerCount: 2
Fore
SplineSet
20 239 m 1
 20 297 l 1
 108 374 l 1
 108 579 l 1
 184 699 l 1
 318 730 l 1
 341 630 l 1
 259 611 l 1
 223 554 l 1
 223 329 l 1
 154 268 l 1
 223 207 l 1
 223 -12 l 1
 259 -69 l 1
 341 -88 l 1
 318 -188 l 1
 184 -157 l 1
 108 -37 l 1
 108 162 l 1
 20 239 l 1
EndSplineSet
Validated: 1
EndChar

StartChar: bar
Encoding: 124 124 78
Width: 256
Flags: MW
HStem: -168 21G<70 186 70 70> 690 20G<70 186 186 186>
VStem: 70 116<-168 710>
LayerCount: 2
Fore
SplineSet
186 -168 m 1
 70 -168 l 1
 70 710 l 1
 186 710 l 1
 186 -168 l 1
EndSplineSet
Validated: 1
EndChar

StartChar: endash
Encoding: 8211 8211 79
Width: 546
Flags: MW
HStem: 252 106<20 526 20 526>
LayerCount: 2
Fore
SplineSet
20 252 m 1
 20 358 l 1
 526 358 l 1
 526 252 l 1
 20 252 l 1
EndSplineSet
Validated: 1
EndChar

StartChar: emdash
Encoding: 8212 8212 80
Width: 732
Flags: MW
HStem: 252 106<20 712 20 712>
LayerCount: 2
Fore
SplineSet
20 252 m 1
 20 358 l 1
 712 358 l 1
 712 252 l 1
 20 252 l 1
EndSplineSet
Validated: 1
EndChar

StartChar: trademark
Encoding: 8482 8482 81
Width: 806
Flags: MW
HStem: 360 21G<105 220 105 105 366 366 366 471 661 661 661 766> 605 105<0 105 0 325 220 325 220 220>
VStem: 105 115<360 605 360 605> 366 105<360 500 360 710> 661 105<360 500 500 500>
LayerCount: 2
Fore
SplineSet
0 710 m 1
 325 710 l 1
 325 605 l 1
 220 605 l 1
 220 360 l 1
 105 360 l 1
 105 605 l 1
 0 605 l 1
 0 710 l 1
471 500 m 1
 471 360 l 1
 366 360 l 1
 366 710 l 1
 480 710 l 1
 566 535 l 1
 652 710 l 1
 766 710 l 1
 766 360 l 1
 661 360 l 1
 661 500 l 1
 672 561 l 1
 668 561 l 1
 650 503 l 1
 608 418 l 1
 524 418 l 1
 482 503 l 1
 464 561 l 1
 460 561 l 1
 471 500 l 1
EndSplineSet
Validated: 1
EndChar

StartChar: section
Encoding: 167 167 82
Width: 530
Flags: MW
HStem: -168 105<185 333 185 384 161 333> 605 105<197 345 197 197>
VStem: 51 115<257 315 257 354 257 354 527 574> 364 115<-32 15 15 15 227 285 285 285>
LayerCount: 2
Fore
SplineSet
51 235 m 1
 51 354 l 1
 113 421 l 1
 88 434 l 1
 51 503 l 1
 51 615 l 1
 146 710 l 1
 369 710 l 1
 490 668 l 1
 455 567 l 1
 345 605 l 1
 197 605 l 1
 166 574 l 1
 166 527 l 1
 174 511 l 1
 442 376 l 1
 479 307 l 1
 479 188 l 1
 416 121 l 1
 442 108 l 1
 479 39 l 1
 479 -73 l 1
 384 -168 l 1
 161 -168 l 1
 40 -126 l 1
 75 -25 l 1
 185 -63 l 1
 333 -63 l 1
 364 -32 l 1
 364 15 l 1
 356 31 l 1
 88 166 l 1
 51 235 l 1
357 298 m 1
 217 369 l 1
 166 315 l 1
 166 257 l 1
 173 244 l 1
 313 172 l 1
 364 227 l 1
 364 285 l 1
 357 298 l 1
EndSplineSet
Validated: 1
EndChar

StartChar: afii10023
Encoding: 1025 1025 83
Width: 553
Flags: MW
HStem: 0 105<185 523 185 523> 318 105<185 481 185 481> 605 105<185 523 185 185> 780 129<180 235 180 235 367 422>
VStem: 70 115<105 318 423 605>
LayerCount: 2
Fore
SplineSet
70 0 m 1
 70 710 l 1
 523 710 l 1
 523 605 l 1
 185 605 l 1
 185 423 l 1
 481 423 l 1
 481 318 l 1
 185 318 l 1
 185 105 l 1
 523 105 l 1
 523 0 l 1
 70 0 l 1
180 780 m 1
 143 817 l 1
 143 872 l 1
 180 909 l 1
 235 909 l 1
 272 872 l 1
 272 817 l 1
 235 780 l 1
 180 780 l 1
367 780 m 1
 330 817 l 1
 330 872 l 1
 367 909 l 1
 422 909 l 1
 459 872 l 1
 459 817 l 1
 422 780 l 1
 367 780 l 1
EndSplineSet
Validated: 1
EndChar

StartChar: copyright
Encoding: 169 169 84
Width: 879
Flags: MW
HStem: 0 105<257 622 257 670 209 622> 155 95<394 477 394 492 353 477> 377 178<511 521 353 616 511 511> 460 95<394 480 394 394> 605 105<257 622 257 257>
VStem: 60 115<180 530 180 575 180 575> 258 105<281 429 281 459 281 459> 704 115<180 530 530 530>
LayerCount: 2
Fore
SplineSet
819 575 m 1xdf
 819 135 l 1
 670 0 l 1
 209 0 l 1
 60 135 l 1
 60 575 l 1
 209 710 l 1
 670 710 l 1
 819 575 l 1xdf
704 180 m 1
 704 530 l 1
 622 605 l 1
 257 605 l 1
 175 530 l 1
 175 180 l 1
 257 105 l 1
 622 105 l 1
 704 180 l 1
477 250 m 1
 588 285 l 1
 616 194 l 1
 492 155 l 1
 353 155 l 1
 258 251 l 1
 258 459 l 1
 353 555 l 1
 521 555 l 1
 616 459 l 1
 616 377 l 1
 511 377 l 1xef
 511 429 l 1
 480 460 l 1
 394 460 l 1
 363 429 l 1
 363 281 l 1
 394 250 l 1
 477 250 l 1
EndSplineSet
Validated: 1
EndChar

StartChar: guillemotleft
Encoding: 171 171 85
Width: 662
Flags: MW
HStem: 0 21G<313 313 580 580> 506 20G<313 313 580 580>
LayerCount: 2
Fore
SplineSet
20 263 m 1
 313 526 l 1
 385 445 l 1
 182 263 l 1
 385 81 l 1
 313 0 l 1
 20 263 l 1
287 263 m 1
 580 526 l 1
 652 445 l 1
 449 263 l 1
 652 81 l 1
 580 0 l 1
 287 263 l 1
EndSplineSet
Validated: 1
EndChar

StartChar: registered
Encoding: 174 174 86
Width: 879
Flags: MW
HStem: 0 105<257 622 257 670 209 622> 291 95<372 414 372 513 372 545 372 570> 450 95<372 513 372 372> 605 105<257 622 257 257>
VStem: 60 115<180 530 180 575 180 575> 267 105<165 291 386 450> 704 115<180 530 530 530>
LayerCount: 2
Fore
SplineSet
819 575 m 1
 819 135 l 1
 670 0 l 1
 209 0 l 1
 60 135 l 1
 60 575 l 1
 209 710 l 1
 670 710 l 1
 819 575 l 1
704 180 m 1
 704 530 l 1
 622 605 l 1
 257 605 l 1
 175 530 l 1
 175 180 l 1
 257 105 l 1
 622 105 l 1
 704 180 l 1
523 440 m 1
 513 450 l 1
 372 450 l 1
 372 386 l 1
 513 386 l 1
 523 396 l 1
 523 440 l 1
544 282 m 1
 635 175 l 1
 618 160 l 1
 525 160 l 1
 414 291 l 1
 372 291 l 1
 372 165 l 1
 267 165 l 1
 267 545 l 1
 570 545 l 1
 627 489 l 1
 627 347 l 1
 570 291 l 1
 545 291 l 1
 531 297 l 1
 529 294 l 1
 544 282 l 1
EndSplineSet
Validated: 1
EndChar

StartChar: paragraph
Encoding: 182 182 87
Width: 629
Flags: MW
HStem: -168 21G<249 364 249 249 444 444 444 559> 690 20G<146 364 364 364 444 559 559 559>
VStem: 249 115<-168 162 162 162> 444 115<-168 710>
LayerCount: 2
Fore
SplineSet
364 -168 m 1
 249 -168 l 1
 249 162 l 1
 146 162 l 1
 30 280 l 1
 30 595 l 1
 146 710 l 1
 364 710 l 1
 364 -168 l 1
559 -168 m 1
 444 -168 l 1
 444 710 l 1
 559 710 l 1
 559 -168 l 1
EndSplineSet
Validated: 1
EndChar

StartChar: afii10071
Encoding: 1105 1105 88
Width: 535
Flags: MW
HStem: 0 105<201 357 201 372 151 357> 210 105<170 356 170 411 170 356> 438 105<201 201 201 351> 605 129<158 213 158 213 349 404>
VStem: 55 115<136 210 136 315 315 407> 382 115<341 407 407 407>
LayerCount: 2
Fore
SplineSet
357 105 m 1
 469 140 l 1
 500 40 l 1
 372 0 l 1
 151 0 l 1
 55 95 l 1
 55 448 l 1
 151 543 l 1
 401 543 l 1
 497 448 l 1
 497 295 l 1
 411 210 l 1
 170 210 l 1
 170 136 l 1
 201 105 l 1
 357 105 l 1
201 438 m 1
 170 407 l 1
 170 315 l 1
 356 315 l 1
 382 341 l 1
 382 407 l 1
 351 438 l 1
 201 438 l 1
158 605 m 1
 121 642 l 1
 121 697 l 1
 158 734 l 1
 213 734 l 1
 250 697 l 1
 250 642 l 1
 213 605 l 1
 158 605 l 1
349 605 m 1
 312 642 l 1
 312 697 l 1
 349 734 l 1
 404 734 l 1
 441 697 l 1
 441 642 l 1
 404 605 l 1
 349 605 l 1
EndSplineSet
Validated: 1
EndChar

StartChar: afii61352
Encoding: 8470 8470 89
Width: 1006
Flags: MW
HStem: 0 21G<70 185 70 70 465 576 465 465> 245 105<661 971 661 971> 690 20G<70 181 181 181 461 576 576 576 751 881 881 881>
VStem: 70 115<0 455 0 710> 461 115<255 710 0 710>
LayerCount: 2
Fore
SplineSet
661 245 m 1
 661 350 l 1
 971 350 l 1
 971 245 l 1
 661 245 l 1
845 615 m 1
 787 615 l 1
 756 584 l 1
 756 526 l 1
 787 495 l 1
 845 495 l 1
 876 526 l 1
 876 584 l 1
 845 615 l 1
881 710 m 1
 976 615 l 1
 976 495 l 1
 881 400 l 1
 751 400 l 1
 656 495 l 1
 656 615 l 1
 751 710 l 1
 881 710 l 1
181 710 m 1
 442 254 l 1
 466 193 l 1
 470 193 l 1
 461 255 l 1
 461 710 l 1
 576 710 l 1
 576 0 l 1
 465 0 l 1
 204 456 l 1
 180 517 l 1
 176 517 l 1
 185 455 l 1
 185 0 l 1
 70 0 l 1
 70 710 l 1
 181 710 l 1
EndSplineSet
Validated: 1
EndChar

StartChar: afii10018
Encoding: 1041 1041 90
Width: 615
Flags: MW
HStem: 0 105<185 407 185 460> 332 105<185 407 185 460> 605 105<185 533 185 185>
VStem: 70 115<105 332 437 605> 460 115<158 279 279 279>
LayerCount: 2
Fore
SplineSet
70 0 m 1
 70 710 l 1
 533 710 l 1
 533 605 l 1
 185 605 l 1
 185 437 l 1
 460 437 l 1
 575 320 l 1
 575 117 l 1
 460 0 l 1
 70 0 l 1
460 279 m 1
 407 332 l 1
 185 332 l 1
 185 105 l 1
 407 105 l 1
 460 158 l 1
 460 279 l 1
EndSplineSet
Validated: 1
EndChar

StartChar: afii10020
Encoding: 1043 1043 91
Width: 527
Flags: MW
HStem: 0 21G<70 185 70 70> 605 105<185 185 185 517>
VStem: 70 115<0 605 0 710 0 710>
LayerCount: 2
Fore
SplineSet
185 605 m 1
 185 0 l 1
 70 0 l 1
 70 710 l 1
 517 710 l 1
 517 605 l 1
 185 605 l 1
EndSplineSet
Validated: 1
EndChar

StartChar: afii10021
Encoding: 1044 1044 92
Width: 676
Flags: MW
HStem: -168 21G<0 115 0 0 541 656 541 541> 0 105<190 468 0 115> 605 105<267 468 267 267>
VStem: 0 115<-168 0 -168 105 -168 105> 468 115<105 605 605 605> 541 115<-168 0 0 0>
LayerCount: 2
Fore
SplineSet
656 105 m 1xf4
 656 -168 l 1
 541 -168 l 1
 541 0 l 1xf4
 115 0 l 1
 115 -168 l 1
 0 -168 l 1
 0 105 l 1
 66 105 l 1
 106 190 l 1
 164 710 l 1
 583 710 l 1
 583 105 l 1xf8
 656 105 l 1xf4
218 164 m 1
 190 105 l 1
 468 105 l 1
 468 605 l 1xf8
 267 605 l 1
 218 164 l 1
EndSplineSet
Validated: 1
EndChar

StartChar: afii10024
Encoding: 1046 1046 93
Width: 899
Flags: MW
HStem: -20 20G<392 507 392 392> -15 21G<44 44 855 855> 307 105<323 392 323 323 507 576> 705 20G<44 44 855 855>
VStem: 392 115<0 307 0 307 412 710>
LayerCount: 2
Fore
SplineSet
318 412 m 1x78
 392 412 l 1
 392 710 l 1
 507 710 l 1
 507 412 l 1
 581 412 l 1
 720 684 l 1
 855 725 l 1
 889 624 l 1
 801 597 l 1
 677 355 l 1
 801 113 l 1
 889 86 l 1
 855 -15 l 1x78
 720 26 l 1
 576 307 l 1
 507 307 l 1
 507 0 l 1
 392 0 l 1xb8
 392 307 l 1
 323 307 l 1
 179 26 l 1
 44 -15 l 1
 10 86 l 1
 98 113 l 1
 222 355 l 1
 98 597 l 1
 10 624 l 1
 44 725 l 1
 179 684 l 1
 318 412 l 1x78
EndSplineSet
Validated: 1
EndChar

StartChar: afii10025
Encoding: 1047 1047 94
Width: 559
Flags: MW
HStem: 0 105<144 342 144 394 123 342> 306 105<158 328 158 333> 605 105<153 340 153 153>
VStem: 387 115<453 559 559 559>
LayerCount: 2
Fore
SplineSet
387 453 m 1
 387 559 l 1
 340 605 l 1
 153 605 l 1
 45 567 l 1
 9 668 l 1
 137 710 l 1
 393 710 l 1
 502 601 l 1
 502 422 l 1
 422 359 l 1
 509 291 l 1
 509 115 l 1
 394 0 l 1
 123 0 l 1
 0 42 l 1
 35 141 l 1
 144 105 l 1
 342 105 l 1
 394 157 l 1
 394 255 l 1
 328 306 l 1
 158 306 l 1
 158 411 l 1
 333 411 l 1
 387 453 l 1
EndSplineSet
Validated: 1
EndChar

StartChar: afii10026
Encoding: 1048 1048 95
Width: 646
Flags: MW
HStem: 0 21G<70 181 70 70 461 576 461 461> 690 20G<70 185 185 185 465 576 576 576>
VStem: 70 115<255 710 255 710 255 710> 461 115<0 455 455 455>
LayerCount: 2
Fore
SplineSet
204 254 m 1
 465 710 l 1
 576 710 l 1
 576 0 l 1
 461 0 l 1
 461 455 l 1
 470 517 l 1
 466 517 l 1
 442 456 l 1
 181 0 l 1
 70 0 l 1
 70 710 l 1
 185 710 l 1
 185 255 l 1
 176 193 l 1
 180 193 l 1
 204 254 l 1
EndSplineSet
Validated: 1
EndChar

StartChar: afii10027
Encoding: 1049 1049 96
Width: 646
Flags: MW
HStem: 0 21G<70 181 70 70 461 576 461 461> 775 90<257 389 257 427 219 389> 775 189<219 240 406 427 219 219>
VStem: 70 115<255 710 255 710 255 710> 145 95<882 964 882 964 882 964> 406 95<882 964> 461 115<0 455 455 455>
LayerCount: 2
Fore
SplineSet
501 848 m 1xb4
 427 775 l 1
 219 775 l 1
 145 848 l 1
 145 964 l 1
 240 964 l 1xac
 240 882 l 1
 257 865 l 1
 389 865 l 1xcc
 406 882 l 1
 406 964 l 1
 501 964 l 1
 501 848 l 1xb4
204 254 m 1
 465 710 l 1
 576 710 l 1
 576 0 l 1
 461 0 l 1
 461 455 l 1
 470 517 l 1
 466 517 l 1
 442 456 l 1
 181 0 l 1
 70 0 l 1
 70 710 l 1
 185 710 l 1
 185 255 l 1xd2
 176 193 l 1
 180 193 l 1
 204 254 l 1
EndSplineSet
Validated: 1
EndChar

StartChar: afii10028
Encoding: 1050 1050 97
Width: 593
Flags: MW
HStem: -20 20G<70 186 70 70> -15 21G<549 549> 307 105<186 267 186 272> 705 20G<549 549>
VStem: 70 116<0 307 412 710>
LayerCount: 2
Fore
SplineSet
186 412 m 1xb8
 272 412 l 1
 411 684 l 1
 549 725 l 1
 583 623 l 1
 495 597 l 1
 371 355 l 1
 495 113 l 1
 583 87 l 1
 549 -15 l 1x78
 411 26 l 1
 267 307 l 1
 186 307 l 1
 186 0 l 1
 70 0 l 1
 70 710 l 1
 186 710 l 1
 186 412 l 1xb8
EndSplineSet
Validated: 1
EndChar

StartChar: afii10029
Encoding: 1051 1051 98
Width: 673
Flags: MW
HStem: -20 20G<488 603 488 488> -15 21G<34 34> 605 105<277 488 277 277>
VStem: 488 115<0 605 605 605>
LayerCount: 2
Fore
SplineSet
603 710 m 1x70
 603 0 l 1
 488 0 l 1xb0
 488 605 l 1
 277 605 l 1
 226 105 l 1
 145 22 l 1
 34 -15 l 1
 0 87 l 1
 81 114 l 1
 115 149 l 1
 173 710 l 1
 603 710 l 1x70
EndSplineSet
Validated: 1
EndChar

StartChar: afii10033
Encoding: 1055 1055 99
Width: 645
Flags: MW
HStem: 0 21G<70 185 70 70 460 460 460 575> 605 105<185 185 185 460>
VStem: 70 115<0 605 0 710 0 710> 460 115<0 605 605 605>
LayerCount: 2
Fore
SplineSet
185 605 m 1
 185 0 l 1
 70 0 l 1
 70 710 l 1
 575 710 l 1
 575 0 l 1
 460 0 l 1
 460 605 l 1
 185 605 l 1
EndSplineSet
Validated: 1
EndChar

StartChar: afii10037
Encoding: 1059 1059 100
Width: 588
Flags: MW
HStem: 0 105<109 219 109 260 109 219> 710 20G<102 102 484 484>
LayerCount: 2
Fore
SplineSet
325 337 m 1
 484 730 l 1
 588 688 l 1
 340 76 l 1
 260 0 l 1
 109 0 l 1
 109 105 l 1
 219 105 l 1
 239 124 l 1
 256 168 l 1
 0 679 l 1
 102 730 l 1
 299 337 l 1
 310 279 l 1
 314 279 l 1
 325 337 l 1
EndSplineSet
Validated: 1
EndChar

StartChar: afii10038
Encoding: 1060 1060 101
Width: 825
Flags: MW
HStem: -25 21G<355 470 355 355> 90 105<217 355 217 355 166 355 470 608> 555 105<217 355 217 217 470 608> 755 20G<355 470 470 470>
VStem: 50 115<247 503 247 544 247 544> 355 115<-25 90 -25 90 195 555 660 775> 660 115<247 503 503 503>
CounterMasks: 1 0e
LayerCount: 2
Fore
SplineSet
166 660 m 1
 355 660 l 1
 355 775 l 1
 470 775 l 1
 470 660 l 1
 659 660 l 1
 775 544 l 1
 775 206 l 1
 659 90 l 1
 470 90 l 1
 470 -25 l 1
 355 -25 l 1
 355 90 l 1
 166 90 l 1
 50 206 l 1
 50 544 l 1
 166 660 l 1
608 555 m 1
 470 555 l 1
 470 195 l 1
 608 195 l 1
 660 247 l 1
 660 503 l 1
 608 555 l 1
355 555 m 1
 217 555 l 1
 165 503 l 1
 165 247 l 1
 217 195 l 1
 355 195 l 1
 355 555 l 1
EndSplineSet
Validated: 1
EndChar

StartChar: afii10040
Encoding: 1062 1062 102
Width: 678
Flags: MW
HStem: -168 21G<543 658 543 543> 0 105<185 459 185 543> 690 20G<70 185 185 185 459 574 574 574>
VStem: 70 115<105 710 105 710 105 710> 459 115<105 710 105 710> 543 115<-168 0 0 0>
LayerCount: 2
Fore
SplineSet
70 0 m 1xf4
 70 710 l 1
 185 710 l 1
 185 105 l 1
 459 105 l 1
 459 710 l 1
 574 710 l 1
 574 105 l 1xf8
 658 105 l 1
 658 -168 l 1
 543 -168 l 1
 543 0 l 1
 70 0 l 1xf4
EndSplineSet
Validated: 1
EndChar

StartChar: afii10041
Encoding: 1063 1063 103
Width: 632
Flags: MW
HStem: 0 21G<447 562 447 447> 255 105<205 360 155 393> 690 20G<60 175 175 175 447 562 562 562>
VStem: 60 115<389 710 389 710 389 710> 447 115<0 274 274 274 372 710 0 710>
LayerCount: 2
Fore
SplineSet
447 372 m 1
 447 710 l 1
 562 710 l 1
 562 0 l 1
 447 0 l 1
 447 274 l 1
 360 255 l 1
 155 255 l 1
 60 351 l 1
 60 710 l 1
 175 710 l 1
 175 389 l 1
 205 360 l 1
 393 360 l 1
 447 372 l 1
EndSplineSet
Validated: 1
EndChar

StartChar: afii10042
Encoding: 1064 1064 104
Width: 1007
Flags: MW
HStem: 0 105<184 446 561 822> 690 20G<70 184 184 184 446 561 561 561 822 937 937 937>
VStem: 70 114<105 710 105 710 105 710> 446 115<105 710 105 710> 822 115<105 710>
LayerCount: 2
Fore
SplineSet
937 0 m 1
 70 0 l 1
 70 710 l 1
 184 710 l 1
 184 105 l 1
 446 105 l 1
 446 710 l 1
 561 710 l 1
 561 105 l 1
 822 105 l 1
 822 710 l 1
 937 710 l 1
 937 0 l 1
EndSplineSet
Validated: 1
EndChar

StartChar: afii10043
Encoding: 1065 1065 105
Width: 1012
Flags: MW
HStem: -168 21G<877 992 877 877> 0 105<185 432 547 793> 690 20G<70 185 185 185 432 547 547 547 793 908 908 908>
VStem: 70 115<105 710 105 710 105 710> 432 115<105 710 105 710> 793 115<105 710 105 710> 877 115<-168 0 0 0>
LayerCount: 2
Fore
SplineSet
70 0 m 1xfa
 70 710 l 1
 185 710 l 1
 185 105 l 1
 432 105 l 1
 432 710 l 1
 547 710 l 1
 547 105 l 1
 793 105 l 1
 793 710 l 1
 908 710 l 1
 908 105 l 1xfc
 992 105 l 1
 992 -168 l 1
 877 -168 l 1
 877 0 l 1
 70 0 l 1xfa
EndSplineSet
Validated: 1
EndChar

StartChar: afii10044
Encoding: 1066 1066 106
Width: 687
Flags: MW
HStem: 0 105<258 479 258 532> 347 105<258 479 258 532> 605 105<0 143 0 258>
VStem: 143 115<105 347 452 605 605 605> 532 115<158 294 294 294>
LayerCount: 2
Fore
SplineSet
143 0 m 1
 143 605 l 1
 0 605 l 1
 0 710 l 1
 258 710 l 1
 258 452 l 1
 532 452 l 1
 647 335 l 1
 647 117 l 1
 532 0 l 1
 143 0 l 1
532 294 m 1
 479 347 l 1
 258 347 l 1
 258 105 l 1
 479 105 l 1
 532 158 l 1
 532 294 l 1
EndSplineSet
Validated: 1
EndChar

StartChar: afii10045
Encoding: 1067 1067 107
Width: 863
Flags: MW
HStem: 0 105<185 406 185 459> 347 105<185 406 185 459> 690 20G<70 185 185 185 678 793 793 793>
VStem: 70 115<105 347 452 710> 459 115<158 294 294 294> 678 115<0 710 0 710>
LayerCount: 2
Fore
SplineSet
678 0 m 1
 678 710 l 1
 793 710 l 1
 793 0 l 1
 678 0 l 1
70 0 m 1
 70 710 l 1
 185 710 l 1
 185 452 l 1
 459 452 l 1
 574 335 l 1
 574 117 l 1
 459 0 l 1
 70 0 l 1
459 294 m 1
 406 347 l 1
 185 347 l 1
 185 105 l 1
 406 105 l 1
 459 158 l 1
 459 294 l 1
EndSplineSet
Validated: 1
EndChar

StartChar: afii10046
Encoding: 1068 1068 108
Width: 614
Flags: MW
HStem: 0 105<185 406 185 459> 347 105<185 406 185 459> 690 20G<70 185 185 185>
VStem: 70 115<105 347 452 710> 459 115<158 294 294 294>
LayerCount: 2
Fore
SplineSet
70 0 m 1
 70 710 l 1
 185 710 l 1
 185 452 l 1
 459 452 l 1
 574 335 l 1
 574 117 l 1
 459 0 l 1
 70 0 l 1
459 294 m 1
 406 347 l 1
 185 347 l 1
 185 105 l 1
 406 105 l 1
 459 158 l 1
 459 294 l 1
EndSplineSet
Validated: 1
EndChar

StartChar: afii10047
Encoding: 1069 1069 109
Width: 606
Flags: MW
HStem: 0 105<197 379 197 430 145 379> 294 105<187 431 187 431> 605 105<208 379 208 208>
VStem: 41 115<470 553 470 594 470 594> 431 115<157 294 294 294 399 553 553 553>
LayerCount: 2
Fore
SplineSet
109 193 m 1
 197 105 l 1
 379 105 l 1
 431 157 l 1
 431 294 l 1
 187 294 l 1
 187 399 l 1
 431 399 l 1
 431 553 l 1
 379 605 l 1
 208 605 l 1
 156 553 l 1
 156 470 l 1
 41 470 l 1
 41 594 l 1
 157 710 l 1
 430 710 l 1
 546 594 l 1
 546 116 l 1
 430 0 l 1
 145 0 l 1
 30 115 l 1
 109 193 l 1
EndSplineSet
Validated: 1
EndChar

StartChar: afii10048
Encoding: 1070 1070 110
Width: 885
Flags: MW
HStem: 0 105<478 653 478 699 432 653> 317 105<185 306 185 306> 605 105<478 653 478 478>
VStem: 70 115<0 317 0 422 422 710> 306 115<157 317 317 317 422 552 157 595 157 595> 710 115<158 552 552 552>
LayerCount: 2
Fore
SplineSet
432 710 m 1
 699 710 l 1
 825 595 l 1
 825 115 l 1
 699 0 l 1
 432 0 l 1
 306 115 l 1
 306 317 l 1
 185 317 l 1
 185 0 l 1
 70 0 l 1
 70 710 l 1
 185 710 l 1
 185 422 l 1
 306 422 l 1
 306 595 l 1
 432 710 l 1
710 552 m 1
 653 605 l 1
 478 605 l 1
 421 552 l 1
 421 157 l 1
 478 105 l 1
 653 105 l 1
 710 158 l 1
 710 552 l 1
EndSplineSet
Validated: 1
EndChar

StartChar: afii10049
Encoding: 1071 1071 111
Width: 627
Flags: MW
HStem: -20 20G<442 557 442 442> -15 21G<74 74> 262 105<161 442 161 442 349 349 349 442> 605 105<215 442 215 215>
VStem: 52 115<414 558 414 602 414 602> 442 115<0 262 262 262 367 605 605 605>
LayerCount: 2
Fore
SplineSet
442 605 m 1x7c
 215 605 l 1
 167 558 l 1
 167 414 l 1
 215 367 l 1
 442 367 l 1
 442 605 l 1x7c
210 262 m 1
 161 262 l 1
 52 370 l 1
 52 602 l 1
 161 710 l 1
 557 710 l 1
 557 0 l 1
 442 0 l 1xbc
 442 262 l 1
 349 262 l 1
 205 25 l 1
 74 -15 l 1
 40 86 l 1
 128 113 l 1
 212 251 l 1
 235 269 l 1
 233 272 l 1
 210 262 l 1
EndSplineSet
Validated: 1
EndChar

StartChar: afii10066
Encoding: 1073 1073 112
Width: 552
Flags: MW
HStem: 0 105<201 356 201 407 150 356> 377 105<234 356 234 234> 752 20G<451 451>
VStem: 55 115<136 331 443 505> 387 115<136 346 346 346>
LayerCount: 2
Fore
SplineSet
170 505 m 1
 170 443 l 1
 224 482 l 1
 407 482 l 1
 502 387 l 1
 502 95 l 1
 407 0 l 1
 150 0 l 1
 55 95 l 1
 55 544 l 1
 182 675 l 1
 364 710 l 1
 451 772 l 1
 517 678 l 1
 423 611 l 1
 239 576 l 1
 170 505 l 1
356 377 m 1
 234 377 l 1
 170 331 l 1
 170 136 l 1
 201 105 l 1
 356 105 l 1
 387 136 l 1
 387 346 l 1
 356 377 l 1
EndSplineSet
Validated: 1
EndChar

StartChar: afii10067
Encoding: 1074 1074 113
Width: 540
Flags: MW
HStem: 0 105<170 349 170 401> 225 105<170 329 170 332 170 329> 438 105<170 349 170 170>
VStem: 55 115<105 225 330 438> 363 115<354 424 424 424>
LayerCount: 2
Fore
SplineSet
329 330 m 1
 363 354 l 1
 363 424 l 1
 349 438 l 1
 170 438 l 1
 170 330 l 1
 329 330 l 1
380 190 m 1
 332 225 l 1
 170 225 l 1
 170 105 l 1
 349 105 l 1
 380 136 l 1
 380 190 l 1
495 224 m 1
 495 94 l 1
 401 0 l 1
 55 0 l 1
 55 543 l 1
 400 543 l 1
 478 465 l 1
 478 319 l 1
 421 278 l 1
 495 224 l 1
EndSplineSet
Validated: 1
EndChar

StartChar: afii10068
Encoding: 1075 1075 114
Width: 445
Flags: MW
HStem: 0 21G<55 171 55 55> 437 106<171 171 171 435>
VStem: 55 116<0 437 0 543 0 543>
LayerCount: 2
Fore
SplineSet
171 437 m 1
 171 0 l 1
 55 0 l 1
 55 543 l 1
 435 543 l 1
 435 437 l 1
 171 437 l 1
EndSplineSet
Validated: 1
EndChar

StartChar: afii10069
Encoding: 1076 1076 115
Width: 584
Flags: MW
HStem: -150 21G<0 115 0 0 449 449 449 564> 0 105<186 388 0 115> 438 105<243 388 243 243>
VStem: 0 115<-150 0 -150 105 -150 105> 388 115<105 438 438 438> 449 115<-150 0 0 0>
LayerCount: 2
Fore
SplineSet
215 166 m 1xf8
 186 105 l 1
 388 105 l 1
 388 438 l 1
 243 438 l 1
 215 166 l 1xf8
449 0 m 1xf4
 115 0 l 1
 115 -150 l 1
 0 -150 l 1
 0 105 l 1
 60 105 l 1
 98 184 l 1
 135 543 l 1
 503 543 l 1
 503 105 l 1xf8
 564 105 l 1
 564 -150 l 1
 449 -150 l 1
 449 0 l 1xf4
EndSplineSet
Validated: 1
EndChar

StartChar: afii10072
Encoding: 1078 1078 116
Width: 729
Flags: MW
HStem: -20 20G -20 21G<55 55 674 674> 543 20G
VStem: 307 115<0 217 0 217 322 543>
LayerCount: 2
Fore
SplineSet
307 322 m 1
 307 543 l 1
 422 543 l 1
 422 322 l 1
 442 322 l 1
 568 508 l 1
 674 563 l 1
 724 466 l 1
 651 428 l 1
 544 270 l 1
 651 115 l 1
 724 77 l 1
 674 -20 l 1
 568 35 l 1
 442 217 l 1
 422 217 l 1
 422 0 l 1
 307 0 l 1
 307 217 l 1
 287 217 l 1
 161 35 l 1
 55 -20 l 1
 5 77 l 1
 78 115 l 1
 185 270 l 1
 78 428 l 1
 5 466 l 1
 55 563 l 1
 161 508 l 1
 287 322 l 1
 307 322 l 1
EndSplineSet
Validated: 1
EndChar

StartChar: afii10073
Encoding: 1079 1079 117
Width: 504
Flags: MW
HStem: 0 105<143 313 158 313 158 364> 220 105<138 293 138 296 138 293> 438 105<159 312 159 159>
VStem: 339 115<358 411 411 411>
LayerCount: 2
Fore
SplineSet
143 0 m 1
 15 40 l 1
 46 140 l 1
 158 105 l 1
 313 105 l 1
 344 136 l 1
 344 185 l 1
 296 220 l 1
 138 220 l 1
 138 325 l 1
 293 325 l 1
 339 358 l 1
 339 411 l 1
 312 438 l 1
 159 438 l 1
 55 403 l 1
 22 501 l 1
 147 543 l 1
 363 543 l 1
 454 452 l 1
 454 323 l 1
 385 273 l 1
 459 219 l 1
 459 95 l 1
 364 0 l 1
 143 0 l 1
EndSplineSet
Validated: 1
EndChar

StartChar: afii10074
Encoding: 1080 1080 118
Width: 575
Flags: MW
HStem: 0 21G<79 191 79 79 405 520 405 405> 538 20G<153 153>
VStem: 79 115<231 231 231 420 420 420> 405 115<0 312 312 312>
LayerCount: 2
Fore
SplineSet
194 231 m 1
 185 169 l 1
 189 169 l 1
 213 230 l 1
 408 543 l 1
 520 543 l 1
 520 0 l 1
 405 0 l 1
 405 312 l 1
 414 374 l 1
 410 374 l 1
 386 313 l 1
 191 0 l 1
 79 0 l 1
 79 420 l 1
 45 522 l 1
 153 558 l 1
 194 434 l 1
 194 231 l 1
EndSplineSet
Validated: 1
EndChar

StartChar: afii10075
Encoding: 1081 1081 119
Width: 575
Flags: MW
HStem: 0 21G<79 191 79 79 405 520 405 405> 618 90<236 363 236 401 198 363> 618 160<198 219 380 401 198 198>
VStem: 79 115<231 231 231 420 420 420> 405 115<0 312 312 312>
LayerCount: 2
Fore
SplineSet
475 691 m 1xb8
 401 618 l 1
 198 618 l 1
 124 691 l 1
 124 778 l 1
 219 778 l 1xb8
 219 725 l 1
 236 708 l 1
 363 708 l 1xd8
 380 725 l 1
 380 778 l 1
 475 778 l 1
 475 691 l 1xb8
194 231 m 1
 185 169 l 1
 189 169 l 1
 213 230 l 1
 408 543 l 1
 520 543 l 1
 520 0 l 1
 405 0 l 1
 405 312 l 1
 414 374 l 1
 410 374 l 1
 386 313 l 1
 191 0 l 1
 79 0 l 1
 79 420 l 1
 45 522 l 1
 153 558 l 1
 194 434 l 1
 194 231 l 1
EndSplineSet
Validated: 1
EndChar

StartChar: afii10076
Encoding: 1082 1082 120
Width: 499
Flags: MW
HStem: -20 20G 543 20G
VStem: 55 115<0 217 322 543>
LayerCount: 2
Fore
SplineSet
170 322 m 1
 212 322 l 1
 338 508 l 1
 444 563 l 1
 494 466 l 1
 421 428 l 1
 314 270 l 1
 421 115 l 1
 494 77 l 1
 444 -20 l 1
 338 35 l 1
 212 217 l 1
 170 217 l 1
 170 0 l 1
 55 0 l 1
 55 543 l 1
 170 543 l 1
 170 322 l 1
EndSplineSet
Validated: 1
EndChar

StartChar: afii10077
Encoding: 1083 1083 121
Width: 571
Flags: MW
HStem: -20 20G<401 516 401 401> -15 21G<37 37> 438 105<251 401 251 251>
VStem: 401 115<0 438 438 438>
LayerCount: 2
Fore
SplineSet
516 543 m 1x70
 516 0 l 1
 401 0 l 1xb0
 401 438 l 1
 251 438 l 1
 212 96 l 1
 142 23 l 1
 37 -15 l 1
 0 86 l 1
 66 110 l 1
 100 145 l 1
 145 543 l 1
 516 543 l 1x70
EndSplineSet
Validated: 1
EndChar

StartChar: afii10078
Encoding: 1084 1084 122
Width: 676
Flags: MW
HStem: 0 21G<55 170 55 55 506 506 506 621> 523 20G<55 167 167 167 509 621 621 621>
VStem: 55 115<0 302 0 543> 506 115<0 302 302 302>
LayerCount: 2
Fore
SplineSet
293 123 m 1
 189 303 l 1
 165 364 l 1
 161 364 l 1
 170 302 l 1
 170 0 l 1
 55 0 l 1
 55 543 l 1
 167 543 l 1
 324 271 l 1
 336 238 l 1
 340 238 l 1
 352 271 l 1
 509 543 l 1
 621 543 l 1
 621 0 l 1
 506 0 l 1
 506 302 l 1
 515 364 l 1
 511 364 l 1
 487 303 l 1
 383 123 l 1
 293 123 l 1
EndSplineSet
Validated: 1
EndChar

StartChar: afii10079
Encoding: 1085 1085 123
Width: 576
Flags: MW
HStem: 0 21G<79 194 79 79 406 521 406 406> 217 105<194 406 194 406> 538 20G<153 153>
VStem: 79 115<0 217 322 420 420 420> 406 115<0 217 217 217 322 543 0 543>
LayerCount: 2
Fore
SplineSet
79 420 m 1
 45 522 l 1
 153 558 l 1
 194 434 l 1
 194 322 l 1
 406 322 l 1
 406 543 l 1
 521 543 l 1
 521 0 l 1
 406 0 l 1
 406 217 l 1
 194 217 l 1
 194 0 l 1
 79 0 l 1
 79 420 l 1
EndSplineSet
Validated: 1
EndChar

StartChar: afii10081
Encoding: 1087 1087 124
Width: 552
Flags: MW
HStem: 0 21G<55 170 55 55 382 382 382 497> 438 105<170 170 170 382>
VStem: 55 115<0 438 0 543 0 543> 382 115<0 438 438 438>
LayerCount: 2
Fore
SplineSet
170 438 m 1
 170 0 l 1
 55 0 l 1
 55 543 l 1
 497 543 l 1
 497 0 l 1
 382 0 l 1
 382 438 l 1
 170 438 l 1
EndSplineSet
Validated: 1
EndChar

StartChar: afii10084
Encoding: 1090 1090 125
Width: 451
Flags: MW
HStem: 0 21G<168 283 168 168> 438 105<10 168 10 441 283 441 283 283>
VStem: 168 115<0 438 0 438>
LayerCount: 2
Fore
SplineSet
10 543 m 1
 441 543 l 1
 441 438 l 1
 283 438 l 1
 283 0 l 1
 168 0 l 1
 168 438 l 1
 10 438 l 1
 10 543 l 1
EndSplineSet
Validated: 1
EndChar

StartChar: afii10086
Encoding: 1092 1092 126
Width: 725
Flags: MW
HStem: -168 21G<305 420 305 305> 0 105<201 238 149 273 487 524 487 487> 438 105<201 201 201 238 149 273 487 524> 705 20G<379 379>
VStem: 55 115<136 407 136 449 136 449> 305 115<-168 19 -168 19 114 429 524 587 587 587> 555 115<136 407 407 407>
CounterMasks: 1 0e
LayerCount: 2
Fore
SplineSet
420 601 m 1
 420 524 l 1
 487 543 l 1
 576 543 l 1
 670 449 l 1
 670 94 l 1
 576 0 l 1
 487 0 l 1
 420 19 l 1
 420 -168 l 1
 305 -168 l 1
 305 19 l 1
 238 0 l 1
 149 0 l 1
 55 94 l 1
 55 449 l 1
 149 543 l 1
 238 543 l 1
 305 524 l 1
 305 587 l 1
 271 689 l 1
 379 725 l 1
 420 601 l 1
555 407 m 1
 524 438 l 1
 452 438 l 1
 420 429 l 1
 420 114 l 1
 452 105 l 1
 524 105 l 1
 555 136 l 1
 555 407 l 1
201 438 m 1
 170 407 l 1
 170 136 l 1
 201 105 l 1
 273 105 l 1
 305 114 l 1
 305 429 l 1
 273 438 l 1
 201 438 l 1
EndSplineSet
Validated: 1
EndChar

StartChar: afii10088
Encoding: 1094 1094 127
Width: 580
Flags: MW
HStem: -150 21G<445 560 445 445> 0 105<170 382 170 445> 523 20G<55 170 170 170 382 497 497 497>
VStem: 55 115<105 543 105 543 105 543> 382 115<105 543 105 543> 445 115<-150 0 0 0>
LayerCount: 2
Fore
SplineSet
445 0 m 1xf4
 55 0 l 1
 55 543 l 1
 170 543 l 1
 170 105 l 1
 382 105 l 1
 382 543 l 1
 497 543 l 1
 497 105 l 1xf8
 560 105 l 1
 560 -150 l 1
 445 -150 l 1
 445 0 l 1xf4
EndSplineSet
Validated: 1
EndChar

StartChar: afii10089
Encoding: 1095 1095 128
Width: 530
Flags: MW
HStem: 0 21G<360 475 360 360> 172 105<191 293 139 328> 523 20G<45 160 160 160 360 475 475 475>
VStem: 45 115<308 543 308 543 308 543> 360 115<0 191 191 191 286 543 0 543>
LayerCount: 2
Fore
SplineSet
360 286 m 1
 360 543 l 1
 475 543 l 1
 475 0 l 1
 360 0 l 1
 360 191 l 1
 293 172 l 1
 139 172 l 1
 45 266 l 1
 45 543 l 1
 160 543 l 1
 160 308 l 1
 191 277 l 1
 328 277 l 1
 360 286 l 1
EndSplineSet
Validated: 1
EndChar

StartChar: afii10090
Encoding: 1096 1096 129
Width: 823
Flags: MW
HStem: 0 105<170 354 469 653> 523 20G<55 170 170 170 354 469 469 469 653 768 768 768>
VStem: 55 115<105 543 105 543 105 543> 354 115<105 543 105 543> 653 115<105 543>
CounterMasks: 1 38
LayerCount: 2
Fore
SplineSet
768 0 m 1
 55 0 l 1
 55 543 l 1
 170 543 l 1
 170 105 l 1
 354 105 l 1
 354 543 l 1
 469 543 l 1
 469 105 l 1
 653 105 l 1
 653 543 l 1
 768 543 l 1
 768 0 l 1
EndSplineSet
Validated: 1
EndChar

StartChar: afii10091
Encoding: 1097 1097 130
Width: 851
Flags: MW
HStem: -150 21G<716 831 716 716> 0 105<170 354 469 653> 523 20G<55 170 170 170 354 469 469 469 653 768 768 768>
VStem: 55 115<105 543 105 543 105 543> 354 115<105 543 105 543> 653 115<105 543 105 543> 716 115<-150 0 0 0>
LayerCount: 2
Fore
SplineSet
716 0 m 1xfa
 55 0 l 1
 55 543 l 1
 170 543 l 1
 170 105 l 1
 354 105 l 1
 354 543 l 1
 469 543 l 1
 469 105 l 1
 653 105 l 1
 653 543 l 1
 768 543 l 1
 768 105 l 1xfc
 831 105 l 1
 831 -150 l 1
 716 -150 l 1
 716 0 l 1xfa
EndSplineSet
Validated: 1
EndChar

StartChar: afii10092
Encoding: 1098 1098 131
Width: 613
Flags: MW
HStem: 0 105<260 442 260 493> 258 105<260 442 260 493> 438 105<10 145 10 260>
VStem: 10 250<438 543> 145 115<105 258 363 438 438 438> 473 115<136 227 227 227>
LayerCount: 2
Fore
SplineSet
145 0 m 1xf4
 145 438 l 1xec
 10 438 l 1
 10 543 l 1
 260 543 l 1
 260 363 l 1
 493 363 l 1
 588 268 l 1
 588 95 l 1
 493 0 l 1
 145 0 l 1xf4
473 227 m 1
 442 258 l 1
 260 258 l 1
 260 105 l 1
 442 105 l 1
 473 136 l 1
 473 227 l 1
EndSplineSet
Validated: 1
EndChar

StartChar: afii10093
Encoding: 1099 1099 132
Width: 748
Flags: MW
HStem: 0 105<170 352 170 403> 258 105<170 352 170 403> 523 20G<55 170 170 170 578 693 693 693>
VStem: 55 115<105 258 363 543> 383 115<136 227 227 227> 578 115<0 543 0 543>
LayerCount: 2
Fore
SplineSet
693 543 m 1
 693 0 l 1
 578 0 l 1
 578 543 l 1
 693 543 l 1
55 0 m 1
 55 543 l 1
 170 543 l 1
 170 363 l 1
 403 363 l 1
 498 268 l 1
 498 95 l 1
 403 0 l 1
 55 0 l 1
383 227 m 1
 352 258 l 1
 170 258 l 1
 170 105 l 1
 352 105 l 1
 383 136 l 1
 383 227 l 1
EndSplineSet
Validated: 1
EndChar

StartChar: afii10094
Encoding: 1100 1100 133
Width: 523
Flags: MW
HStem: 0 105<170 352 170 403> 258 105<170 352 170 403> 523 20G<55 170 170 170>
VStem: 55 115<105 258 363 543> 383 115<136 227 227 227>
LayerCount: 2
Fore
SplineSet
55 0 m 1
 55 543 l 1
 170 543 l 1
 170 363 l 1
 403 363 l 1
 498 268 l 1
 498 95 l 1
 403 0 l 1
 55 0 l 1
383 227 m 1
 352 258 l 1
 170 258 l 1
 170 105 l 1
 352 105 l 1
 383 136 l 1
 383 227 l 1
EndSplineSet
Validated: 1
EndChar

StartChar: afii10095
Encoding: 1101 1101 134
Width: 529
Flags: MW
HStem: 0 105<167 328 167 378 153 328> 217 106<165 359 165 359> 330 213<128 147 32 378> 438 105<178 328 178 178>
VStem: 32 115<330 407 330 448 330 448> 359 115<136 217 217 217 323 407 407 407>
LayerCount: 2
Fore
SplineSet
57 140 m 1xec
 167 105 l 1
 328 105 l 1
 359 136 l 1
 359 217 l 1
 165 217 l 1
 165 323 l 1
 359 323 l 1
 359 407 l 1
 328 438 l 1
 178 438 l 1xdc
 147 407 l 1
 147 330 l 1
 32 330 l 1
 32 448 l 1
 128 543 l 1
 378 543 l 1
 474 448 l 1
 474 95 l 1
 378 0 l 1
 153 0 l 1
 25 40 l 1
 57 140 l 1xec
EndSplineSet
Validated: 1
EndChar

StartChar: afii10096
Encoding: 1102 1102 135
Width: 737
Flags: MW
HStem: 0 105<396 536 396 587 345 536> 217 105<170 250 170 250> 438 105<396 536 396 396>
VStem: 55 115<0 217 0 322 322 543> 250 115<136 217 217 217 322 407 136 447 136 447> 567 115<136 407 407 407>
LayerCount: 2
Fore
SplineSet
682 96 m 1
 587 0 l 1
 345 0 l 1
 250 96 l 1
 250 217 l 1
 170 217 l 1
 170 0 l 1
 55 0 l 1
 55 543 l 1
 170 543 l 1
 170 322 l 1
 250 322 l 1
 250 447 l 1
 345 543 l 1
 587 543 l 1
 682 447 l 1
 682 96 l 1
396 105 m 1
 536 105 l 1
 567 136 l 1
 567 407 l 1
 536 438 l 1
 396 438 l 1
 365 407 l 1
 365 136 l 1
 396 105 l 1
EndSplineSet
Validated: 1
EndChar

StartChar: afii10097
Encoding: 1103 1103 136
Width: 539
Flags: MW
HStem: -20 20G -20 21G<79 79> 190 105<127 369 127 369 317 317 317 369> 438 105<184 369 184 184>
VStem: 42 115<322 411 322 459 322 459> 369 115<0 190 190 190 295 438 438 438>
LayerCount: 2
Fore
SplineSet
184 295 m 1
 369 295 l 1
 369 438 l 1
 184 438 l 1
 157 411 l 1
 157 322 l 1
 184 295 l 1
161 190 m 1
 127 190 l 1
 42 274 l 1
 42 459 l 1
 127 543 l 1
 484 543 l 1
 484 0 l 1
 369 0 l 1
 369 190 l 1
 317 190 l 1
 185 35 l 1
 79 -20 l 1
 30 76 l 1
 111 118 l 1
 163 179 l 1
 186 197 l 1
 184 200 l 1
 161 190 l 1
EndSplineSet
Validated: 1
EndChar

StartChar: slash
Encoding: 47 47 137
Width: 557
Flags: MW
HStem: -30 21G<92 92> 720 20G<465 465>
LayerCount: 2
Fore
SplineSet
92 -30 m 1
 0 30 l 1
 465 740 l 1
 557 680 l 1
 92 -30 l 1
EndSplineSet
Validated: 1
EndChar

StartChar: parenright
Encoding: 41 41 138
Width: 283
Flags: MW
HStem: -193 21G<35 35> 715 20G<35 35>
VStem: 128 115<6 536 536 536>
LayerCount: 2
Fore
SplineSet
85 -64 m 1
 128 6 l 1
 128 536 l 1
 85 606 l 1
 0 636 l 1
 35 735 l 1
 165 689 l 1
 243 562 l 1
 243 -20 l 1
 165 -147 l 1
 35 -193 l 1
 0 -94 l 1
 85 -64 l 1
EndSplineSet
Validated: 1
EndChar

StartChar: greater
Encoding: 62 62 139
Width: 360
Flags: MW
HStem: 1 21G<82 82> 505 20G<82 82>
LayerCount: 2
Fore
SplineSet
82 525 m 1
 340 293 l 1
 340 233 l 1
 82 1 l 1
 10 81 l 1
 212 263 l 1
 10 445 l 1
 82 525 l 1
EndSplineSet
Validated: 1
EndChar

StartChar: braceright
Encoding: 125 125 140
Width: 341
Flags: MW
HStem: -188 21G<23 23> 710 20G<23 23>
VStem: 118 115<-12 162 -37 207 -37 207 374 554 554 554>
LayerCount: 2
Fore
SplineSet
321 297 m 1
 321 239 l 1
 233 162 l 1
 233 -37 l 1
 157 -157 l 1
 23 -188 l 1
 0 -88 l 1
 82 -69 l 1
 118 -12 l 1
 118 207 l 1
 187 268 l 1
 118 329 l 1
 118 554 l 1
 82 611 l 1
 0 630 l 1
 23 730 l 1
 157 699 l 1
 233 579 l 1
 233 374 l 1
 321 297 l 1
EndSplineSet
Validated: 1
EndChar

StartChar: guillemotright
Encoding: 187 187 141
Width: 662
Flags: MW
HStem: 0 21G<82 82 349 349> 506 20G<82 82 349 349>
LayerCount: 2
Fore
SplineSet
349 526 m 1
 642 263 l 1
 349 0 l 1
 277 81 l 1
 480 263 l 1
 277 445 l 1
 349 526 l 1
82 526 m 1
 375 263 l 1
 82 0 l 1
 10 81 l 1
 213 263 l 1
 10 445 l 1
 82 526 l 1
EndSplineSet
Validated: 1
EndChar

StartChar: afii10039
Encoding: 1061 1061 142
Width: 574
Flags: MW
HStem: -20 21G<107 107 467 467> 710 20G<103 103 471 471>
LayerCount: 2
Fore
SplineSet
285 442 m 1
 289 442 l 1
 301 475 l 1
 471 730 l 1
 564 668 l 1
 353 352 l 1
 561 43 l 1
 467 -20 l 1
 301 227 l 1
 289 260 l 1
 285 260 l 1
 273 227 l 1
 107 -20 l 1
 13 43 l 1
 221 352 l 1
 10 668 l 1
 103 730 l 1
 273 475 l 1
 285 442 l 1
EndSplineSet
Validated: 1
EndChar

StartChar: afii10019
Encoding: 1042 1042 143
Width: 625
Flags: MW
HStem: 0 105<185 410 185 459> 317 105<185 394 185 399> 605 105<185 185 185 408>
VStem: 70 115<105 317 105 422 422 605> 439 115<453 574 574 574> 460 115<155 266 266 266>
LayerCount: 2
Fore
SplineSet
488 370 m 1xf8
 575 302 l 1
 575 116 l 1xf4
 459 0 l 1
 70 0 l 1
 70 710 l 1
 458 710 l 1
 554 614 l 1
 554 422 l 1
 488 370 l 1xf8
460 266 m 1
 394 317 l 1
 185 317 l 1
 185 105 l 1
 410 105 l 1
 460 155 l 1
 460 266 l 1
185 605 m 1
 185 422 l 1
 399 422 l 1
 439 453 l 1
 439 574 l 1xf8
 408 605 l 1
 185 605 l 1
EndSplineSet
Validated: 1
EndChar

StartChar: afii10022
Encoding: 1045 1045 144
Width: 553
Flags: MW
HStem: 0 105<185 523 185 523> 318 105<185 481 185 481> 605 105<185 523 185 185>
VStem: 70 115<105 318 423 605>
LayerCount: 2
Fore
SplineSet
70 0 m 1
 70 710 l 1
 523 710 l 1
 523 605 l 1
 185 605 l 1
 185 423 l 1
 481 423 l 1
 481 318 l 1
 185 318 l 1
 185 105 l 1
 523 105 l 1
 523 0 l 1
 70 0 l 1
EndSplineSet
Validated: 1
EndChar

StartChar: afii10030
Encoding: 1052 1052 145
Width: 832
Flags: MW
HStem: 0 21G<70 185 70 70 647 647 647 762> 690 20G<70 184 184 184 648 762 762 762>
VStem: 70 115<0 455 0 710> 647 115<0 455 455 455>
LayerCount: 2
Fore
SplineSet
371 161 m 1
 204 456 l 1
 180 517 l 1
 176 517 l 1
 185 455 l 1
 185 0 l 1
 70 0 l 1
 70 710 l 1
 184 710 l 1
 402 327 l 1
 414 294 l 1
 418 294 l 1
 430 327 l 1
 648 710 l 1
 762 710 l 1
 762 0 l 1
 647 0 l 1
 647 455 l 1
 656 517 l 1
 652 517 l 1
 628 456 l 1
 461 161 l 1
 371 161 l 1
EndSplineSet
Validated: 1
EndChar

StartChar: afii10031
Encoding: 1053 1053 146
Width: 645
Flags: MW
HStem: 0 21G<70 185 70 70 460 575 460 460> 318 105<185 460 185 460> 690 20G<70 185 185 185 460 575 575 575>
VStem: 70 115<0 318 0 423 423 710> 460 115<0 318 318 318 423 710 0 710>
LayerCount: 2
Fore
SplineSet
460 423 m 1
 460 710 l 1
 575 710 l 1
 575 0 l 1
 460 0 l 1
 460 318 l 1
 185 318 l 1
 185 0 l 1
 70 0 l 1
 70 710 l 1
 185 710 l 1
 185 423 l 1
 460 423 l 1
EndSplineSet
Validated: 1
EndChar

StartChar: afii10032
Encoding: 1054 1054 147
Width: 655
Flags: MW
HStem: 0 105<232 423 232 469 186 423> 605 105<232 423 232 232>
VStem: 60 115<157 552 157 595 157 595> 480 115<158 552 552 552>
LayerCount: 2
Fore
SplineSet
186 710 m 1
 469 710 l 1
 595 595 l 1
 595 115 l 1
 469 0 l 1
 186 0 l 1
 60 115 l 1
 60 595 l 1
 186 710 l 1
480 552 m 1
 423 605 l 1
 232 605 l 1
 175 552 l 1
 175 157 l 1
 232 105 l 1
 423 105 l 1
 480 158 l 1
 480 552 l 1
EndSplineSet
Validated: 1
EndChar

StartChar: afii10034
Encoding: 1056 1056 148
Width: 615
Flags: MW
HStem: 0 21G<70 185 70 70> 247 105<185 409 185 409 185 459> 605 105<185 409 185 185>
VStem: 70 115<0 247 0 352 352 605> 460 115<404 553 553 553>
LayerCount: 2
Fore
SplineSet
185 247 m 1
 185 0 l 1
 70 0 l 1
 70 710 l 1
 459 710 l 1
 575 595 l 1
 575 362 l 1
 459 247 l 1
 185 247 l 1
409 605 m 1
 185 605 l 1
 185 352 l 1
 409 352 l 1
 460 404 l 1
 460 553 l 1
 409 605 l 1
EndSplineSet
Validated: 1
EndChar

StartChar: afii10035
Encoding: 1057 1057 149
Width: 606
Flags: MW
HStem: 0 105<227 409 227 461 176 409> 605 105<227 398 227 227>
VStem: 60 115<157 553 157 594 157 594> 450 115<470 553 553 553>
LayerCount: 2
Fore
SplineSet
409 105 m 1
 497 193 l 1
 576 115 l 1
 461 0 l 1
 176 0 l 1
 60 116 l 1
 60 594 l 1
 176 710 l 1
 449 710 l 1
 565 594 l 1
 565 470 l 1
 450 470 l 1
 450 553 l 1
 398 605 l 1
 227 605 l 1
 175 553 l 1
 175 157 l 1
 227 105 l 1
 409 105 l 1
EndSplineSet
Validated: 1
EndChar

StartChar: afii10036
Encoding: 1058 1058 150
Width: 539
Flags: MW
HStem: 0 21G<212 327 212 212> 605 105<10 212 10 529 327 529 327 327>
VStem: 212 115<0 605 0 605>
LayerCount: 2
Fore
SplineSet
327 605 m 1
 327 0 l 1
 212 0 l 1
 212 605 l 1
 10 605 l 1
 10 710 l 1
 529 710 l 1
 529 605 l 1
 327 605 l 1
EndSplineSet
Validated: 1
EndChar

StartChar: afii10017
Encoding: 1040 1040 151
Width: 594
Flags: MW
HStem: -20 21G<117 117 477 477> 169 105<211 383 211 416 178 383> 690 20G<233 361 361 361>
LayerCount: 2
Fore
SplineSet
416 169 m 1
 178 169 l 1
 117 -20 l 1
 10 14 l 1
 233 710 l 1
 361 710 l 1
 584 14 l 1
 477 -20 l 1
 416 169 l 1
284 502 m 1
 211 274 l 1
 383 274 l 1
 310 502 l 1
 299 570 l 1
 295 570 l 1
 284 502 l 1
EndSplineSet
Validated: 1
EndChar

StartChar: afii10065
Encoding: 1072 1072 152
Width: 564
Flags: MW
HStem: -10 21G<426 426> 0 105<191 318 191 349 141 318> 219 105<191 373 191 191> 438 105<196 342 196 196>
VStem: 373 115<168 219 219 219 324 407 407 407>
LayerCount: 2
Fore
SplineSet
181 543 m 1x78
 392 543 l 1
 488 448 l 1
 488 140 l 1
 519 13 l 1
 426 -10 l 1xb8
 407 67 l 1
 349 0 l 1
 141 0 l 1
 45 95 l 1
 45 229 l 1
 141 324 l 1
 373 324 l 1
 373 407 l 1
 342 438 l 1
 196 438 l 1
 84 403 l 1
 53 503 l 1
 181 543 l 1x78
373 168 m 1
 373 219 l 1
 191 219 l 1
 160 188 l 1
 160 136 l 1
 191 105 l 1
 318 105 l 1x78
 373 168 l 1
EndSplineSet
Validated: 1
EndChar

StartChar: afii10070
Encoding: 1077 1077 153
Width: 535
Flags: MW
HStem: 0 105<201 357 201 372 151 357> 210 105<170 356 170 411 170 356> 438 105<201 201 201 351>
VStem: 55 115<136 210 136 315 315 407> 382 115<341 407 407 407>
LayerCount: 2
Fore
SplineSet
357 105 m 1
 469 140 l 1
 500 40 l 1
 372 0 l 1
 151 0 l 1
 55 95 l 1
 55 448 l 1
 151 543 l 1
 401 543 l 1
 497 448 l 1
 497 295 l 1
 411 210 l 1
 170 210 l 1
 170 136 l 1
 201 105 l 1
 357 105 l 1
201 438 m 1
 170 407 l 1
 170 315 l 1
 356 315 l 1
 382 341 l 1
 382 407 l 1
 351 438 l 1
 201 438 l 1
EndSplineSet
Validated: 1
EndChar

StartChar: afii10080
Encoding: 1086 1086 154
Width: 557
Flags: MW
HStem: 0 105<201 356 201 407 150 356> 438 105<201 356 201 201>
VStem: 55 115<136 407 136 447 136 447> 387 115<136 407 407 407>
LayerCount: 2
Fore
SplineSet
502 96 m 1
 407 0 l 1
 150 0 l 1
 55 96 l 1
 55 447 l 1
 150 543 l 1
 407 543 l 1
 502 447 l 1
 502 96 l 1
201 105 m 1
 356 105 l 1
 387 136 l 1
 387 407 l 1
 356 438 l 1
 201 438 l 1
 170 407 l 1
 170 136 l 1
 201 105 l 1
EndSplineSet
Validated: 1
EndChar

StartChar: afii10082
Encoding: 1088 1088 155
Width: 573
Flags: MW
HStem: -168 21G<76 191 76 76> 0 105<255 372 255 422 245 372> 438 105<246 246 246 372> 533 20G<138 138>
VStem: 76 115<-168 39 151 375> 403 115<136 407 407 407>
LayerCount: 2
Fore
SplineSet
246 438 m 1xec
 191 375 l 1
 191 151 l 1
 255 105 l 1
 372 105 l 1
 403 136 l 1
 403 407 l 1
 372 438 l 1
 246 438 l 1xec
215 543 m 1
 422 543 l 1xec
 518 448 l 1
 518 95 l 1
 422 0 l 1
 245 0 l 1
 191 39 l 1
 191 -168 l 1
 76 -168 l 1
 76 403 l 1
 45 530 l 1
 138 553 l 1xdc
 157 476 l 1
 215 543 l 1
EndSplineSet
Validated: 1
EndChar

StartChar: afii10083
Encoding: 1089 1089 156
Width: 529
Flags: MW
HStem: 0 105<201 362 201 376 151 362> 330 213<382 401 151 497 382 382> 438 105<201 351 201 201>
VStem: 55 115<136 407 136 448 136 448> 382 115<330 407 407 407>
LayerCount: 2
Fore
SplineSet
362 105 m 1xb8
 472 140 l 1
 504 40 l 1
 376 0 l 1
 151 0 l 1
 55 95 l 1
 55 448 l 1
 151 543 l 1
 401 543 l 1
 497 448 l 1
 497 330 l 1
 382 330 l 1xd8
 382 407 l 1
 351 438 l 1
 201 438 l 1
 170 407 l 1
 170 136 l 1
 201 105 l 1
 362 105 l 1xb8
EndSplineSet
Validated: 1
EndChar

StartChar: afii10085
Encoding: 1091 1091 157
Width: 521
Flags: MW
HStem: -168 105<86 191 86 243 86 191> -20 20G<209 229 209 209> 538 20G<110 110 409 409>
LayerCount: 2
Fore
SplineSet
287 185 m 1
 409 558 l 1
 516 523 l 1
 313 -98 l 1
 243 -168 l 1
 86 -168 l 1
 86 -63 l 1
 191 -63 l 1
 217 -37 l 1
 229 0 l 1
 209 0 l 1
 5 517 l 1
 110 558 l 1
 257 185 l 1
 270 126 l 1
 274 126 l 1
 287 185 l 1
EndSplineSet
Validated: 1
EndChar

StartChar: nine
Encoding: 57 57 158
Width: 605
Flags: MW
HStem: 0 105<179 380 179 430 161 380> 270 105<205 363 155 376> 605 105<205 380 205 205>
VStem: 40 115<426 554> 430 115<156 289 289 289 387 554 554 554>
LayerCount: 2
Fore
SplineSet
545 594 m 1
 545 116 l 1
 430 0 l 1
 161 0 l 1
 40 41 l 1
 73 141 l 1
 179 105 l 1
 380 105 l 1
 430 156 l 1
 430 289 l 1
 363 270 l 1
 155 270 l 1
 40 386 l 1
 40 594 l 1
 155 710 l 1
 430 710 l 1
 545 594 l 1
205 375 m 1
 376 375 l 1
 430 387 l 1
 430 554 l 1
 380 605 l 1
 205 605 l 1
 155 554 l 1
 155 426 l 1
 205 375 l 1
EndSplineSet
Validated: 1
EndChar

StartChar: backslash
Encoding: 92 92 159
Width: 557
Flags: MW
HStem: -30 21G<465 465> 720 20G<92 92>
LayerCount: 2
Fore
SplineSet
557 30 m 1
 465 -30 l 1
 0 680 l 1
 92 740 l 1
 557 30 l 1
EndSplineSet
Validated: 1
EndChar

StartChar: parenleft
Encoding: 40 40 160
Width: 283
Flags: MW
HStem: -193 21G<248 248> 715 20G<248 248>
VStem: 40 115<6 6 6 536>
LayerCount: 2
Fore
SplineSet
155 6 m 1
 198 -64 l 1
 283 -94 l 1
 248 -193 l 1
 118 -147 l 1
 40 -20 l 1
 40 562 l 1
 118 689 l 1
 248 735 l 1
 283 636 l 1
 198 606 l 1
 155 536 l 1
 155 6 l 1
EndSplineSet
Validated: 1
EndChar

StartChar: bracketright
Encoding: 93 93 161
Width: 259
Flags: MW
HStem: -168 105<0 104 0 219 0 104> 605 105<0 104 0 219>
VStem: 0 219<-168 -63 -63 -63 605 710> 104 115<-63 605 605 605>
LayerCount: 2
Fore
SplineSet
219 -168 m 1xe0
 0 -168 l 1
 0 -63 l 1xe0
 104 -63 l 1
 104 605 l 1xd0
 0 605 l 1
 0 710 l 1
 219 710 l 1
 219 -168 l 1xe0
EndSplineSet
Validated: 1
EndChar

StartChar: comma
Encoding: 44 44 162
Width: 190
Flags: MW
HStem: -180 21G<0 0 0 80> 70 20G<60 180 180 180>
LayerCount: 2
Fore
SplineSet
0 -180 m 1
 60 90 l 1
 180 90 l 1
 80 -180 l 1
 0 -180 l 1
EndSplineSet
Validated: 1
EndChar

StartChar: less
Encoding: 60 60 163
Width: 360
Flags: MW
HStem: 1 21G<278 278> 505 20G<278 278>
LayerCount: 2
Fore
SplineSet
20 293 m 1
 278 525 l 1
 350 445 l 1
 148 263 l 1
 350 81 l 1
 278 1 l 1
 20 233 l 1
 20 293 l 1
EndSplineSet
Validated: 1
EndChar

StartChar: x
Encoding: 120 120 164
Width: 494
Flags: MW
HStem: -20 21G<100 100 394 394> 543 20G<101 101 393 393>
LayerCount: 2
Fore
SplineSet
245 351 m 1
 249 351 l 1
 261 384 l 1
 393 563 l 1
 484 496 l 1
 317 270 l 1
 484 48 l 1
 394 -20 l 1
 261 157 l 1
 249 190 l 1
 245 190 l 1
 233 157 l 1
 100 -20 l 1
 10 48 l 1
 177 270 l 1
 10 496 l 1
 101 563 l 1
 233 384 l 1
 245 351 l 1
EndSplineSet
Validated: 1
EndChar

StartChar: y
Encoding: 121 121 165
Width: 521
Flags: MW
HStem: -168 105<86 191 86 243 86 191> -20 20G<209 229 209 209> 538 20G<110 110 409 409>
LayerCount: 2
Fore
SplineSet
287 185 m 1
 409 558 l 1
 516 523 l 1
 313 -98 l 1
 243 -168 l 1
 86 -168 l 1
 86 -63 l 1
 191 -63 l 1
 217 -37 l 1
 229 0 l 1
 209 0 l 1
 5 517 l 1
 110 558 l 1
 257 185 l 1
 270 126 l 1
 274 126 l 1
 287 185 l 1
EndSplineSet
Validated: 1
EndChar

StartChar: X
Encoding: 88 88 166
Width: 574
Flags: MW
HStem: -20 21G<107 107 467 467> 710 20G<103 103 471 471>
LayerCount: 2
Fore
SplineSet
285 442 m 1
 289 442 l 1
 301 475 l 1
 471 730 l 1
 564 668 l 1
 353 352 l 1
 561 43 l 1
 467 -20 l 1
 301 227 l 1
 289 260 l 1
 285 260 l 1
 273 227 l 1
 107 -20 l 1
 13 43 l 1
 221 352 l 1
 10 668 l 1
 103 730 l 1
 273 475 l 1
 285 442 l 1
EndSplineSet
Validated: 1
EndChar

StartChar: M
Encoding: 77 77 167
Width: 832
Flags: MW
HStem: 0 21G<70 185 70 70 647 647 647 762> 690 20G<70 184 184 184 648 762 762 762>
VStem: 70 115<0 455 0 710> 647 115<0 455 455 455>
LayerCount: 2
Fore
SplineSet
371 161 m 1
 204 456 l 1
 180 517 l 1
 176 517 l 1
 185 455 l 1
 185 0 l 1
 70 0 l 1
 70 710 l 1
 184 710 l 1
 402 327 l 1
 414 294 l 1
 418 294 l 1
 430 327 l 1
 648 710 l 1
 762 710 l 1
 762 0 l 1
 647 0 l 1
 647 455 l 1
 656 517 l 1
 652 517 l 1
 628 456 l 1
 461 161 l 1
 371 161 l 1
EndSplineSet
Validated: 1
EndChar

StartChar: A
Encoding: 65 65 168
Width: 594
Flags: MW
HStem: -20 21G<117 117 477 477> 169 105<211 383 211 416 178 383> 690 20G<233 361 361 361>
LayerCount: 2
Fore
SplineSet
416 169 m 1
 178 169 l 1
 117 -20 l 1
 10 14 l 1
 233 710 l 1
 361 710 l 1
 584 14 l 1
 477 -20 l 1
 416 169 l 1
284 502 m 1
 211 274 l 1
 383 274 l 1
 310 502 l 1
 299 570 l 1
 295 570 l 1
 284 502 l 1
EndSplineSet
Validated: 1
EndChar

StartChar: afii10087
Encoding: 1093 1093 169
Width: 494
Flags: MW
HStem: -20 21G<100 100 394 394> 543 20G<101 101 393 393>
LayerCount: 2
Fore
SplineSet
245 351 m 1
 249 351 l 1
 261 384 l 1
 393 563 l 1
 484 496 l 1
 317 270 l 1
 484 48 l 1
 394 -20 l 1
 261 157 l 1
 249 190 l 1
 245 190 l 1
 233 157 l 1
 100 -20 l 1
 10 48 l 1
 177 270 l 1
 10 496 l 1
 101 563 l 1
 233 384 l 1
 245 351 l 1
EndSplineSet
Validated: 1
EndChar

StartChar: afii10108
Encoding: 1115 1115 170
Width: 577
Flags: MW
HStem: 0 21G<90 205 90 90 417 532 417 417> 326 105<269 386 269 269> 477 105<0 90 0 90 205 350> 700 20G<164 164>
VStem: 90 115<0 280 392 477> 417 115<0 295 295 295>
LayerCount: 2
Fore
SplineSet
0 582 m 1
 90 582 l 1
 56 684 l 1
 164 720 l 1
 205 596 l 1
 205 582 l 1
 350 582 l 1
 350 477 l 1
 205 477 l 1
 205 392 l 1
 259 431 l 1
 436 431 l 1
 532 336 l 1
 532 0 l 1
 417 0 l 1
 417 295 l 1
 386 326 l 1
 269 326 l 1
 205 280 l 1
 205 0 l 1
 90 0 l 1
 90 477 l 1
 0 477 l 1
 0 582 l 1
EndSplineSet
Validated: 1
EndChar

StartChar: afii10099
Encoding: 1106 1106 171
Width: 577
Flags: MW
HStem: -69 21G<318 318> -20 20G<90 205 90 90> 326 105<269 386 269 269> 477 105<0 90 0 90 205 350> 700 20G<164 164>
VStem: 90 115<0 280 0 392 392 477> 417 115<108 295 295 295>
LayerCount: 2
Fore
SplineSet
417 108 m 1
 417 295 l 1
 386 326 l 1
 269 326 l 1
 205 280 l 1
 205 0 l 1
 90 0 l 1
 90 477 l 1
 0 477 l 1
 0 582 l 1
 90 582 l 1
 56 684 l 1
 164 720 l 1
 205 596 l 1
 205 582 l 1
 350 582 l 1
 350 477 l 1
 205 477 l 1
 205 392 l 1
 259 431 l 1
 436 431 l 1
 532 336 l 1
 532 78 l 1
 463 -18 l 1
 318 -69 l 1
 282 31 l 1
 389 69 l 1
 417 108 l 1
EndSplineSet
Validated: 1
EndChar

StartChar: afii10060
Encoding: 1035 1035 172
Width: 669
Flags: MW
HStem: 0 21G<107 222 107 107 494 494 494 609> 350 105<309 464 276 514> 605 105<-20 107 -20 349 222 222 222 349>
VStem: 107 115<0 338 0 436 436 605> 494 115<0 321 321 321>
LayerCount: 2
Fore
SplineSet
222 338 m 1
 222 0 l 1
 107 0 l 1
 107 605 l 1
 -20 605 l 1
 -20 710 l 1
 349 710 l 1
 349 605 l 1
 222 605 l 1
 222 436 l 1
 309 455 l 1
 514 455 l 1
 609 359 l 1
 609 0 l 1
 494 0 l 1
 494 321 l 1
 464 350 l 1
 276 350 l 1
 222 338 l 1
EndSplineSet
Validated: 1
EndChar

StartChar: afii10051
Encoding: 1026 1026 173
Width: 669
Flags: MW
HStem: -69 21G<395 395> -20 20G<107 222 107 107> 350 105<309 464 276 514> 605 105<-20 107 -20 349 222 222 222 349>
VStem: 107 115<0 338 0 436 436 605> 494 115<108 321 321 321>
LayerCount: 2
Fore
SplineSet
494 108 m 1
 494 321 l 1
 464 350 l 1
 276 350 l 1
 222 338 l 1
 222 0 l 1
 107 0 l 1
 107 605 l 1
 -20 605 l 1
 -20 710 l 1
 349 710 l 1
 349 605 l 1
 222 605 l 1
 222 436 l 1
 309 455 l 1
 514 455 l 1
 609 359 l 1
 609 78 l 1
 540 -18 l 1
 395 -69 l 1
 359 31 l 1
 466 69 l 1
 494 108 l 1
EndSplineSet
Validated: 1
EndChar

StartChar: afii10106
Encoding: 1113 1113 174
Width: 809
Flags: MW
HStem: -15 21G<37 37> 0 105<491 638 491 689> 248 105<491 638 491 689> 438 105<251 376 251 251>
VStem: 376 115<105 248 353 438 438 438> 669 115<136 217 217 217>
LayerCount: 2
Fore
SplineSet
376 0 m 1x7c
 376 438 l 1
 251 438 l 1
 212 96 l 1
 142 23 l 1
 37 -15 l 1xbc
 0 86 l 1
 66 110 l 1
 100 145 l 1
 145 543 l 1
 491 543 l 1
 491 353 l 1
 689 353 l 1
 784 258 l 1
 784 95 l 1
 689 0 l 1
 376 0 l 1x7c
669 217 m 1x7c
 638 248 l 1
 491 248 l 1
 491 105 l 1
 638 105 l 1
 669 136 l 1
 669 217 l 1x7c
EndSplineSet
Validated: 1
EndChar

StartChar: afii10058
Encoding: 1033 1033 175
Width: 972
Flags: MW
HStem: -15 21G<34 34> 0 105<573 764> 347 105<573 764 573 817> 605 105<277 458 277 277>
VStem: 458 115<105 347 452 605 605 605> 817 115<158 294 294 294>
LayerCount: 2
Fore
SplineSet
573 710 m 1xbc
 573 452 l 1
 817 452 l 1
 932 335 l 1
 932 117 l 1
 817 0 l 1
 458 0 l 1
 458 605 l 1
 277 605 l 1
 226 105 l 1x7c
 145 22 l 1
 34 -15 l 1
 0 87 l 1
 81 114 l 1
 115 149 l 1
 173 710 l 1
 573 710 l 1xbc
817 294 m 1
 764 347 l 1
 573 347 l 1
 573 105 l 1
 764 105 l 1
 817 158 l 1
 817 294 l 1
EndSplineSet
Validated: 1
EndChar

StartChar: afii10107
Encoding: 1114 1114 176
Width: 814
Flags: MW
HStem: 0 105<491 643 491 694> 233 105<194 376 194 376 491 643> 538 20G<153 153>
VStem: 79 115<0 233 0 338 338 420 420 420> 376 115<105 233 105 233 105 233 338 543> 674 115<136 202 202 202>
LayerCount: 2
Fore
SplineSet
376 0 m 1
 376 233 l 1
 194 233 l 1
 194 0 l 1
 79 0 l 1
 79 420 l 1
 45 522 l 1
 153 558 l 1
 194 434 l 1
 194 338 l 1
 376 338 l 1
 376 543 l 1
 491 543 l 1
 491 338 l 1
 694 338 l 1
 789 243 l 1
 789 95 l 1
 694 0 l 1
 376 0 l 1
674 202 m 1
 643 233 l 1
 491 233 l 1
 491 105 l 1
 643 105 l 1
 674 136 l 1
 674 202 l 1
EndSplineSet
Validated: 1
EndChar

StartChar: afii10059
Encoding: 1034 1034 177
Width: 944
Flags: MW
HStem: 0 105<545 736 545 789> 340 105<185 430 185 430 545 736> 690 20G<70 185 185 185 430 545 545 545>
VStem: 70 115<0 340 0 445 445 710> 430 115<105 340 105 340 105 340 445 710> 789 115<158 287 287 287>
LayerCount: 2
Fore
SplineSet
430 445 m 1
 430 710 l 1
 545 710 l 1
 545 445 l 1
 789 445 l 1
 904 328 l 1
 904 117 l 1
 789 0 l 1
 430 0 l 1
 430 340 l 1
 185 340 l 1
 185 0 l 1
 70 0 l 1
 70 710 l 1
 185 710 l 1
 185 445 l 1
 430 445 l 1
789 287 m 1
 736 340 l 1
 545 340 l 1
 545 105 l 1
 736 105 l 1
 789 158 l 1
 789 287 l 1
EndSplineSet
Validated: 1
EndChar

StartChar: afii10050
Encoding: 1168 1168 178
Width: 527
Flags: MW
HStem: 0 21G<70 185 70 70> 605 195<402 517 402 517>
VStem: 70 115<0 605 0 710 0 710> 402 115<710 800>
LayerCount: 2
Fore
SplineSet
517 605 m 1
 185 605 l 1
 185 0 l 1
 70 0 l 1
 70 710 l 1
 402 710 l 1xf0
 402 800 l 1
 517 800 l 1
 517 605 l 1
EndSplineSet
Validated: 1
EndChar

StartChar: afii10098
Encoding: 1169 1169 179
Width: 445
Flags: MW
HStem: 0 21G<55 171 55 55> 437 106<171 320 55 435 171 171> 437 186<320 435 320 435 171 435>
VStem: 55 116<0 437 0 543 0 543> 320 115<543 623 437 623>
LayerCount: 2
Fore
SplineSet
320 543 m 1xd8
 320 623 l 1
 435 623 l 1xb8
 435 437 l 1
 171 437 l 1
 171 0 l 1
 55 0 l 1
 55 543 l 1
 320 543 l 1xd8
EndSplineSet
Validated: 1
EndChar

StartChar: afii10193
Encoding: 1119 1119 180
Width: 552
Flags: MW
HStem: -150 21G<219 334 219 219> 0 105<170 219 334 382 170 497 334 334> 523 20G<55 170 170 170 382 497 497 497>
VStem: 55 115<105 543 105 543 105 543> 219 115<-150 0 -150 0> 382 115<105 543 0 543>
LayerCount: 2
Fore
SplineSet
497 543 m 1
 497 0 l 1
 334 0 l 1
 334 -150 l 1
 219 -150 l 1
 219 0 l 1
 55 0 l 1
 55 543 l 1
 170 543 l 1
 170 105 l 1
 382 105 l 1
 382 543 l 1
 497 543 l 1
EndSplineSet
Validated: 1
EndChar

StartChar: afii10145
Encoding: 1039 1039 181
Width: 644
Flags: MW
HStem: -168 21G<265 380 265 265> 0 105<185 265 380 459 185 574 380 380> 690 20G<70 185 185 185 459 574 574 574>
VStem: 70 115<105 710 105 710 105 710> 265 115<-168 0 -168 0> 459 115<105 710 0 710>
LayerCount: 2
Fore
SplineSet
380 0 m 1
 380 -168 l 1
 265 -168 l 1
 265 0 l 1
 70 0 l 1
 70 710 l 1
 185 710 l 1
 185 105 l 1
 459 105 l 1
 459 710 l 1
 574 710 l 1
 574 0 l 1
 380 0 l 1
EndSplineSet
Validated: 1
EndChar

StartChar: afii10053
Encoding: 1028 1028 182
Width: 606
Flags: MW
HStem: 0 105<227 409 227 461 176 409> 294 105<175 419 175 419> 605 105<227 398 227 227>
VStem: 60 115<157 294 399 553> 450 115<470 553 553 553>
LayerCount: 2
Fore
SplineSet
409 105 m 1
 497 193 l 1
 576 115 l 1
 461 0 l 1
 176 0 l 1
 60 116 l 1
 60 594 l 1
 176 710 l 1
 449 710 l 1
 565 594 l 1
 565 470 l 1
 450 470 l 1
 450 553 l 1
 398 605 l 1
 227 605 l 1
 175 553 l 1
 175 399 l 1
 419 399 l 1
 419 294 l 1
 175 294 l 1
 175 157 l 1
 227 105 l 1
 409 105 l 1
EndSplineSet
Validated: 1
EndChar

StartChar: afii10101
Encoding: 1108 1108 183
Width: 529
Flags: MW
HStem: 0 105<201 362 201 376 151 362> 217 106<170 364 170 364> 330 213<382 401 151 497 382 382> 438 105<201 351 201 201>
VStem: 55 115<136 217 323 407> 382 115<330 407 407 407>
LayerCount: 2
Fore
SplineSet
362 105 m 1xdc
 472 140 l 1
 504 40 l 1
 376 0 l 1
 151 0 l 1
 55 95 l 1
 55 448 l 1
 151 543 l 1
 401 543 l 1
 497 448 l 1
 497 330 l 1
 382 330 l 1xec
 382 407 l 1
 351 438 l 1
 201 438 l 1
 170 407 l 1
 170 323 l 1
 364 323 l 1
 364 217 l 1
 170 217 l 1
 170 136 l 1
 201 105 l 1
 362 105 l 1xdc
EndSplineSet
Validated: 1
EndChar

StartChar: mu
Encoding: 181 181 184
Width: 574
Flags: MW
HStem: -168 21G<55 170 55 55> 0 105<201 328 201 359 190 328> 523 20G<55 170 170 170 383 498 498 498>
VStem: 55 115<-168 20 136 543> 383 115<168 543>
LayerCount: 2
Fore
SplineSet
498 140 m 1
 529 13 l 1
 436 -10 l 1
 417 67 l 1
 359 0 l 1
 190 0 l 1
 170 20 l 1
 170 -168 l 1
 55 -168 l 1
 55 543 l 1
 170 543 l 1
 170 136 l 1
 201 105 l 1
 328 105 l 1
 383 168 l 1
 383 543 l 1
 498 543 l 1
 498 140 l 1
EndSplineSet
Validated: 1
EndChar

StartChar: afii10054
Encoding: 1029 1029 185
Width: 564
Flags: MW
HStem: 0 105<184 358 184 409 166 358> 605 105<206 383 206 206>
VStem: 409 115<156 223 223 223>
LayerCount: 2
Fore
SplineSet
383 605 m 1
 206 605 l 1
 155 554 l 1
 155 500 l 1
 161 486 l 1
 487 323 l 1
 524 254 l 1
 524 115 l 1
 409 0 l 1
 166 0 l 1
 40 42 l 1
 74 143 l 1
 184 105 l 1
 358 105 l 1
 409 156 l 1
 409 223 l 1
 400 238 l 1
 72 402 l 1
 40 469 l 1
 40 595 l 1
 155 710 l 1
 402 710 l 1
 524 669 l 1
 493 570 l 1
 383 605 l 1
EndSplineSet
Validated: 1
EndChar

StartChar: afii10102
Encoding: 1109 1109 186
Width: 501
Flags: MW
HStem: 0 105<178 317 178 369 156 317> 438 105<183 323 183 183>
LayerCount: 2
Fore
SplineSet
151 385 m 1
 165 362 l 1
 426 272 l 1
 464 210 l 1
 464 95 l 1
 369 0 l 1
 156 0 l 1
 30 42 l 1
 64 143 l 1
 178 105 l 1
 317 105 l 1
 349 137 l 1
 349 160 l 1
 335 183 l 1
 74 273 l 1
 36 335 l 1
 36 448 l 1
 131 543 l 1
 345 543 l 1
 471 501 l 1
 437 400 l 1
 323 438 l 1
 183 438 l 1
 151 406 l 1
 151 385 l 1
EndSplineSet
Validated: 1
EndChar

StartChar: afii10105
Encoding: 1112 1112 187
Width: 254
Flags: MW
HStem: -185 21G<-41 -41> 714 20G<107 162 162 162>
VStem: 77 115<-1 415 415 415>
LayerCount: 2
Fore
SplineSet
192 429 m 1
 192 -31 l 1
 123 -127 l 1
 -41 -185 l 1
 -75 -84 l 1
 49 -40 l 1
 77 -1 l 1
 77 415 l 1
 43 517 l 1
 151 553 l 1
 192 429 l 1
107 605 m 1
 70 642 l 1
 70 697 l 1
 107 734 l 1
 162 734 l 1
 199 697 l 1
 199 642 l 1
 162 605 l 1
 107 605 l 1
EndSplineSet
Validated: 1
EndChar

StartChar: afii10057
Encoding: 1032 1032 188
Width: 544
Flags: MW
HStem: 0 105<137 317 189 317 189 368> 605 105<231 369 231 484>
VStem: 369 115<157 605 605 605>
LayerCount: 2
Fore
SplineSet
137 0 m 1
 0 137 l 1
 78 214 l 1
 189 105 l 1
 317 105 l 1
 369 157 l 1
 369 605 l 1
 231 605 l 1
 231 710 l 1
 484 710 l 1
 484 116 l 1
 368 0 l 1
 137 0 l 1
EndSplineSet
Validated: 1
EndChar

StartChar: uni0406
Encoding: 1030 1030 189
Width: 397
Flags: MW
HStem: 0 105<40 141 256 357 40 141> 605 105<40 141 40 357 256 256 256 357>
VStem: 141 115<105 605 105 605>
LayerCount: 2
Fore
SplineSet
357 0 m 1
 40 0 l 1
 40 105 l 1
 141 105 l 1
 141 605 l 1
 40 605 l 1
 40 710 l 1
 357 710 l 1
 357 605 l 1
 256 605 l 1
 256 105 l 1
 357 105 l 1
 357 0 l 1
EndSplineSet
Validated: 1
EndChar

StartChar: afii10103
Encoding: 1110 1110 190
Width: 256
Flags: MW
HStem: 0 21G<79 194 79 79> 714 20G<109 164 164 164>
VStem: 79 115<0 415 415 415>
LayerCount: 2
Fore
SplineSet
194 429 m 1
 194 0 l 1
 79 0 l 1
 79 415 l 1
 45 517 l 1
 153 553 l 1
 194 429 l 1
109 605 m 1
 72 642 l 1
 72 697 l 1
 109 734 l 1
 164 734 l 1
 201 697 l 1
 201 642 l 1
 164 605 l 1
 109 605 l 1
EndSplineSet
Validated: 1
EndChar

StartChar: afii10062
Encoding: 1038 1038 191
Width: 588
Flags: MW
HStem: 0 105<109 219 109 260 109 219> 753 90<235 367 235 405 197 367> 753 189<197 218 384 405 197 197>
VStem: 123 95<860 942 860 942 860 942> 384 95<860 942>
LayerCount: 2
Fore
SplineSet
325 337 m 1xb8
 484 730 l 1
 588 688 l 1
 340 76 l 1
 260 0 l 1
 109 0 l 1
 109 105 l 1
 219 105 l 1
 239 124 l 1
 256 168 l 1
 0 679 l 1
 102 730 l 1
 299 337 l 1
 310 279 l 1
 314 279 l 1
 325 337 l 1xb8
479 826 m 1
 405 753 l 1
 197 753 l 1
 123 826 l 1
 123 942 l 1
 218 942 l 1xb8
 218 860 l 1
 235 843 l 1
 367 843 l 1xd8
 384 860 l 1
 384 942 l 1
 479 942 l 1
 479 826 l 1
EndSplineSet
Validated: 1
EndChar

StartChar: afii10110
Encoding: 1118 1118 192
Width: 521
Flags: MW
HStem: -168 105<86 191 86 243 86 191> -20 20G<209 229 209 209> 598 90<201 328 201 366 163 328> 598 160<163 184 345 366 163 163>
LayerCount: 2
Fore
SplineSet
287 185 m 1xd0
 409 558 l 1
 516 523 l 1
 313 -98 l 1
 243 -168 l 1
 86 -168 l 1
 86 -63 l 1
 191 -63 l 1
 217 -37 l 1
 229 0 l 1
 209 0 l 1
 5 517 l 1
 110 558 l 1
 257 185 l 1
 270 126 l 1
 274 126 l 1
 287 185 l 1xd0
440 671 m 1
 366 598 l 1
 163 598 l 1
 89 671 l 1
 89 758 l 1
 184 758 l 1xd0
 184 705 l 1
 201 688 l 1
 328 688 l 1xe0
 345 705 l 1
 345 758 l 1
 440 758 l 1
 440 671 l 1
EndSplineSet
Validated: 1
EndChar

StartChar: afii10056
Encoding: 1031 1031 193
Width: 397
Flags: MW
HStem: 0 105<40 141 256 357 40 141> 605 105<40 141 40 357 256 256 256 357> 770 129<78 133 78 133 265 320>
VStem: 141 115<105 605 105 605>
LayerCount: 2
Fore
SplineSet
357 0 m 1
 40 0 l 1
 40 105 l 1
 141 105 l 1
 141 605 l 1
 40 605 l 1
 40 710 l 1
 357 710 l 1
 357 605 l 1
 256 605 l 1
 256 105 l 1
 357 105 l 1
 357 0 l 1
78 770 m 1
 41 807 l 1
 41 862 l 1
 78 899 l 1
 133 899 l 1
 170 862 l 1
 170 807 l 1
 133 770 l 1
 78 770 l 1
265 770 m 1
 228 807 l 1
 228 862 l 1
 265 899 l 1
 320 899 l 1
 357 862 l 1
 357 807 l 1
 320 770 l 1
 265 770 l 1
EndSplineSet
Validated: 1
EndChar

StartChar: afii10104
Encoding: 1111 1111 194
Width: 256
Flags: MW
HStem: 0 21G<79 194 79 79> 605 129<14 69 14 69 205 260>
VStem: 79 115<0 415 415 415>
LayerCount: 2
Fore
SplineSet
194 429 m 1
 194 0 l 1
 79 0 l 1
 79 415 l 1
 45 517 l 1
 153 553 l 1
 194 429 l 1
14 605 m 1
 -23 642 l 1
 -23 697 l 1
 14 734 l 1
 69 734 l 1
 106 697 l 1
 106 642 l 1
 69 605 l 1
 14 605 l 1
205 605 m 1
 168 642 l 1
 168 697 l 1
 205 734 l 1
 260 734 l 1
 297 697 l 1
 297 642 l 1
 260 605 l 1
 205 605 l 1
EndSplineSet
Validated: 1
EndChar

StartChar: perthousand
Encoding: 8240 8240 195
Width: 1162
Flags: MW
HStem: -20 21G<181 181> 0 95<583 641 943 1001> 215 95<583 583 583 641 943 943 943 1001> 710 20G
LayerCount: 2
Fore
SplineSet
547 310 m 1x70
 677 310 l 1
 772 215 l 1
 772 95 l 1
 677 0 l 1
 547 0 l 1
 452 95 l 1
 452 215 l 1
 547 310 l 1x70
181 -20 m 1xb0
 95 46 l 1
 621 730 l 1
 707 663 l 1
 181 -20 l 1xb0
641 215 m 1
 583 215 l 1
 552 184 l 1
 552 126 l 1
 583 95 l 1
 641 95 l 1x70
 672 126 l 1
 672 184 l 1
 641 215 l 1
219 615 m 1
 161 615 l 1
 130 584 l 1
 130 526 l 1
 161 495 l 1
 219 495 l 1
 250 526 l 1
 250 584 l 1
 219 615 l 1
255 710 m 1
 350 615 l 1
 350 495 l 1
 255 400 l 1
 125 400 l 1
 30 495 l 1
 30 615 l 1
 125 710 l 1
 255 710 l 1
907 310 m 1
 1037 310 l 1
 1132 215 l 1
 1132 95 l 1
 1037 0 l 1
 907 0 l 1
 812 95 l 1
 812 215 l 1
 907 310 l 1
1001 215 m 1
 943 215 l 1
 912 184 l 1
 912 126 l 1
 943 95 l 1
 1001 95 l 1
 1032 126 l 1
 1032 184 l 1
 1001 215 l 1
EndSplineSet
Validated: 1
EndChar

StartChar: daggerdbl
Encoding: 8225 8225 196
Width: 440
Flags: MW
HStem: -168 21G<162 278 162 162> 42 105<0 162 0 162 278 440> 395 105<0 162 0 162 278 440> 690 20G<162 278 278 278>
VStem: 162 116<-168 42 -168 42 147 395 500 710>
LayerCount: 2
Fore
SplineSet
0 395 m 1
 0 500 l 1
 162 500 l 1
 162 710 l 1
 278 710 l 1
 278 500 l 1
 440 500 l 1
 440 395 l 1
 278 395 l 1
 278 147 l 1
 440 147 l 1
 440 42 l 1
 278 42 l 1
 278 -168 l 1
 162 -168 l 1
 162 42 l 1
 0 42 l 1
 0 147 l 1
 162 147 l 1
 162 395 l 1
 0 395 l 1
EndSplineSet
Validated: 1
EndChar

StartChar: dagger
Encoding: 8224 8224 197
Width: 440
Flags: MW
HStem: -168 21G<162 278 162 162> 395 105<0 162 0 162 278 440> 690 20G<162 278 278 278>
VStem: 162 116<-168 395 -168 395 500 710>
LayerCount: 2
Fore
SplineSet
0 395 m 1
 0 500 l 1
 162 500 l 1
 162 710 l 1
 278 710 l 1
 278 500 l 1
 440 500 l 1
 440 395 l 1
 278 395 l 1
 278 -168 l 1
 162 -168 l 1
 162 395 l 1
 0 395 l 1
EndSplineSet
Validated: 1
EndChar

StartChar: brokenbar
Encoding: 166 166 198
Width: 256
Flags: MW
HStem: -168 21G<70 186 70 70> 690 20G<70 186 186 186>
VStem: 70 116<-168 199 343 710>
LayerCount: 2
Fore
SplineSet
186 710 m 1
 186 343 l 1
 70 343 l 1
 70 710 l 1
 186 710 l 1
186 -168 m 1
 70 -168 l 1
 70 199 l 1
 186 199 l 1
 186 -168 l 1
EndSplineSet
Validated: 1
EndChar

StartChar: afii10052
Encoding: 1027 1027 199
Width: 527
Flags: MW
HStem: 0 21G<70 185 70 70> 605 105<185 185 185 517> 915 20G<340 450 450 450>
VStem: 70 115<0 605 0 710 0 710>
LayerCount: 2
Fore
SplineSet
185 605 m 1
 185 0 l 1
 70 0 l 1
 70 710 l 1
 517 710 l 1
 517 605 l 1
 185 605 l 1
240 765 m 1
 340 935 l 1
 450 935 l 1
 330 765 l 1
 240 765 l 1
EndSplineSet
Validated: 1
EndChar

StartChar: afii10100
Encoding: 1107 1107 200
Width: 445
Flags: MW
HStem: 0 21G<55 171 55 55> 437 106<171 171 171 435> 748 20G<285 395 395 395>
VStem: 55 116<0 437 0 543 0 543>
LayerCount: 2
Fore
SplineSet
171 437 m 1
 171 0 l 1
 55 0 l 1
 55 543 l 1
 435 543 l 1
 435 437 l 1
 171 437 l 1
185 598 m 1
 285 768 l 1
 395 768 l 1
 275 598 l 1
 185 598 l 1
EndSplineSet
Validated: 1
EndChar

StartChar: afii10061
Encoding: 1036 1036 201
Width: 593
Flags: MW
HStem: -20 20G<70 186 70 70> -15 21G<549 549> 307 105<186 267 186 272> 710 20G 880 20G<340 450 450 450>
VStem: 70 116<0 307 412 710>
LayerCount: 2
Fore
SplineSet
186 412 m 1xbc
 272 412 l 1
 411 684 l 1
 549 725 l 1
 583 623 l 1
 495 597 l 1
 371 355 l 1
 495 113 l 1
 583 87 l 1
 549 -15 l 1x7c
 411 26 l 1
 267 307 l 1
 186 307 l 1
 186 0 l 1
 70 0 l 1
 70 710 l 1
 186 710 l 1
 186 412 l 1xbc
240 730 m 1
 340 900 l 1
 450 900 l 1
 330 730 l 1
 240 730 l 1
EndSplineSet
Validated: 1
EndChar

StartChar: afii10109
Encoding: 1116 1116 202
Width: 499
Flags: MW
HStem: -20 20G 543 20G 713 20G<295 405 405 405>
VStem: 55 115<0 217 322 543>
LayerCount: 2
Fore
SplineSet
170 322 m 1
 212 322 l 1
 338 508 l 1
 444 563 l 1
 494 466 l 1
 421 428 l 1
 314 270 l 1
 421 115 l 1
 494 77 l 1
 444 -20 l 1
 338 35 l 1
 212 217 l 1
 170 217 l 1
 170 0 l 1
 55 0 l 1
 55 543 l 1
 170 543 l 1
 170 322 l 1
195 563 m 1
 295 733 l 1
 405 733 l 1
 285 563 l 1
 195 563 l 1
EndSplineSet
Validated: 1
EndChar

StartChar: guilsinglright
Encoding: 8250 8250 203
Width: 360
Flags: MW
HStem: 1 21G<82 82> 505 20G<82 82>
LayerCount: 2
Fore
SplineSet
82 525 m 1
 340 293 l 1
 340 233 l 1
 82 1 l 1
 10 81 l 1
 212 263 l 1
 10 445 l 1
 82 525 l 1
EndSplineSet
Validated: 1
EndChar

StartChar: guilsinglleft
Encoding: 8249 8249 204
Width: 360
Flags: MW
HStem: 1 21G<278 278> 505 20G<278 278>
LayerCount: 2
Fore
SplineSet
20 293 m 1
 278 525 l 1
 350 445 l 1
 148 263 l 1
 350 81 l 1
 278 1 l 1
 20 233 l 1
 20 293 l 1
EndSplineSet
Validated: 1
EndChar

StartChar: ellipsis
Encoding: 8230 8230 205
Width: 567
Flags: MW
HStem: -15 129<67 122 67 122 256 311 445 500>
LayerCount: 2
Fore
SplineSet
67 -15 m 1
 30 22 l 1
 30 77 l 1
 67 114 l 1
 122 114 l 1
 159 77 l 1
 159 22 l 1
 122 -15 l 1
 67 -15 l 1
256 -15 m 1
 219 22 l 1
 219 77 l 1
 256 114 l 1
 311 114 l 1
 348 77 l 1
 348 22 l 1
 311 -15 l 1
 256 -15 l 1
445 -15 m 1
 408 22 l 1
 408 77 l 1
 445 114 l 1
 500 114 l 1
 537 77 l 1
 537 22 l 1
 500 -15 l 1
 445 -15 l 1
EndSplineSet
Validated: 1
EndChar

StartChar: degree
Encoding: 176 176 206
Width: 380
Flags: MW
HStem: 400 21G<125 255 125 125> 690 20G<125 255 255 255>
LayerCount: 2
Fore
SplineSet
219 615 m 1
 161 615 l 1
 130 584 l 1
 130 526 l 1
 161 495 l 1
 219 495 l 1
 250 526 l 1
 250 584 l 1
 219 615 l 1
255 710 m 1
 350 615 l 1
 350 495 l 1
 255 400 l 1
 125 400 l 1
 30 495 l 1
 30 615 l 1
 125 710 l 1
 255 710 l 1
EndSplineSet
Validated: 1
EndChar

StartChar: uni00AD
Encoding: 173 173 207
Width: 480
Flags: MW
HStem: 292 105<20 460 20 460>
LayerCount: 2
Fore
SplineSet
20 292 m 1
 20 397 l 1
 460 397 l 1
 460 292 l 1
 20 292 l 1
EndSplineSet
Validated: 1
EndChar

StartChar: Euro
Encoding: 8364 8364 208
Width: 606
Flags: MW
HStem: 0 105<227 409 227 461 176 409> 257 75<0 60 0 60 175 415> 378 75<10 60 10 60 175 425> 605 105<227 398 227 227>
VStem: 60 115<157 257 157 257 157 257 332 378 453 553> 450 115<470 553 553 553>
LayerCount: 2
Fore
SplineSet
10 378 m 1
 10 453 l 1
 60 453 l 1
 60 594 l 1
 176 710 l 1
 449 710 l 1
 565 594 l 1
 565 470 l 1
 450 470 l 1
 450 553 l 1
 398 605 l 1
 227 605 l 1
 175 553 l 1
 175 453 l 1
 425 453 l 1
 425 378 l 1
 175 378 l 1
 175 332 l 1
 415 332 l 1
 415 257 l 1
 175 257 l 1
 175 157 l 1
 227 105 l 1
 409 105 l 1
 497 193 l 1
 576 115 l 1
 461 0 l 1
 176 0 l 1
 60 116 l 1
 60 257 l 1
 0 257 l 1
 0 332 l 1
 60 332 l 1
 60 378 l 1
 10 378 l 1
EndSplineSet
Validated: 1
EndChar

StartChar: currency
Encoding: 164 164 209
Width: 612
Flags: MW
HStem: -20 20G<50 165 50 50> -15 21G<543 543> 214 87<0 50 0 50 165 347> 340 82<0 50 0 50 165 387> 605 105<165 392 165 165>
VStem: 50 115<0 214 0 214 301 340 422 605> 440 115<469 558 558 558>
LayerCount: 2
Fore
SplineSet
392 605 m 1xbe
 165 605 l 1
 165 422 l 1
 387 422 l 1
 440 469 l 1
 440 558 l 1
 392 605 l 1xbe
435 301 m 1
 497 110 l 1
 577 86 l 1
 543 -15 l 1x7e
 409 26 l 1
 347 214 l 1
 165 214 l 1
 165 0 l 1
 50 0 l 1
 50 214 l 1
 0 214 l 1
 0 301 l 1
 50 301 l 1
 50 340 l 1
 0 340 l 1
 0 422 l 1
 50 422 l 1
 50 710 l 1
 446 710 l 1
 555 602 l 1
 555 428 l 1
 456 340 l 1
 165 340 l 1
 165 301 l 1
 435 301 l 1
EndSplineSet
Validated: 1
EndChar

StartChar: asciitilde
Encoding: 126 126 210
Width: 621
Flags: MW
HStem: 234 21G<157 278 157 157> 435 20G<343 464 464 464>
LayerCount: 2
Fore
SplineSet
464 455 m 1
 601 318 l 1
 523 241 l 1
 412 350 l 1
 394 350 l 1
 278 234 l 1
 157 234 l 1
 20 371 l 1
 98 448 l 1
 209 339 l 1
 227 339 l 1
 343 455 l 1
 464 455 l 1
EndSplineSet
Validated: 1
EndChar

StartChar: logicalnot
Encoding: 172 172 211
Width: 420
Flags: MW
HStem: 192 205<284 284 284 400> 292 105<20 284 20 400>
VStem: 284 116<192 292 292 292>
LayerCount: 2
Fore
SplineSet
284 192 m 1xa0
 284 292 l 1
 20 292 l 1x60
 20 397 l 1
 400 397 l 1
 400 192 l 1
 284 192 l 1xa0
EndSplineSet
Validated: 1
EndChar

StartChar: quotedblright
Encoding: 8221 8221 212
Width: 360
Flags: MW
HStem: 440 21G<10 10 10 90 180 260 180 180> 690 20G<70 190 190 190 240 360 360 360>
LayerCount: 2
Fore
SplineSet
10 440 m 1
 70 710 l 1
 190 710 l 1
 90 440 l 1
 10 440 l 1
180 440 m 1
 240 710 l 1
 360 710 l 1
 260 440 l 1
 180 440 l 1
EndSplineSet
Validated: 1
EndChar

StartChar: quotedblleft
Encoding: 8220 8220 213
Width: 360
Flags: MW
HStem: 440 21G<0 120 0 0 170 290 170 170> 690 20G<100 180 180 180 270 350 350 350>
LayerCount: 2
Fore
SplineSet
350 710 m 1
 290 440 l 1
 170 440 l 1
 270 710 l 1
 350 710 l 1
180 710 m 1
 120 440 l 1
 0 440 l 1
 100 710 l 1
 180 710 l 1
EndSplineSet
Validated: 1
EndChar

StartChar: quoteleft
Encoding: 8216 8216 214
Width: 190
Flags: MW
HStem: 440 21G<0 120 0 0> 690 20G<100 180 180 180>
LayerCount: 2
Fore
SplineSet
180 710 m 1
 120 440 l 1
 0 440 l 1
 100 710 l 1
 180 710 l 1
EndSplineSet
Validated: 1
EndChar

StartChar: quoteright
Encoding: 8217 8217 215
Width: 190
Flags: MW
HStem: 440 21G<10 10 10 90> 690 20G<70 190 190 190>
LayerCount: 2
Fore
SplineSet
10 440 m 1
 70 710 l 1
 190 710 l 1
 90 440 l 1
 10 440 l 1
EndSplineSet
Validated: 1
EndChar

StartChar: quotesinglbase
Encoding: 8218 8218 216
Width: 190
Flags: MW
HStem: -180 21G<10 10 10 90> 70 20G<70 190 190 190>
LayerCount: 2
Fore
SplineSet
10 -180 m 1
 70 90 l 1
 190 90 l 1
 90 -180 l 1
 10 -180 l 1
EndSplineSet
Validated: 1
EndChar

StartChar: quotedblbase
Encoding: 8222 8222 217
Width: 360
Flags: MW
HStem: -180 21G<10 10 10 90 180 260 180 180> 70 20G<70 190 190 190 240 360 360 360>
LayerCount: 2
Fore
SplineSet
10 -180 m 1
 70 90 l 1
 190 90 l 1
 90 -180 l 1
 10 -180 l 1
180 -180 m 1
 240 90 l 1
 360 90 l 1
 260 -180 l 1
 180 -180 l 1
EndSplineSet
Validated: 1
EndChar

StartChar: bullet
Encoding: 8226 8226 218
Width: 400
Flags: MW
HStem: 195 21G<135 265 135 135> 485 20G<135 265 265 265>
LayerCount: 2
Fore
SplineSet
265 505 m 1
 360 410 l 1
 360 290 l 1
 265 195 l 1
 135 195 l 1
 40 290 l 1
 40 410 l 1
 135 505 l 1
 265 505 l 1
EndSplineSet
Validated: 1
EndChar

StartChar: periodcentered
Encoding: 183 183 219
Width: 320
Flags: MW
HStem: 286 21G<132 132 132 188> 395 20G<132 188 188 188>
LayerCount: 2
Fore
SplineSet
132 286 m 1
 95 323 l 1
 95 378 l 1
 132 415 l 1
 188 415 l 1
 225 378 l 1
 225 323 l 1
 188 286 l 1
 132 286 l 1
EndSplineSet
Validated: 1
EndChar

StartChar: plusminus
Encoding: 177 177 220
Width: 500
Flags: MW
HStem: 30 90<30 470 30 470> 307 105<20 192 20 192 307 480> 550 20G<192 307 307 307>
VStem: 192 115<150 307 150 307 412 570>
LayerCount: 2
Fore
SplineSet
192 570 m 1
 307 570 l 1
 307 412 l 1
 480 412 l 1
 480 307 l 1
 307 307 l 1
 307 150 l 1
 192 150 l 1
 192 307 l 1
 20 307 l 1
 20 412 l 1
 192 412 l 1
 192 570 l 1
30 30 m 1
 30 120 l 1
 470 120 l 1
 470 30 l 1
 30 30 l 1
EndSplineSet
Validated: 1
EndChar

StartChar: odieresis
Encoding: 246 246 221
Width: 557
Flags: MW
HStem: 0 105<201 356 201 407 150 356> 438 105<201 356 201 201> 605 129<156 211 156 211 347 402>
VStem: 55 115<136 407 136 447 136 447> 387 115<136 407 407 407>
LayerCount: 2
Fore
SplineSet
502 96 m 1
 407 0 l 1
 150 0 l 1
 55 96 l 1
 55 447 l 1
 150 543 l 1
 407 543 l 1
 502 447 l 1
 502 96 l 1
201 105 m 1
 356 105 l 1
 387 136 l 1
 387 407 l 1
 356 438 l 1
 201 438 l 1
 170 407 l 1
 170 136 l 1
 201 105 l 1
156 605 m 1
 119 642 l 1
 119 697 l 1
 156 734 l 1
 211 734 l 1
 248 697 l 1
 248 642 l 1
 211 605 l 1
 156 605 l 1
347 605 m 1
 310 642 l 1
 310 697 l 1
 347 734 l 1
 402 734 l 1
 439 697 l 1
 439 642 l 1
 402 605 l 1
 347 605 l 1
EndSplineSet
Validated: 1
EndChar

StartChar: Odieresis
Encoding: 214 214 222
Width: 655
Flags: MW
HStem: 0 105<232 423 232 469 186 423> 605 105<232 423 232 232> 780 129<206 261 206 261 393 448>
VStem: 60 115<157 552 157 595 157 595> 480 115<158 552 552 552>
LayerCount: 2
Fore
SplineSet
186 710 m 1
 469 710 l 1
 595 595 l 1
 595 115 l 1
 469 0 l 1
 186 0 l 1
 60 115 l 1
 60 595 l 1
 186 710 l 1
480 552 m 1
 423 605 l 1
 232 605 l 1
 175 552 l 1
 175 157 l 1
 232 105 l 1
 423 105 l 1
 480 158 l 1
 480 552 l 1
206 780 m 1
 169 817 l 1
 169 872 l 1
 206 909 l 1
 261 909 l 1
 298 872 l 1
 298 817 l 1
 261 780 l 1
 206 780 l 1
393 780 m 1
 356 817 l 1
 356 872 l 1
 393 909 l 1
 448 909 l 1
 485 872 l 1
 485 817 l 1
 448 780 l 1
 393 780 l 1
EndSplineSet
Validated: 1
EndChar

StartChar: Adieresis
Encoding: 196 196 223
Width: 594
Flags: MW
HStem: -20 21G<117 117 477 477> 169 105<211 383 211 416 178 383> 760 129<180 235 180 235 367 422>
LayerCount: 2
Fore
SplineSet
416 169 m 1
 178 169 l 1
 117 -20 l 1
 10 14 l 1
 233 710 l 1
 361 710 l 1
 584 14 l 1
 477 -20 l 1
 416 169 l 1
284 502 m 1
 211 274 l 1
 383 274 l 1
 310 502 l 1
 299 570 l 1
 295 570 l 1
 284 502 l 1
180 760 m 1
 143 797 l 1
 143 852 l 1
 180 889 l 1
 235 889 l 1
 272 852 l 1
 272 797 l 1
 235 760 l 1
 180 760 l 1
367 760 m 1
 330 797 l 1
 330 852 l 1
 367 889 l 1
 422 889 l 1
 459 852 l 1
 459 797 l 1
 422 760 l 1
 367 760 l 1
EndSplineSet
Validated: 1
EndChar

StartChar: adieresis
Encoding: 228 228 224
Width: 564
Flags: MW
HStem: -10 21G<426 426> 0 105<191 318 191 349 141 318> 219 105<191 373 191 191> 438 105<196 342 196 196> 605 129<164 219 164 219 355 410>
VStem: 373 115<168 219 219 219 324 407 407 407>
LayerCount: 2
Fore
SplineSet
181 543 m 1x7c
 392 543 l 1
 488 448 l 1
 488 140 l 1
 519 13 l 1
 426 -10 l 1xbc
 407 67 l 1
 349 0 l 1
 141 0 l 1
 45 95 l 1
 45 229 l 1
 141 324 l 1
 373 324 l 1
 373 407 l 1
 342 438 l 1
 196 438 l 1
 84 403 l 1
 53 503 l 1
 181 543 l 1x7c
373 168 m 1
 373 219 l 1
 191 219 l 1
 160 188 l 1
 160 136 l 1
 191 105 l 1
 318 105 l 1x7c
 373 168 l 1
164 605 m 1
 127 642 l 1
 127 697 l 1
 164 734 l 1
 219 734 l 1
 256 697 l 1
 256 642 l 1
 219 605 l 1
 164 605 l 1
355 605 m 1
 318 642 l 1
 318 697 l 1
 355 734 l 1
 410 734 l 1
 447 697 l 1
 447 642 l 1
 410 605 l 1
 355 605 l 1
EndSplineSet
Validated: 1
EndChar

StartChar: Tcommaaccent
Encoding: 354 354 225
Width: 539
Flags: MW
HStem: -315 21G<162 162 162 242> -20 20G<212 327 212 212> 605 105<10 212 10 529 327 529 327 327>
VStem: 212 115<0 605 0 605>
LayerCount: 2
Fore
SplineSet
327 605 m 1
 327 0 l 1
 212 0 l 1
 212 605 l 1
 10 605 l 1
 10 710 l 1
 529 710 l 1
 529 605 l 1
 327 605 l 1
162 -315 m 1
 222 -45 l 1
 342 -45 l 1
 242 -315 l 1
 162 -315 l 1
EndSplineSet
Validated: 1
EndChar

StartChar: tcommaaccent
Encoding: 355 355 226
Width: 463
Flags: MW
HStem: -315 21G<165 165 165 245> 0 105<256 323 256 335 205 323> 428 105<20 110 20 110 225 370> 660 20G<110 225 225 225>
VStem: 110 115<136 428 533 680>
LayerCount: 2
Fore
SplineSet
110 428 m 1
 20 428 l 1
 20 533 l 1
 110 533 l 1
 110 680 l 1
 225 680 l 1
 225 533 l 1
 370 533 l 1
 370 428 l 1
 225 428 l 1
 225 136 l 1
 256 105 l 1
 323 105 l 1
 432 139 l 1
 463 40 l 1
 335 0 l 1
 205 0 l 1
 110 95 l 1
 110 428 l 1
165 -315 m 1
 225 -45 l 1
 345 -45 l 1
 245 -315 l 1
 165 -315 l 1
EndSplineSet
Validated: 1
EndChar

StartChar: udieresis
Encoding: 252 252 227
Width: 574
Flags: MW
HStem: -10 21G<436 436> 0 105<201 328 201 359 151 328> 605 129<154 209 154 209 345 400>
VStem: 55 115<136 543 136 543 136 543> 383 115<168 543>
LayerCount: 2
Fore
SplineSet
498 140 m 1x78
 529 13 l 1
 436 -10 l 1xb8
 417 67 l 1
 359 0 l 1
 151 0 l 1
 55 95 l 1
 55 543 l 1
 170 543 l 1
 170 136 l 1
 201 105 l 1
 328 105 l 1
 383 168 l 1
 383 543 l 1
 498 543 l 1
 498 140 l 1x78
154 605 m 1
 117 642 l 1
 117 697 l 1
 154 734 l 1
 209 734 l 1
 246 697 l 1
 246 642 l 1
 209 605 l 1
 154 605 l 1
345 605 m 1
 308 642 l 1
 308 697 l 1
 345 734 l 1
 400 734 l 1
 437 697 l 1
 437 642 l 1
 400 605 l 1
 345 605 l 1
EndSplineSet
Validated: 1
EndChar

StartChar: Udieresis
Encoding: 220 220 228
Width: 625
Flags: MW
HStem: 0 105<176 399 226 399 226 449> 780 129<192 247 192 247 379 434>
VStem: 60 115<157 710 157 710 157 710> 450 115<157 710 115 710>
LayerCount: 2
Fore
SplineSet
176 0 m 1
 60 115 l 1
 60 710 l 1
 175 710 l 1
 175 157 l 1
 226 105 l 1
 399 105 l 1
 450 157 l 1
 450 710 l 1
 565 710 l 1
 565 115 l 1
 449 0 l 1
 176 0 l 1
192 780 m 1
 155 817 l 1
 155 872 l 1
 192 909 l 1
 247 909 l 1
 284 872 l 1
 284 817 l 1
 247 780 l 1
 192 780 l 1
379 780 m 1
 342 817 l 1
 342 872 l 1
 379 909 l 1
 434 909 l 1
 471 872 l 1
 471 817 l 1
 434 780 l 1
 379 780 l 1
EndSplineSet
Validated: 1
EndChar

StartChar: Edieresis
Encoding: 203 203 229
Width: 553
Flags: MW
HStem: 0 105<185 523 185 523> 318 105<185 481 185 481> 605 105<185 523 185 185> 780 129<180 235 180 235 367 422>
VStem: 70 115<105 318 423 605>
LayerCount: 2
Fore
SplineSet
70 0 m 1
 70 710 l 1
 523 710 l 1
 523 605 l 1
 185 605 l 1
 185 423 l 1
 481 423 l 1
 481 318 l 1
 185 318 l 1
 185 105 l 1
 523 105 l 1
 523 0 l 1
 70 0 l 1
180 780 m 1
 143 817 l 1
 143 872 l 1
 180 909 l 1
 235 909 l 1
 272 872 l 1
 272 817 l 1
 235 780 l 1
 180 780 l 1
367 780 m 1
 330 817 l 1
 330 872 l 1
 367 909 l 1
 422 909 l 1
 459 872 l 1
 459 817 l 1
 422 780 l 1
 367 780 l 1
EndSplineSet
Validated: 1
EndChar

StartChar: edieresis
Encoding: 235 235 230
Width: 535
Flags: MW
HStem: 0 105<201 357 201 372 151 357> 210 105<170 356 170 411 170 356> 438 105<201 201 201 351> 605 129<158 213 158 213 349 404>
VStem: 55 115<136 210 136 315 315 407> 382 115<341 407 407 407>
LayerCount: 2
Fore
SplineSet
357 105 m 1
 469 140 l 1
 500 40 l 1
 372 0 l 1
 151 0 l 1
 55 95 l 1
 55 448 l 1
 151 543 l 1
 401 543 l 1
 497 448 l 1
 497 295 l 1
 411 210 l 1
 170 210 l 1
 170 136 l 1
 201 105 l 1
 357 105 l 1
201 438 m 1
 170 407 l 1
 170 315 l 1
 356 315 l 1
 382 341 l 1
 382 407 l 1
 351 438 l 1
 201 438 l 1
158 605 m 1
 121 642 l 1
 121 697 l 1
 158 734 l 1
 213 734 l 1
 250 697 l 1
 250 642 l 1
 213 605 l 1
 158 605 l 1
349 605 m 1
 312 642 l 1
 312 697 l 1
 349 734 l 1
 404 734 l 1
 441 697 l 1
 441 642 l 1
 404 605 l 1
 349 605 l 1
EndSplineSet
Validated: 1
EndChar

StartChar: abreve
Encoding: 259 259 231
Width: 564
Flags: MW
HStem: -10 21G<426 426> 0 105<191 318 191 349 141 318> 219 105<191 373 191 191> 438 105<196 342 196 196> 618 90<233 340 233 378 195 340> 618 160<195 216 357 378 195 195>
VStem: 373 115<168 219 219 219 324 407 407 407>
LayerCount: 2
Fore
SplineSet
181 543 m 1x7a
 392 543 l 1
 488 448 l 1
 488 140 l 1
 519 13 l 1
 426 -10 l 1xba
 407 67 l 1
 349 0 l 1
 141 0 l 1
 45 95 l 1
 45 229 l 1
 141 324 l 1
 373 324 l 1
 373 407 l 1
 342 438 l 1
 196 438 l 1
 84 403 l 1
 53 503 l 1
 181 543 l 1x7a
373 168 m 1
 373 219 l 1
 191 219 l 1
 160 188 l 1
 160 136 l 1
 191 105 l 1
 318 105 l 1x76
 373 168 l 1
452 691 m 1
 378 618 l 1
 195 618 l 1
 121 691 l 1
 121 778 l 1
 216 778 l 1x76
 216 725 l 1
 233 708 l 1
 340 708 l 1x7a
 357 725 l 1
 357 778 l 1
 452 778 l 1
 452 691 l 1
EndSplineSet
Validated: 1
EndChar

StartChar: Abreve
Encoding: 258 258 232
Width: 594
Flags: MW
HStem: -20 21G<117 117 477 477> 169 105<211 383 211 416 178 383> 775 90<241 353 241 391 203 353> 775 189<203 224 370 391 203 203>
VStem: 129 95<882 964 882 964 882 964> 370 95<882 964>
LayerCount: 2
Fore
SplineSet
416 169 m 1xdc
 178 169 l 1
 117 -20 l 1
 10 14 l 1
 233 710 l 1
 361 710 l 1
 584 14 l 1
 477 -20 l 1
 416 169 l 1xdc
284 502 m 1
 211 274 l 1
 383 274 l 1
 310 502 l 1
 299 570 l 1
 295 570 l 1
 284 502 l 1
465 848 m 1
 391 775 l 1
 203 775 l 1
 129 848 l 1
 129 964 l 1
 224 964 l 1xdc
 224 882 l 1
 241 865 l 1
 353 865 l 1xec
 370 882 l 1
 370 964 l 1
 465 964 l 1
 465 848 l 1
EndSplineSet
Validated: 1
EndChar

StartChar: Scommaaccent
Encoding: 536 536 233
Width: 564
Flags: MW
HStem: -315 21G<175 175 175 255> 0 105<184 358 184 409 166 358> 605 105<206 383 206 206>
VStem: 409 115<156 223 223 223>
LayerCount: 2
Fore
SplineSet
383 605 m 1
 206 605 l 1
 155 554 l 1
 155 500 l 1
 161 486 l 1
 487 323 l 1
 524 254 l 1
 524 115 l 1
 409 0 l 1
 166 0 l 1
 40 42 l 1
 74 143 l 1
 184 105 l 1
 358 105 l 1
 409 156 l 1
 409 223 l 1
 400 238 l 1
 72 402 l 1
 40 469 l 1
 40 595 l 1
 155 710 l 1
 402 710 l 1
 524 669 l 1
 493 570 l 1
 383 605 l 1
175 -315 m 1
 235 -45 l 1
 355 -45 l 1
 255 -315 l 1
 175 -315 l 1
EndSplineSet
Validated: 1
EndChar

StartChar: scommaaccent
Encoding: 537 537 234
Width: 491
Flags: MW
HStem: -315 21G<147 147 147 227> 0 105<173 312 173 364 151 312> 438 105<178 318 178 178>
LayerCount: 2
Fore
SplineSet
146 385 m 1
 160 362 l 1
 421 272 l 1
 459 210 l 1
 459 95 l 1
 364 0 l 1
 151 0 l 1
 25 42 l 1
 59 143 l 1
 173 105 l 1
 312 105 l 1
 344 137 l 1
 344 160 l 1
 330 183 l 1
 69 273 l 1
 31 335 l 1
 31 448 l 1
 126 543 l 1
 340 543 l 1
 466 501 l 1
 432 400 l 1
 318 438 l 1
 178 438 l 1
 146 406 l 1
 146 385 l 1
147 -315 m 1
 207 -45 l 1
 327 -45 l 1
 227 -315 l 1
 147 -315 l 1
EndSplineSet
Validated: 1
EndChar

StartChar: dcroat
Encoding: 273 273 235
Width: 573
Flags: MW
HStem: -10 21G<435 435> 0 105<201 327 201 358 151 327> 356 105<201 318 201 201> 507 105<237 382 237 382 497 587> 690 20G<382 497 497 497>
VStem: 55 115<136 325 136 366 136 366> 382 115<168 310 310 310 422 507 140 507 612 710>
LayerCount: 2
Fore
SplineSet
237 612 m 1x7e
 382 612 l 1
 382 710 l 1
 497 710 l 1
 497 612 l 1
 587 612 l 1
 587 507 l 1
 497 507 l 1
 497 140 l 1
 528 13 l 1
 435 -10 l 1xbe
 416 67 l 1
 358 0 l 1
 151 0 l 1
 55 95 l 1
 55 366 l 1
 151 461 l 1
 328 461 l 1
 382 422 l 1
 382 507 l 1
 237 507 l 1
 237 612 l 1x7e
327 105 m 1x7e
 382 168 l 1
 382 310 l 1
 318 356 l 1
 201 356 l 1
 170 325 l 1
 170 136 l 1
 201 105 l 1
 327 105 l 1x7e
EndSplineSet
Validated: 1
EndChar

StartChar: Dcroat
Encoding: 272 272 236
Width: 636
Flags: MW
HStem: 0 105<185 409 185 460> 303 105<-20 70 -20 70 185 330> 605 105<185 409 185 185>
VStem: 70 115<105 303 105 303 105 303 408 605> 461 115<157 553 553 553>
LayerCount: 2
Fore
SplineSet
-20 408 m 1
 70 408 l 1
 70 710 l 1
 460 710 l 1
 576 593 l 1
 576 117 l 1
 460 0 l 1
 70 0 l 1
 70 303 l 1
 -20 303 l 1
 -20 408 l 1
461 553 m 1
 409 605 l 1
 185 605 l 1
 185 408 l 1
 330 408 l 1
 330 303 l 1
 185 303 l 1
 185 105 l 1
 409 105 l 1
 461 157 l 1
 461 553 l 1
EndSplineSet
Validated: 1
EndChar

StartChar: Zdotaccent
Encoding: 379 379 237
Width: 555
Flags: MW
HStem: 0 105<191 520 191 520> 605 105<35 364 35 525> 889 20G<253 308 308 308>
LayerCount: 2
Fore
SplineSet
191 105 m 1
 520 105 l 1
 520 0 l 1
 30 0 l 1
 30 87 l 1
 366 594 l 1
 389 612 l 1
 387 615 l 1
 364 605 l 1
 35 605 l 1
 35 710 l 1
 525 710 l 1
 525 621 l 1
 189 116 l 1
 166 98 l 1
 168 95 l 1
 191 105 l 1
253 780 m 1
 216 817 l 1
 216 872 l 1
 253 909 l 1
 308 909 l 1
 345 872 l 1
 345 817 l 1
 308 780 l 1
 253 780 l 1
EndSplineSet
Validated: 1
EndChar

StartChar: zdotaccent
Encoding: 380 380 238
Width: 472
Flags: MW
HStem: 0 105<187 450 187 450> 438 105<22 286 22 452> 714 20G<209 264 264 264>
LayerCount: 2
Fore
SplineSet
187 105 m 1
 450 105 l 1
 450 0 l 1
 20 0 l 1
 20 90 l 1
 288 427 l 1
 311 445 l 1
 309 448 l 1
 286 438 l 1
 22 438 l 1
 22 543 l 1
 452 543 l 1
 452 452 l 1
 185 116 l 1
 162 98 l 1
 164 95 l 1
 187 105 l 1
209 605 m 1
 172 642 l 1
 172 697 l 1
 209 734 l 1
 264 734 l 1
 301 697 l 1
 301 642 l 1
 264 605 l 1
 209 605 l 1
EndSplineSet
Validated: 1
EndChar

StartChar: Zacute
Encoding: 377 377 239
Width: 555
Flags: MW
HStem: 0 105<191 520 191 520> 605 105<35 364 35 525> 955 20G<351 465 465 465>
LayerCount: 2
Fore
SplineSet
191 105 m 1
 520 105 l 1
 520 0 l 1
 30 0 l 1
 30 87 l 1
 366 594 l 1
 389 612 l 1
 387 615 l 1
 364 605 l 1
 35 605 l 1
 35 710 l 1
 525 710 l 1
 525 621 l 1
 189 116 l 1
 166 98 l 1
 168 95 l 1
 191 105 l 1
222 765 m 1
 351 975 l 1
 465 975 l 1
 317 765 l 1
 222 765 l 1
EndSplineSet
Validated: 1
EndChar

StartChar: Sacute
Encoding: 346 346 240
Width: 564
Flags: MW
HStem: 0 105<184 358 184 409 166 358> 605 105<206 383 206 206> 955 20G<367 481 481 481>
VStem: 409 115<156 223 223 223>
LayerCount: 2
Fore
SplineSet
383 605 m 1
 206 605 l 1
 155 554 l 1
 155 500 l 1
 161 486 l 1
 487 323 l 1
 524 254 l 1
 524 115 l 1
 409 0 l 1
 166 0 l 1
 40 42 l 1
 74 143 l 1
 184 105 l 1
 358 105 l 1
 409 156 l 1
 409 223 l 1
 400 238 l 1
 72 402 l 1
 40 469 l 1
 40 595 l 1
 155 710 l 1
 402 710 l 1
 524 669 l 1
 493 570 l 1
 383 605 l 1
238 765 m 1
 367 975 l 1
 481 975 l 1
 333 765 l 1
 238 765 l 1
EndSplineSet
Validated: 1
EndChar

StartChar: sacute
Encoding: 347 347 241
Width: 491
Flags: MW
HStem: 0 105<173 312 173 364 151 312> 438 105<178 318 178 178> 778 20G<312 426 426 426>
LayerCount: 2
Fore
SplineSet
146 385 m 1
 160 362 l 1
 421 272 l 1
 459 210 l 1
 459 95 l 1
 364 0 l 1
 151 0 l 1
 25 42 l 1
 59 143 l 1
 173 105 l 1
 312 105 l 1
 344 137 l 1
 344 160 l 1
 330 183 l 1
 69 273 l 1
 31 335 l 1
 31 448 l 1
 126 543 l 1
 340 543 l 1
 466 501 l 1
 432 400 l 1
 318 438 l 1
 178 438 l 1
 146 406 l 1
 146 385 l 1
183 588 m 1
 312 798 l 1
 426 798 l 1
 278 588 l 1
 183 588 l 1
EndSplineSet
Validated: 1
EndChar

StartChar: zacute
Encoding: 378 378 242
Width: 472
Flags: MW
HStem: 0 105<187 450 187 450> 438 105<22 286 22 452> 778 20G<317 431 431 431>
LayerCount: 2
Fore
SplineSet
187 105 m 1
 450 105 l 1
 450 0 l 1
 20 0 l 1
 20 90 l 1
 288 427 l 1
 311 445 l 1
 309 448 l 1
 286 438 l 1
 22 438 l 1
 22 543 l 1
 452 543 l 1
 452 452 l 1
 185 116 l 1
 162 98 l 1
 164 95 l 1
 187 105 l 1
188 588 m 1
 317 798 l 1
 431 798 l 1
 283 588 l 1
 188 588 l 1
EndSplineSet
Validated: 1
EndChar

StartChar: Racute
Encoding: 340 340 243
Width: 627
Flags: MW
HStem: -20 20G 274 105<185 235 185 412 400 400 400 412 185 466> 605 105<185 412 185 185> 955 20G<375 489 489 489>
VStem: 70 115<0 274 379 605> 460 115<426 558 558 558>
LayerCount: 2
Fore
SplineSet
412 605 m 1
 185 605 l 1
 185 379 l 1
 412 379 l 1
 460 426 l 1
 460 558 l 1
 412 605 l 1
398 263 m 1
 587 56 l 1
 503 -20 l 1
 235 274 l 1
 185 274 l 1
 185 0 l 1
 70 0 l 1
 70 710 l 1
 466 710 l 1
 575 602 l 1
 575 382 l 1
 466 274 l 1
 400 274 l 1
 377 284 l 1
 375 281 l 1
 398 263 l 1
246 765 m 1
 375 975 l 1
 489 975 l 1
 341 765 l 1
 246 765 l 1
EndSplineSet
Validated: 1
EndChar

StartChar: Aacute
Encoding: 193 193 244
Width: 594
Flags: MW
HStem: -20 21G<117 117 477 477> 169 105<211 383 211 416 178 383> 945 20G<372 486 486 486>
LayerCount: 2
Fore
SplineSet
416 169 m 1
 178 169 l 1
 117 -20 l 1
 10 14 l 1
 233 710 l 1
 361 710 l 1
 584 14 l 1
 477 -20 l 1
 416 169 l 1
284 502 m 1
 211 274 l 1
 383 274 l 1
 310 502 l 1
 299 570 l 1
 295 570 l 1
 284 502 l 1
243 755 m 1
 372 965 l 1
 486 965 l 1
 338 755 l 1
 243 755 l 1
EndSplineSet
Validated: 1
EndChar

StartChar: Lacute
Encoding: 313 313 245
Width: 528
Flags: MW
HStem: 0 105<185 518 185 518> 945 20G<209 323 323 323>
VStem: 70 115<105 710 105 710 105 710>
LayerCount: 2
Fore
SplineSet
70 0 m 1
 70 710 l 1
 185 710 l 1
 185 105 l 1
 518 105 l 1
 518 0 l 1
 70 0 l 1
80 755 m 1
 209 965 l 1
 323 965 l 1
 175 755 l 1
 80 755 l 1
EndSplineSet
Validated: 1
EndChar

StartChar: Cacute
Encoding: 262 262 246
Width: 606
Flags: MW
HStem: 0 105<227 409 227 461 176 409> 605 105<227 398 227 227> 955 20G<386 500 500 500>
VStem: 60 115<157 553 157 594 157 594> 450 115<470 553 553 553>
LayerCount: 2
Fore
SplineSet
409 105 m 1
 497 193 l 1
 576 115 l 1
 461 0 l 1
 176 0 l 1
 60 116 l 1
 60 594 l 1
 176 710 l 1
 449 710 l 1
 565 594 l 1
 565 470 l 1
 450 470 l 1
 450 553 l 1
 398 605 l 1
 227 605 l 1
 175 553 l 1
 175 157 l 1
 227 105 l 1
 409 105 l 1
257 765 m 1
 386 975 l 1
 500 975 l 1
 352 765 l 1
 257 765 l 1
EndSplineSet
Validated: 1
EndChar

StartChar: Eacute
Encoding: 201 201 247
Width: 553
Flags: MW
HStem: 0 105<185 523 185 523> 318 105<185 481 185 481> 605 105<185 523 185 185> 955 20G<374 488 488 488>
VStem: 70 115<105 318 423 605>
LayerCount: 2
Fore
SplineSet
70 0 m 1
 70 710 l 1
 523 710 l 1
 523 605 l 1
 185 605 l 1
 185 423 l 1
 481 423 l 1
 481 318 l 1
 185 318 l 1
 185 105 l 1
 523 105 l 1
 523 0 l 1
 70 0 l 1
245 765 m 1
 374 975 l 1
 488 975 l 1
 340 765 l 1
 245 765 l 1
EndSplineSet
Validated: 1
EndChar

StartChar: Iacute
Encoding: 205 205 248
Width: 397
Flags: MW
HStem: 0 105<40 141 256 357 40 141> 605 105<40 141 40 357 256 256 256 357> 955 20G<278 392 392 392>
VStem: 141 115<105 605 105 605>
LayerCount: 2
Fore
SplineSet
357 0 m 1
 40 0 l 1
 40 105 l 1
 141 105 l 1
 141 605 l 1
 40 605 l 1
 40 710 l 1
 357 710 l 1
 357 605 l 1
 256 605 l 1
 256 105 l 1
 357 105 l 1
 357 0 l 1
149 765 m 1
 278 975 l 1
 392 975 l 1
 244 765 l 1
 149 765 l 1
EndSplineSet
Validated: 1
EndChar

StartChar: Nacute
Encoding: 323 323 249
Width: 646
Flags: MW
HStem: 0 21G<70 185 70 70 465 576 465 465> 935 20G<391 505 505 505>
VStem: 70 115<0 455 0 710> 461 115<255 710 0 710>
LayerCount: 2
Fore
SplineSet
181 710 m 1
 442 254 l 1
 466 193 l 1
 470 193 l 1
 461 255 l 1
 461 710 l 1
 576 710 l 1
 576 0 l 1
 465 0 l 1
 204 456 l 1
 180 517 l 1
 176 517 l 1
 185 455 l 1
 185 0 l 1
 70 0 l 1
 70 710 l 1
 181 710 l 1
262 745 m 1
 391 955 l 1
 505 955 l 1
 357 745 l 1
 262 745 l 1
EndSplineSet
Validated: 1
EndChar

StartChar: Oacute
Encoding: 211 211 250
Width: 655
Flags: MW
HStem: 0 105<232 423 232 469 186 423> 605 105<232 423 232 232> 955 20G<401 515 515 515>
VStem: 60 115<157 552 157 595 157 595> 480 115<158 552 552 552>
LayerCount: 2
Fore
SplineSet
186 710 m 1
 469 710 l 1
 595 595 l 1
 595 115 l 1
 469 0 l 1
 186 0 l 1
 60 115 l 1
 60 595 l 1
 186 710 l 1
480 552 m 1
 423 605 l 1
 232 605 l 1
 175 552 l 1
 175 157 l 1
 232 105 l 1
 423 105 l 1
 480 158 l 1
 480 552 l 1
272 765 m 1
 401 975 l 1
 515 975 l 1
 367 765 l 1
 272 765 l 1
EndSplineSet
Validated: 1
EndChar

StartChar: Uacute
Encoding: 218 218 251
Width: 625
Flags: MW
HStem: 0 105<176 399 226 399 226 449> 935 20G<384 498 498 498>
VStem: 60 115<157 710 157 710 157 710> 450 115<157 710 115 710>
LayerCount: 2
Fore
SplineSet
176 0 m 1
 60 115 l 1
 60 710 l 1
 175 710 l 1
 175 157 l 1
 226 105 l 1
 399 105 l 1
 450 157 l 1
 450 710 l 1
 565 710 l 1
 565 115 l 1
 449 0 l 1
 176 0 l 1
255 745 m 1
 384 955 l 1
 498 955 l 1
 350 745 l 1
 255 745 l 1
EndSplineSet
Validated: 1
EndChar

StartChar: Yacute
Encoding: 221 221 252
Width: 588
Flags: MW
HStem: 0 21G<236 351 236 236> 935 20G<369 483 483 483>
VStem: 236 115<0 219 0 221 0 221>
LayerCount: 2
Fore
SplineSet
236 221 m 1
 10 678 l 1
 114 730 l 1
 281 392 l 1
 292 334 l 1
 296 334 l 1
 307 392 l 1
 474 730 l 1
 578 678 l 1
 351 219 l 1
 351 0 l 1
 236 0 l 1
 236 221 l 1
240 745 m 1
 369 955 l 1
 483 955 l 1
 335 745 l 1
 240 745 l 1
EndSplineSet
Validated: 1
EndChar

StartChar: racute
Encoding: 341 341 253
Width: 499
Flags: MW
HStem: 0 21G<76 191 76 76> 778 20G<365 479 479 479>
VStem: 76 115<0 375 0 403 0 403>
LayerCount: 2
Fore
SplineSet
246 438 m 1
 191 375 l 1
 191 0 l 1
 76 0 l 1
 76 403 l 1
 45 530 l 1
 138 553 l 1
 157 476 l 1
 215 543 l 1
 381 543 l 1
 499 428 l 1
 423 350 l 1
 333 438 l 1
 246 438 l 1
236 588 m 1
 365 798 l 1
 479 798 l 1
 331 588 l 1
 236 588 l 1
EndSplineSet
Validated: 1
EndChar

StartChar: aacute
Encoding: 225 225 254
Width: 564
Flags: MW
HStem: -10 21G<426 426> 0 105<191 318 191 349 141 318> 219 105<191 373 191 191> 438 105<196 342 196 196> 778 20G<351 465 465 465>
VStem: 373 115<168 219 219 219 324 407 407 407>
LayerCount: 2
Fore
SplineSet
181 543 m 1x7c
 392 543 l 1
 488 448 l 1
 488 140 l 1
 519 13 l 1
 426 -10 l 1xbc
 407 67 l 1
 349 0 l 1
 141 0 l 1
 45 95 l 1
 45 229 l 1
 141 324 l 1
 373 324 l 1
 373 407 l 1
 342 438 l 1
 196 438 l 1
 84 403 l 1
 53 503 l 1
 181 543 l 1x7c
373 168 m 1
 373 219 l 1
 191 219 l 1
 160 188 l 1
 160 136 l 1
 191 105 l 1
 318 105 l 1x7c
 373 168 l 1
222 588 m 1
 351 798 l 1
 465 798 l 1
 317 588 l 1
 222 588 l 1
EndSplineSet
Validated: 1
EndChar

StartChar: lacute
Encoding: 314 314 255
Width: 249
Flags: MW
HStem: 0 21G<79 194 79 79> 945 20G<194 308 308 308>
VStem: 79 115<0 582 582 582>
LayerCount: 2
Fore
SplineSet
194 596 m 1
 194 0 l 1
 79 0 l 1
 79 582 l 1
 45 684 l 1
 153 720 l 1
 194 596 l 1
65 755 m 1
 194 965 l 1
 308 965 l 1
 160 755 l 1
 65 755 l 1
EndSplineSet
Validated: 1
EndChar

StartChar: cacute
Encoding: 263 263 256
Width: 529
Flags: MW
HStem: 0 105<201 362 201 376 151 362> 330 213<382 401 151 497 382 382> 438 105<201 351 201 201> 778 20G<343 457 457 457>
VStem: 55 115<136 407 136 448 136 448> 382 115<330 407 407 407>
LayerCount: 2
Fore
SplineSet
362 105 m 1xbc
 472 140 l 1
 504 40 l 1
 376 0 l 1
 151 0 l 1
 55 95 l 1
 55 448 l 1
 151 543 l 1
 401 543 l 1
 497 448 l 1
 497 330 l 1
 382 330 l 1xdc
 382 407 l 1
 351 438 l 1
 201 438 l 1
 170 407 l 1
 170 136 l 1
 201 105 l 1
 362 105 l 1xbc
214 588 m 1
 343 798 l 1
 457 798 l 1
 309 588 l 1
 214 588 l 1
EndSplineSet
Validated: 1
EndChar

StartChar: eacute
Encoding: 233 233 257
Width: 535
Flags: MW
HStem: 0 105<201 357 201 372 151 357> 210 105<170 356 170 411 170 356> 438 105<201 201 201 351> 778 20G<344 458 458 458>
VStem: 55 115<136 210 136 315 315 407> 382 115<341 407 407 407>
LayerCount: 2
Fore
SplineSet
357 105 m 1
 469 140 l 1
 500 40 l 1
 372 0 l 1
 151 0 l 1
 55 95 l 1
 55 448 l 1
 151 543 l 1
 401 543 l 1
 497 448 l 1
 497 295 l 1
 411 210 l 1
 170 210 l 1
 170 136 l 1
 201 105 l 1
 357 105 l 1
201 438 m 1
 170 407 l 1
 170 315 l 1
 356 315 l 1
 382 341 l 1
 382 407 l 1
 351 438 l 1
 201 438 l 1
215 588 m 1
 344 798 l 1
 458 798 l 1
 310 588 l 1
 215 588 l 1
EndSplineSet
Validated: 1
EndChar

StartChar: iacute
Encoding: 237 237 258
Width: 256
Flags: MW
HStem: 0 21G<79 194 79 79> 778 20G<194 308 308 308>
VStem: 79 115<0 415 415 415>
LayerCount: 2
Fore
SplineSet
194 429 m 1
 194 0 l 1
 79 0 l 1
 79 415 l 1
 45 517 l 1
 153 553 l 1
 194 429 l 1
65 588 m 1
 194 798 l 1
 308 798 l 1
 160 588 l 1
 65 588 l 1
EndSplineSet
Validated: 1
EndChar

StartChar: nacute
Encoding: 324 324 259
Width: 574
Flags: MW
HStem: 0 21G<76 191 76 76 404 519 404 404> 438 105<246 373 246 246> 778 20G<377 491 491 491>
VStem: 76 115<0 375 0 403 0 403> 404 115<0 407 407 407>
LayerCount: 2
Fore
SplineSet
76 403 m 1
 45 530 l 1
 138 553 l 1
 157 476 l 1
 215 543 l 1
 423 543 l 1
 519 448 l 1
 519 0 l 1
 404 0 l 1
 404 407 l 1
 373 438 l 1
 246 438 l 1
 191 375 l 1
 191 0 l 1
 76 0 l 1
 76 403 l 1
248 588 m 1
 377 798 l 1
 491 798 l 1
 343 588 l 1
 248 588 l 1
EndSplineSet
Validated: 1
EndChar

StartChar: oacute
Encoding: 243 243 260
Width: 557
Flags: MW
HStem: 0 105<201 356 201 407 150 356> 438 105<201 356 201 201> 778 20G<349 463 463 463>
VStem: 55 115<136 407 136 447 136 447> 387 115<136 407 407 407>
LayerCount: 2
Fore
SplineSet
502 96 m 1
 407 0 l 1
 150 0 l 1
 55 96 l 1
 55 447 l 1
 150 543 l 1
 407 543 l 1
 502 447 l 1
 502 96 l 1
201 105 m 1
 356 105 l 1
 387 136 l 1
 387 407 l 1
 356 438 l 1
 201 438 l 1
 170 407 l 1
 170 136 l 1
 201 105 l 1
220 588 m 1
 349 798 l 1
 463 798 l 1
 315 588 l 1
 220 588 l 1
EndSplineSet
Validated: 1
EndChar

StartChar: uacute
Encoding: 250 250 261
Width: 574
Flags: MW
HStem: -10 21G<436 436> 0 105<201 328 201 359 151 328> 758 20G<351 465 465 465>
VStem: 55 115<136 543 136 543 136 543> 383 115<168 543>
LayerCount: 2
Fore
SplineSet
498 140 m 1x78
 529 13 l 1
 436 -10 l 1xb8
 417 67 l 1
 359 0 l 1
 151 0 l 1
 55 95 l 1
 55 543 l 1
 170 543 l 1
 170 136 l 1
 201 105 l 1
 328 105 l 1
 383 168 l 1
 383 543 l 1
 498 543 l 1
 498 140 l 1x78
222 568 m 1
 351 778 l 1
 465 778 l 1
 317 568 l 1
 222 568 l 1
EndSplineSet
Validated: 1
EndChar

StartChar: yacute
Encoding: 253 253 262
Width: 521
Flags: MW
HStem: -168 105<86 191 86 243 86 191> -20 20G<209 229 209 209> 758 20G<341 455 455 455>
LayerCount: 2
Fore
SplineSet
287 185 m 1
 409 558 l 1
 516 523 l 1
 313 -98 l 1
 243 -168 l 1
 86 -168 l 1
 86 -63 l 1
 191 -63 l 1
 217 -37 l 1
 229 0 l 1
 209 0 l 1
 5 517 l 1
 110 558 l 1
 257 185 l 1
 270 126 l 1
 274 126 l 1
 287 185 l 1
212 568 m 1
 341 778 l 1
 455 778 l 1
 307 568 l 1
 212 568 l 1
EndSplineSet
Validated: 1
EndChar

StartChar: uhungarumlaut
Encoding: 369 369 263
Width: 574
Flags: MW
HStem: -10 21G<436 436> 0 105<201 328 201 359 151 328> 588 210<129 372 129 372 314 372 258 409 314 314>
VStem: 55 115<136 543 136 543 136 543> 383 115<168 543>
LayerCount: 2
Fore
SplineSet
498 140 m 1x78
 529 13 l 1
 436 -10 l 1xb8
 417 67 l 1
 359 0 l 1
 151 0 l 1
 55 95 l 1
 55 543 l 1
 170 543 l 1
 170 136 l 1
 201 105 l 1
 328 105 l 1
 383 168 l 1
 383 543 l 1
 498 543 l 1
 498 140 l 1x78
129 588 m 1
 258 798 l 1
 372 798 l 1
 224 588 l 1
 129 588 l 1
314 588 m 1
 443 798 l 1
 557 798 l 1
 409 588 l 1
 314 588 l 1
EndSplineSet
Validated: 1
EndChar

StartChar: ohungarumlaut
Encoding: 337 337 264
Width: 557
Flags: MW
HStem: 0 105<201 356 201 407 150 356> 438 105<201 356 201 201> 588 210<128 371 128 371 313 371 257 408 313 313>
VStem: 55 115<136 407 136 447 136 447> 387 115<136 407 407 407>
LayerCount: 2
Fore
SplineSet
502 96 m 1
 407 0 l 1
 150 0 l 1
 55 96 l 1
 55 447 l 1
 150 543 l 1
 407 543 l 1
 502 447 l 1
 502 96 l 1
201 105 m 1
 356 105 l 1
 387 136 l 1
 387 407 l 1
 356 438 l 1
 201 438 l 1
 170 407 l 1
 170 136 l 1
 201 105 l 1
128 588 m 1
 257 798 l 1
 371 798 l 1
 223 588 l 1
 128 588 l 1
313 588 m 1
 442 798 l 1
 556 798 l 1
 408 588 l 1
 313 588 l 1
EndSplineSet
Validated: 1
EndChar

StartChar: Uhungarumlaut
Encoding: 368 368 265
Width: 625
Flags: MW
HStem: 0 105<176 399 226 399 226 449> 765 210<162 405 162 405 347 405 291 442 347 347>
VStem: 60 115<157 710 157 710 157 710> 450 115<157 710 115 710>
LayerCount: 2
Fore
SplineSet
176 0 m 1
 60 115 l 1
 60 710 l 1
 175 710 l 1
 175 157 l 1
 226 105 l 1
 399 105 l 1
 450 157 l 1
 450 710 l 1
 565 710 l 1
 565 115 l 1
 449 0 l 1
 176 0 l 1
162 765 m 1
 291 975 l 1
 405 975 l 1
 257 765 l 1
 162 765 l 1
347 765 m 1
 476 975 l 1
 590 975 l 1
 442 765 l 1
 347 765 l 1
EndSplineSet
Validated: 1
EndChar

StartChar: Ohungarumlaut
Encoding: 336 336 266
Width: 655
Flags: MW
HStem: 0 105<232 423 232 469 186 423> 605 105<232 423 232 232> 765 210<180 423 180 423 365 423 309 460 365 365>
VStem: 60 115<157 552 157 595 157 595> 480 115<158 552 552 552>
LayerCount: 2
Fore
SplineSet
186 710 m 1
 469 710 l 1
 595 595 l 1
 595 115 l 1
 469 0 l 1
 186 0 l 1
 60 115 l 1
 60 595 l 1
 186 710 l 1
480 552 m 1
 423 605 l 1
 232 605 l 1
 175 552 l 1
 175 157 l 1
 232 105 l 1
 423 105 l 1
 480 158 l 1
 480 552 l 1
180 765 m 1
 309 975 l 1
 423 975 l 1
 275 765 l 1
 180 765 l 1
365 765 m 1
 494 975 l 1
 608 975 l 1
 460 765 l 1
 365 765 l 1
EndSplineSet
Validated: 1
EndChar

StartChar: Tcaron
Encoding: 356 356 267
Width: 539
Flags: MW
HStem: 0 21G<212 327 212 212> 605 105<10 212 10 529 327 529 327 327> 885 20G<79 174 174 174 367 462 462 462>
VStem: 212 115<0 605 0 605>
LayerCount: 2
Fore
SplineSet
327 605 m 1
 327 0 l 1
 212 0 l 1
 212 605 l 1
 10 605 l 1
 10 710 l 1
 529 710 l 1
 529 605 l 1
 327 605 l 1
221 755 m 1
 79 905 l 1
 174 905 l 1
 270 815 l 1
 367 905 l 1
 462 905 l 1
 320 755 l 1
 221 755 l 1
EndSplineSet
Validated: 1
EndChar

StartChar: Zcaron
Encoding: 381 381 268
Width: 555
Flags: MW
HStem: 0 105<191 520 191 520> 605 105<35 364 35 525> 885 20G<96 191 191 191 384 479 479 479>
LayerCount: 2
Fore
SplineSet
191 105 m 1
 520 105 l 1
 520 0 l 1
 30 0 l 1
 30 87 l 1
 366 594 l 1
 389 612 l 1
 387 615 l 1
 364 605 l 1
 35 605 l 1
 35 710 l 1
 525 710 l 1
 525 621 l 1
 189 116 l 1
 166 98 l 1
 168 95 l 1
 191 105 l 1
238 755 m 1
 96 905 l 1
 191 905 l 1
 287 815 l 1
 384 905 l 1
 479 905 l 1
 337 755 l 1
 238 755 l 1
EndSplineSet
Validated: 1
EndChar

StartChar: Scaron
Encoding: 352 352 269
Width: 564
Flags: MW
HStem: 0 105<184 358 184 409 166 358> 605 105<206 383 206 206> 885 20G<103 198 198 198 391 486 486 486>
VStem: 409 115<156 223 223 223>
LayerCount: 2
Fore
SplineSet
383 605 m 1
 206 605 l 1
 155 554 l 1
 155 500 l 1
 161 486 l 1
 487 323 l 1
 524 254 l 1
 524 115 l 1
 409 0 l 1
 166 0 l 1
 40 42 l 1
 74 143 l 1
 184 105 l 1
 358 105 l 1
 409 156 l 1
 409 223 l 1
 400 238 l 1
 72 402 l 1
 40 469 l 1
 40 595 l 1
 155 710 l 1
 402 710 l 1
 524 669 l 1
 493 570 l 1
 383 605 l 1
245 755 m 1
 103 905 l 1
 198 905 l 1
 294 815 l 1
 391 905 l 1
 486 905 l 1
 344 755 l 1
 245 755 l 1
EndSplineSet
Validated: 1
EndChar

StartChar: scaron
Encoding: 353 353 270
Width: 491
Flags: MW
HStem: 0 105<173 312 173 364 151 312> 438 105<178 318 178 178> 713 20G<52 147 147 147 340 435 435 435>
LayerCount: 2
Fore
SplineSet
146 385 m 1
 160 362 l 1
 421 272 l 1
 459 210 l 1
 459 95 l 1
 364 0 l 1
 151 0 l 1
 25 42 l 1
 59 143 l 1
 173 105 l 1
 312 105 l 1
 344 137 l 1
 344 160 l 1
 330 183 l 1
 69 273 l 1
 31 335 l 1
 31 448 l 1
 126 543 l 1
 340 543 l 1
 466 501 l 1
 432 400 l 1
 318 438 l 1
 178 438 l 1
 146 406 l 1
 146 385 l 1
194 583 m 1
 52 733 l 1
 147 733 l 1
 243 643 l 1
 340 733 l 1
 435 733 l 1
 293 583 l 1
 194 583 l 1
EndSplineSet
Validated: 1
EndChar

StartChar: zcaron
Encoding: 382 382 271
Width: 472
Flags: MW
HStem: 0 105<187 450 187 450> 438 105<22 286 22 452> 713 20G<52 147 147 147 340 435 435 435>
LayerCount: 2
Fore
SplineSet
187 105 m 1
 450 105 l 1
 450 0 l 1
 20 0 l 1
 20 90 l 1
 288 427 l 1
 311 445 l 1
 309 448 l 1
 286 438 l 1
 22 438 l 1
 22 543 l 1
 452 543 l 1
 452 452 l 1
 185 116 l 1
 162 98 l 1
 164 95 l 1
 187 105 l 1
194 583 m 1
 52 733 l 1
 147 733 l 1
 243 643 l 1
 340 733 l 1
 435 733 l 1
 293 583 l 1
 194 583 l 1
EndSplineSet
Validated: 1
EndChar

StartChar: Lcaron
Encoding: 317 317 272
Width: 528
Flags: MW
HStem: 0 105<185 518 185 518> 885 20G<-65 30 30 30 223 318 318 318>
VStem: 70 115<105 710 105 710 105 710>
LayerCount: 2
Fore
SplineSet
70 0 m 1
 70 710 l 1
 185 710 l 1
 185 105 l 1
 518 105 l 1
 518 0 l 1
 70 0 l 1
77 755 m 1
 -65 905 l 1
 30 905 l 1
 126 815 l 1
 223 905 l 1
 318 905 l 1
 176 755 l 1
 77 755 l 1
EndSplineSet
Validated: 1
EndChar

StartChar: Ccaron
Encoding: 268 268 273
Width: 606
Flags: MW
HStem: 0 105<227 409 227 461 176 409> 605 105<227 398 227 227> 885 20G<124 219 219 219 412 507 507 507>
VStem: 60 115<157 553 157 594 157 594> 450 115<470 553 553 553>
LayerCount: 2
Fore
SplineSet
409 105 m 1
 497 193 l 1
 576 115 l 1
 461 0 l 1
 176 0 l 1
 60 116 l 1
 60 594 l 1
 176 710 l 1
 449 710 l 1
 565 594 l 1
 565 470 l 1
 450 470 l 1
 450 553 l 1
 398 605 l 1
 227 605 l 1
 175 553 l 1
 175 157 l 1
 227 105 l 1
 409 105 l 1
266 755 m 1
 124 905 l 1
 219 905 l 1
 315 815 l 1
 412 905 l 1
 507 905 l 1
 365 755 l 1
 266 755 l 1
EndSplineSet
Validated: 1
EndChar

StartChar: Ecaron
Encoding: 282 282 274
Width: 553
Flags: MW
HStem: 0 105<185 523 185 523> 318 105<185 481 185 481> 605 105<185 523 185 185> 885 20G<107 202 202 202 395 490 490 490>
VStem: 70 115<105 318 423 605>
LayerCount: 2
Fore
SplineSet
70 0 m 1
 70 710 l 1
 523 710 l 1
 523 605 l 1
 185 605 l 1
 185 423 l 1
 481 423 l 1
 481 318 l 1
 185 318 l 1
 185 105 l 1
 523 105 l 1
 523 0 l 1
 70 0 l 1
249 755 m 1
 107 905 l 1
 202 905 l 1
 298 815 l 1
 395 905 l 1
 490 905 l 1
 348 755 l 1
 249 755 l 1
EndSplineSet
Validated: 1
EndChar

StartChar: Dcaron
Encoding: 270 270 275
Width: 636
Flags: MW
HStem: 0 105<185 409 185 460> 605 105<185 409 185 185> 885 20G<116 211 211 211 404 499 499 499>
VStem: 70 115<105 605 105 710 105 710> 461 115<157 553 553 553>
LayerCount: 2
Fore
SplineSet
70 710 m 1
 460 710 l 1
 576 593 l 1
 576 117 l 1
 460 0 l 1
 70 0 l 1
 70 710 l 1
461 553 m 1
 409 605 l 1
 185 605 l 1
 185 105 l 1
 409 105 l 1
 461 157 l 1
 461 553 l 1
258 755 m 1
 116 905 l 1
 211 905 l 1
 307 815 l 1
 404 905 l 1
 499 905 l 1
 357 755 l 1
 258 755 l 1
EndSplineSet
Validated: 1
EndChar

StartChar: Ncaron
Encoding: 327 327 276
Width: 646
Flags: MW
HStem: 0 21G<70 185 70 70 465 576 465 465> 865 20G<132 227 227 227 420 515 515 515>
VStem: 70 115<0 455 0 710> 461 115<255 710 0 710>
LayerCount: 2
Fore
SplineSet
181 710 m 1
 442 254 l 1
 466 193 l 1
 470 193 l 1
 461 255 l 1
 461 710 l 1
 576 710 l 1
 576 0 l 1
 465 0 l 1
 204 456 l 1
 180 517 l 1
 176 517 l 1
 185 455 l 1
 185 0 l 1
 70 0 l 1
 70 710 l 1
 181 710 l 1
274 735 m 1
 132 885 l 1
 227 885 l 1
 323 795 l 1
 420 885 l 1
 515 885 l 1
 373 735 l 1
 274 735 l 1
EndSplineSet
Validated: 1
EndChar

StartChar: Rcaron
Encoding: 344 344 277
Width: 627
Flags: MW
HStem: -20 20G 274 105<185 235 185 412 400 400 400 412 185 466> 605 105<185 412 185 185> 885 20G<125 220 220 220 413 508 508 508>
VStem: 70 115<0 274 379 605> 460 115<426 558 558 558>
LayerCount: 2
Fore
SplineSet
412 605 m 1
 185 605 l 1
 185 379 l 1
 412 379 l 1
 460 426 l 1
 460 558 l 1
 412 605 l 1
398 263 m 1
 587 56 l 1
 503 -20 l 1
 235 274 l 1
 185 274 l 1
 185 0 l 1
 70 0 l 1
 70 710 l 1
 466 710 l 1
 575 602 l 1
 575 382 l 1
 466 274 l 1
 400 274 l 1
 377 284 l 1
 375 281 l 1
 398 263 l 1
267 755 m 1
 125 905 l 1
 220 905 l 1
 316 815 l 1
 413 905 l 1
 508 905 l 1
 366 755 l 1
 267 755 l 1
EndSplineSet
Validated: 1
EndChar

StartChar: ccaron
Encoding: 269 269 278
Width: 529
Flags: MW
HStem: 0 105<201 362 201 376 151 362> 330 213<382 401 151 497 382 382> 438 105<201 351 201 201> 713 20G<86 181 181 181 374 469 469 469>
VStem: 55 115<136 407 136 448 136 448> 382 115<330 407 407 407>
LayerCount: 2
Fore
SplineSet
362 105 m 1xbc
 472 140 l 1
 504 40 l 1
 376 0 l 1
 151 0 l 1
 55 95 l 1
 55 448 l 1
 151 543 l 1
 401 543 l 1
 497 448 l 1
 497 330 l 1
 382 330 l 1xdc
 382 407 l 1
 351 438 l 1
 201 438 l 1
 170 407 l 1
 170 136 l 1
 201 105 l 1
 362 105 l 1xbc
228 583 m 1
 86 733 l 1
 181 733 l 1
 277 643 l 1
 374 733 l 1
 469 733 l 1
 327 583 l 1
 228 583 l 1
EndSplineSet
Validated: 1
EndChar

StartChar: ecaron
Encoding: 283 283 279
Width: 535
Flags: MW
HStem: 0 105<201 357 201 372 151 357> 210 105<170 356 170 411 170 356> 438 105<201 201 201 351> 713 20G<86 181 181 181 374 469 469 469>
VStem: 55 115<136 210 136 315 315 407> 382 115<341 407 407 407>
LayerCount: 2
Fore
SplineSet
357 105 m 1
 469 140 l 1
 500 40 l 1
 372 0 l 1
 151 0 l 1
 55 95 l 1
 55 448 l 1
 151 543 l 1
 401 543 l 1
 497 448 l 1
 497 295 l 1
 411 210 l 1
 170 210 l 1
 170 136 l 1
 201 105 l 1
 357 105 l 1
201 438 m 1
 170 407 l 1
 170 315 l 1
 356 315 l 1
 382 341 l 1
 382 407 l 1
 351 438 l 1
 201 438 l 1
228 583 m 1
 86 733 l 1
 181 733 l 1
 277 643 l 1
 374 733 l 1
 469 733 l 1
 327 583 l 1
 228 583 l 1
EndSplineSet
Validated: 1
EndChar

StartChar: ncaron
Encoding: 328 328 280
Width: 574
Flags: MW
HStem: 0 21G<76 191 76 76 404 519 404 404> 438 105<246 373 246 246> 713 20G<117 212 212 212 405 500 500 500>
VStem: 76 115<0 375 0 403 0 403> 404 115<0 407 407 407>
LayerCount: 2
Fore
SplineSet
76 403 m 1
 45 530 l 1
 138 553 l 1
 157 476 l 1
 215 543 l 1
 423 543 l 1
 519 448 l 1
 519 0 l 1
 404 0 l 1
 404 407 l 1
 373 438 l 1
 246 438 l 1
 191 375 l 1
 191 0 l 1
 76 0 l 1
 76 403 l 1
259 583 m 1
 117 733 l 1
 212 733 l 1
 308 643 l 1
 405 733 l 1
 500 733 l 1
 358 583 l 1
 259 583 l 1
EndSplineSet
Validated: 1
EndChar

StartChar: rcaron
Encoding: 345 345 281
Width: 499
Flags: MW
HStem: 0 21G<76 191 76 76> 438 105<246 246 246 333> 713 20G<107 202 202 202 395 490 490 490>
VStem: 76 115<0 375 0 403 0 403>
LayerCount: 2
Fore
SplineSet
246 438 m 1
 191 375 l 1
 191 0 l 1
 76 0 l 1
 76 403 l 1
 45 530 l 1
 138 553 l 1
 157 476 l 1
 215 543 l 1
 381 543 l 1
 499 428 l 1
 423 350 l 1
 333 438 l 1
 246 438 l 1
249 583 m 1
 107 733 l 1
 202 733 l 1
 298 643 l 1
 395 733 l 1
 490 733 l 1
 348 583 l 1
 249 583 l 1
EndSplineSet
Validated: 1
EndChar

StartChar: lcaron
Encoding: 318 318 282
Width: 390
Flags: MW
HStem: 0 21G<79 194 79 79> 700 20G<153 153>
VStem: 79 115<0 582 582 582>
LayerCount: 2
Fore
SplineSet
194 596 m 1
 194 0 l 1
 79 0 l 1
 79 582 l 1
 45 684 l 1
 153 720 l 1
 194 596 l 1
230 440 m 1
 290 710 l 1
 410 710 l 1
 310 440 l 1
 230 440 l 1
EndSplineSet
Validated: 1
EndChar

StartChar: tcaron
Encoding: 357 357 283
Width: 530
Flags: MW
HStem: 0 105<256 323 256 335 205 323> 428 105<20 110 20 110 225 350> 690 20G<430 550 550 550>
VStem: 110 115<136 428 136 428 136 428 533 680>
LayerCount: 2
Fore
SplineSet
110 428 m 1
 20 428 l 1
 20 533 l 1
 110 533 l 1
 110 680 l 1
 225 680 l 1
 225 533 l 1
 350 533 l 1
 350 428 l 1
 225 428 l 1
 225 136 l 1
 256 105 l 1
 323 105 l 1
 432 139 l 1
 463 40 l 1
 335 0 l 1
 205 0 l 1
 110 95 l 1
 110 428 l 1
370 440 m 1
 430 710 l 1
 550 710 l 1
 450 440 l 1
 370 440 l 1
EndSplineSet
Validated: 1
EndChar

StartChar: ocircumflex
Encoding: 244 244 284
Width: 557
Flags: MW
HStem: 0 105<201 356 201 407 150 356> 438 105<201 356 201 201> 713 20G<234 333 333 333>
VStem: 55 115<136 407 136 447 136 447> 387 115<136 407 407 407>
LayerCount: 2
Fore
SplineSet
502 96 m 1
 407 0 l 1
 150 0 l 1
 55 96 l 1
 55 447 l 1
 150 543 l 1
 407 543 l 1
 502 447 l 1
 502 96 l 1
201 105 m 1
 356 105 l 1
 387 136 l 1
 387 407 l 1
 356 438 l 1
 201 438 l 1
 170 407 l 1
 170 136 l 1
 201 105 l 1
92 583 m 1
 234 733 l 1
 333 733 l 1
 475 583 l 1
 380 583 l 1
 283 673 l 1
 187 583 l 1
 92 583 l 1
EndSplineSet
Validated: 1
EndChar

StartChar: dcaron
Encoding: 271 271 285
Width: 693
Flags: MW
HStem: -10 21G<435 435> 0 105<201 327 201 358 151 327> 438 105<201 318 201 201> 690 20G<382 497 497 497 593 713 713 713>
VStem: 55 115<136 407 136 448 136 448> 382 115<168 392 392 392 504 710 140 710>
LayerCount: 2
Fore
SplineSet
327 105 m 1x7c
 382 168 l 1
 382 392 l 1
 318 438 l 1
 201 438 l 1
 170 407 l 1
 170 136 l 1
 201 105 l 1
 327 105 l 1x7c
358 0 m 1
 151 0 l 1x7c
 55 95 l 1
 55 448 l 1
 151 543 l 1
 328 543 l 1
 382 504 l 1
 382 710 l 1
 497 710 l 1
 497 140 l 1
 528 13 l 1
 435 -10 l 1xbc
 416 67 l 1
 358 0 l 1
533 440 m 1
 593 710 l 1
 713 710 l 1
 613 440 l 1
 533 440 l 1
EndSplineSet
Validated: 1
EndChar

StartChar: icircumflex
Encoding: 238 238 286
Width: 256
Flags: MW
HStem: 0 21G<79 194 79 79> 713 20G<87 186 186 186>
VStem: 79 115<0 415 415 415>
LayerCount: 2
Fore
SplineSet
194 429 m 1
 194 0 l 1
 79 0 l 1
 79 415 l 1
 45 517 l 1
 153 553 l 1
 194 429 l 1
-55 583 m 1
 87 733 l 1
 186 733 l 1
 328 583 l 1
 233 583 l 1
 136 673 l 1
 40 583 l 1
 -55 583 l 1
EndSplineSet
Validated: 1
EndChar

StartChar: acircumflex
Encoding: 226 226 287
Width: 564
Flags: MW
HStem: -10 21G<426 426> 0 105<191 318 191 349 141 318> 219 105<191 373 191 191> 438 105<196 342 196 196> 713 20G<234 333 333 333>
VStem: 373 115<168 219 219 219 324 407 407 407>
LayerCount: 2
Fore
SplineSet
181 543 m 1x7c
 392 543 l 1
 488 448 l 1
 488 140 l 1
 519 13 l 1
 426 -10 l 1xbc
 407 67 l 1
 349 0 l 1
 141 0 l 1
 45 95 l 1
 45 229 l 1
 141 324 l 1
 373 324 l 1
 373 407 l 1
 342 438 l 1
 196 438 l 1
 84 403 l 1
 53 503 l 1
 181 543 l 1x7c
373 168 m 1
 373 219 l 1
 191 219 l 1
 160 188 l 1
 160 136 l 1
 191 105 l 1
 318 105 l 1x7c
 373 168 l 1
92 583 m 1
 234 733 l 1
 333 733 l 1
 475 583 l 1
 380 583 l 1
 283 673 l 1
 187 583 l 1
 92 583 l 1
EndSplineSet
Validated: 1
EndChar

StartChar: Ocircumflex
Encoding: 212 212 288
Width: 655
Flags: MW
HStem: 0 105<232 423 232 469 186 423> 605 105<232 423 232 232> 710 45<186 234 427 469 469 469> 895 20G<291 291 370 370>
VStem: 60 115<157 552 157 595 157 595> 480 115<158 552 552 552>
LayerCount: 2
Fore
SplineSet
469 710 m 1xdc
 595 595 l 1
 595 115 l 1
 469 0 l 1
 186 0 l 1
 60 115 l 1
 60 595 l 1
 186 710 l 1
 469 710 l 1xdc
423 605 m 1
 232 605 l 1
 175 552 l 1
 175 157 l 1
 232 105 l 1
 423 105 l 1
 480 158 l 1
 480 552 l 1
 423 605 l 1
427 755 m 1xbc
 370 808 l 1
 370 915 l 1
 522 755 l 1
 427 755 l 1xbc
291 808 m 1
 234 755 l 1
 139 755 l 1
 291 915 l 1
 291 808 l 1
EndSplineSet
Validated: 1
EndChar

StartChar: Icircumflex
Encoding: 206 206 289
Width: 397
Flags: MW
HStem: 0 105<40 141 256 357 40 141> 605 105<40 141 40 357 256 256 256 357> 710 45<40 104 297 357 357 357> 895 20G<161 161 240 240>
VStem: 141 115<105 605 105 605>
LayerCount: 2
Fore
SplineSet
357 0 m 1xd8
 40 0 l 1
 40 105 l 1
 141 105 l 1
 141 605 l 1
 40 605 l 1
 40 710 l 1
 357 710 l 1
 357 605 l 1
 256 605 l 1
 256 105 l 1
 357 105 l 1
 357 0 l 1xd8
297 755 m 1xb8
 240 808 l 1
 240 915 l 1
 392 755 l 1
 297 755 l 1xb8
161 808 m 1
 104 755 l 1
 9 755 l 1
 161 915 l 1
 161 808 l 1
EndSplineSet
Validated: 1
EndChar

StartChar: Acircumflex
Encoding: 194 194 290
Width: 594
Flags: MW
HStem: -20 21G<117 117 477 477> 169 105<211 383 211 416 178 383> 895 20G<255 255 334 334>
VStem: 255 79<808 915 808 915>
LayerCount: 2
Fore
SplineSet
416 169 m 1
 178 169 l 1
 117 -20 l 1
 10 14 l 1
 233 710 l 1
 361 710 l 1
 584 14 l 1
 477 -20 l 1
 416 169 l 1
284 502 m 1
 211 274 l 1
 383 274 l 1
 310 502 l 1
 299 570 l 1
 295 570 l 1
 284 502 l 1
391 755 m 1
 334 808 l 1
 334 915 l 1
 486 755 l 1
 391 755 l 1
255 808 m 1
 198 755 l 1
 103 755 l 1
 255 915 l 1
 255 808 l 1
EndSplineSet
Validated: 1
EndChar

StartChar: Ydieresis
Encoding: 376 376 291
Width: 588
Flags: MW
HStem: 0 21G<236 351 236 236> 780 129<173 228 173 228 360 415>
VStem: 236 115<0 219 0 221 0 221>
LayerCount: 2
Fore
SplineSet
236 221 m 1
 10 678 l 1
 114 730 l 1
 281 392 l 1
 292 334 l 1
 296 334 l 1
 307 392 l 1
 474 730 l 1
 578 678 l 1
 351 219 l 1
 351 0 l 1
 236 0 l 1
 236 221 l 1
173 780 m 1
 136 817 l 1
 136 872 l 1
 173 909 l 1
 228 909 l 1
 265 872 l 1
 265 817 l 1
 228 780 l 1
 173 780 l 1
360 780 m 1
 323 817 l 1
 323 872 l 1
 360 909 l 1
 415 909 l 1
 452 872 l 1
 452 817 l 1
 415 780 l 1
 360 780 l 1
EndSplineSet
Validated: 1
EndChar

StartChar: Agrave
Encoding: 192 192 292
Width: 594
Flags: MW
HStem: -20 21G<117 117 477 477> 169 105<211 383 211 416 178 383> 945 20G<125 239 239 239>
LayerCount: 2
Fore
SplineSet
416 169 m 1
 178 169 l 1
 117 -20 l 1
 10 14 l 1
 233 710 l 1
 361 710 l 1
 584 14 l 1
 477 -20 l 1
 416 169 l 1
284 502 m 1
 211 274 l 1
 383 274 l 1
 310 502 l 1
 299 570 l 1
 295 570 l 1
 284 502 l 1
239 965 m 1
 368 755 l 1
 273 755 l 1
 125 965 l 1
 239 965 l 1
EndSplineSet
Validated: 1
EndChar

StartChar: Egrave
Encoding: 200 200 293
Width: 553
Flags: MW
HStem: 0 105<185 523 185 523> 318 105<185 481 185 481> 605 105<185 523 185 185> 955 20G<137 251 251 251>
VStem: 70 115<105 318 423 605>
LayerCount: 2
Fore
SplineSet
70 0 m 1
 70 710 l 1
 523 710 l 1
 523 605 l 1
 185 605 l 1
 185 423 l 1
 481 423 l 1
 481 318 l 1
 185 318 l 1
 185 105 l 1
 523 105 l 1
 523 0 l 1
 70 0 l 1
251 975 m 1
 380 765 l 1
 285 765 l 1
 137 975 l 1
 251 975 l 1
EndSplineSet
Validated: 1
EndChar

StartChar: Ecircumflex
Encoding: 202 202 294
Width: 553
Flags: MW
HStem: 0 105<185 523 185 523> 318 105<185 481 185 481> 605 105<185 523 185 185> 710 45<107 202 395 490> 895 20G<259 259 338 338>
VStem: 70 115<105 318 423 605>
LayerCount: 2
Fore
SplineSet
70 0 m 1xec
 70 710 l 1
 523 710 l 1
 523 605 l 1
 185 605 l 1
 185 423 l 1
 481 423 l 1
 481 318 l 1
 185 318 l 1
 185 105 l 1
 523 105 l 1
 523 0 l 1
 70 0 l 1xec
395 755 m 1xdc
 338 808 l 1
 338 915 l 1
 490 755 l 1
 395 755 l 1xdc
259 808 m 1
 202 755 l 1
 107 755 l 1
 259 915 l 1
 259 808 l 1
EndSplineSet
Validated: 1
EndChar

StartChar: Igrave
Encoding: 204 204 295
Width: 397
Flags: MW
HStem: 0 105<40 141 256 357 40 141> 605 105<40 141 40 357 256 256 256 357> 955 20G<12 126 126 126>
VStem: 141 115<105 605 105 605>
LayerCount: 2
Fore
SplineSet
357 0 m 1
 40 0 l 1
 40 105 l 1
 141 105 l 1
 141 605 l 1
 40 605 l 1
 40 710 l 1
 357 710 l 1
 357 605 l 1
 256 605 l 1
 256 105 l 1
 357 105 l 1
 357 0 l 1
126 975 m 1
 255 765 l 1
 160 765 l 1
 12 975 l 1
 126 975 l 1
EndSplineSet
Validated: 1
EndChar

StartChar: Idieresis
Encoding: 207 207 296
Width: 397
Flags: MW
HStem: 0 105<40 141 256 357 40 141> 605 105<40 141 40 357 256 256 256 357> 770 129<78 133 78 133 265 320>
VStem: 141 115<105 605 105 605>
LayerCount: 2
Fore
SplineSet
357 0 m 1
 40 0 l 1
 40 105 l 1
 141 105 l 1
 141 605 l 1
 40 605 l 1
 40 710 l 1
 357 710 l 1
 357 605 l 1
 256 605 l 1
 256 105 l 1
 357 105 l 1
 357 0 l 1
78 770 m 1
 41 807 l 1
 41 862 l 1
 78 899 l 1
 133 899 l 1
 170 862 l 1
 170 807 l 1
 133 770 l 1
 78 770 l 1
265 770 m 1
 228 807 l 1
 228 862 l 1
 265 899 l 1
 320 899 l 1
 357 862 l 1
 357 807 l 1
 320 770 l 1
 265 770 l 1
EndSplineSet
Validated: 1
EndChar

StartChar: Gbreve
Encoding: 286 286 297
Width: 625
Flags: MW
HStem: 0 105<225 400 225 450 175 400> 276 105<297 450 297 527> 605 105<225 400 225 225> 775 90<256 368 256 406 218 368> 775 189<218 239 385 406 218 218>
VStem: 60 115<156 554> 144 95<882 964 882 964 882 964> 385 95<882 964> 450 115<156 276 276 276 470 554 554 554>
LayerCount: 2
Fore
SplineSet
565 595 m 1xf480
 565 470 l 1
 450 470 l 1
 450 554 l 1
 400 605 l 1
 225 605 l 1
 175 554 l 1
 175 156 l 1
 225 105 l 1
 400 105 l 1
 450 156 l 1
 450 276 l 1
 297 276 l 1
 297 381 l 1
 527 381 l 1
 565 343 l 1
 565 115 l 1
 450 0 l 1
 175 0 l 1
 60 115 l 1
 60 595 l 1
 175 710 l 1
 450 710 l 1
 565 595 l 1xf480
480 848 m 1xed
 406 775 l 1
 218 775 l 1
 144 848 l 1
 144 964 l 1
 239 964 l 1xeb
 239 882 l 1
 256 865 l 1
 368 865 l 1xf3
 385 882 l 1
 385 964 l 1
 480 964 l 1
 480 848 l 1xed
EndSplineSet
Validated: 1
EndChar

StartChar: Ograve
Encoding: 210 210 298
Width: 655
Flags: MW
HStem: 0 105<232 423 232 469 186 423> 605 105<232 423 232 232> 955 20G<141 255 255 255>
VStem: 60 115<157 552 157 595 157 595> 480 115<158 552 552 552>
LayerCount: 2
Fore
SplineSet
186 710 m 1
 469 710 l 1
 595 595 l 1
 595 115 l 1
 469 0 l 1
 186 0 l 1
 60 115 l 1
 60 595 l 1
 186 710 l 1
480 552 m 1
 423 605 l 1
 232 605 l 1
 175 552 l 1
 175 157 l 1
 232 105 l 1
 423 105 l 1
 480 158 l 1
 480 552 l 1
255 975 m 1
 384 765 l 1
 289 765 l 1
 141 975 l 1
 255 975 l 1
EndSplineSet
Validated: 1
EndChar

StartChar: Ugrave
Encoding: 217 217 299
Width: 625
Flags: MW
HStem: 0 105<176 399 226 399 226 449> 935 20G<145 259 259 259>
VStem: 60 115<157 710 157 710 157 710> 450 115<157 710 115 710>
LayerCount: 2
Fore
SplineSet
176 0 m 1
 60 115 l 1
 60 710 l 1
 175 710 l 1
 175 157 l 1
 226 105 l 1
 399 105 l 1
 450 157 l 1
 450 710 l 1
 565 710 l 1
 565 115 l 1
 449 0 l 1
 176 0 l 1
259 955 m 1
 388 745 l 1
 293 745 l 1
 145 955 l 1
 259 955 l 1
EndSplineSet
Validated: 1
EndChar

StartChar: Ucircumflex
Encoding: 219 219 300
Width: 625
Flags: MW
HStem: 0 105<176 399 226 399 226 449> 710 45<118 175 175 175 450 501> 895 20G<270 270 349 349>
VStem: 60 115<157 710 157 710 157 710> 450 115<157 710 115 710>
LayerCount: 2
Fore
SplineSet
176 0 m 1
 60 115 l 1
 60 710 l 1
 175 710 l 1
 175 157 l 1
 226 105 l 1
 399 105 l 1
 450 157 l 1
 450 710 l 1
 565 710 l 1
 565 115 l 1
 449 0 l 1
 176 0 l 1
406 755 m 1
 349 808 l 1
 349 915 l 1
 501 755 l 1
 406 755 l 1
270 808 m 1
 213 755 l 1
 118 755 l 1
 270 915 l 1
 270 808 l 1
EndSplineSet
Validated: 1
EndChar

StartChar: Idotaccent
Encoding: 304 304 301
Width: 397
Flags: MW
HStem: 0 105<40 141 256 357 40 141> 605 105<40 141 40 357 256 256 256 357> 889 20G<171 226 226 226>
VStem: 141 115<105 605 105 605>
LayerCount: 2
Fore
SplineSet
357 0 m 1
 40 0 l 1
 40 105 l 1
 141 105 l 1
 141 605 l 1
 40 605 l 1
 40 710 l 1
 357 710 l 1
 357 605 l 1
 256 605 l 1
 256 105 l 1
 357 105 l 1
 357 0 l 1
171 780 m 1
 134 817 l 1
 134 872 l 1
 171 909 l 1
 226 909 l 1
 263 872 l 1
 263 817 l 1
 226 780 l 1
 171 780 l 1
EndSplineSet
Validated: 1
EndChar

StartChar: Scedilla
Encoding: 350 350 302
Width: 564
Flags: MW
HStem: -315 21G<175 175 175 255> 0 105<184 358 184 409 166 358> 605 105<206 383 206 206>
VStem: 409 115<156 223 223 223>
LayerCount: 2
Fore
SplineSet
383 605 m 1
 206 605 l 1
 155 554 l 1
 155 500 l 1
 161 486 l 1
 487 323 l 1
 524 254 l 1
 524 115 l 1
 409 0 l 1
 166 0 l 1
 40 42 l 1
 74 143 l 1
 184 105 l 1
 358 105 l 1
 409 156 l 1
 409 223 l 1
 400 238 l 1
 72 402 l 1
 40 469 l 1
 40 595 l 1
 155 710 l 1
 402 710 l 1
 524 669 l 1
 493 570 l 1
 383 605 l 1
175 -315 m 1
 235 -45 l 1
 355 -45 l 1
 255 -315 l 1
 175 -315 l 1
EndSplineSet
Validated: 1
EndChar

StartChar: agrave
Encoding: 224 224 303
Width: 564
Flags: MW
HStem: -10 21G<426 426> 0 105<191 318 191 349 141 318> 219 105<191 373 191 191> 438 105<196 342 196 196> 778 20G<103 217 217 217>
VStem: 373 115<168 219 219 219 324 407 407 407>
LayerCount: 2
Fore
SplineSet
181 543 m 1x7c
 392 543 l 1
 488 448 l 1
 488 140 l 1
 519 13 l 1
 426 -10 l 1xbc
 407 67 l 1
 349 0 l 1
 141 0 l 1
 45 95 l 1
 45 229 l 1
 141 324 l 1
 373 324 l 1
 373 407 l 1
 342 438 l 1
 196 438 l 1
 84 403 l 1
 53 503 l 1
 181 543 l 1x7c
373 168 m 1
 373 219 l 1
 191 219 l 1
 160 188 l 1
 160 136 l 1
 191 105 l 1
 318 105 l 1x7c
 373 168 l 1
217 798 m 1
 346 588 l 1
 251 588 l 1
 103 798 l 1
 217 798 l 1
EndSplineSet
Validated: 1
EndChar

StartChar: egrave
Encoding: 232 232 304
Width: 535
Flags: MW
HStem: 0 105<201 357 201 372 151 357> 210 105<170 356 170 411 170 356> 438 105<201 201 201 351> 778 20G<97 211 211 211>
VStem: 55 115<136 210 136 315 315 407> 382 115<341 407 407 407>
LayerCount: 2
Fore
SplineSet
357 105 m 1
 469 140 l 1
 500 40 l 1
 372 0 l 1
 151 0 l 1
 55 95 l 1
 55 448 l 1
 151 543 l 1
 401 543 l 1
 497 448 l 1
 497 295 l 1
 411 210 l 1
 170 210 l 1
 170 136 l 1
 201 105 l 1
 357 105 l 1
201 438 m 1
 170 407 l 1
 170 315 l 1
 356 315 l 1
 382 341 l 1
 382 407 l 1
 351 438 l 1
 201 438 l 1
211 798 m 1
 340 588 l 1
 245 588 l 1
 97 798 l 1
 211 798 l 1
EndSplineSet
Validated: 1
EndChar

StartChar: ecircumflex
Encoding: 234 234 305
Width: 535
Flags: MW
HStem: 0 105<201 357 201 372 151 357> 210 105<170 356 170 411 170 356> 438 105<201 201 201 351> 713 20G<228 327 327 327>
VStem: 55 115<136 210 136 315 315 407> 382 115<341 407 407 407>
LayerCount: 2
Fore
SplineSet
357 105 m 1
 469 140 l 1
 500 40 l 1
 372 0 l 1
 151 0 l 1
 55 95 l 1
 55 448 l 1
 151 543 l 1
 401 543 l 1
 497 448 l 1
 497 295 l 1
 411 210 l 1
 170 210 l 1
 170 136 l 1
 201 105 l 1
 357 105 l 1
201 438 m 1
 170 407 l 1
 170 315 l 1
 356 315 l 1
 382 341 l 1
 382 407 l 1
 351 438 l 1
 201 438 l 1
86 583 m 1
 228 733 l 1
 327 733 l 1
 469 583 l 1
 374 583 l 1
 277 673 l 1
 181 583 l 1
 86 583 l 1
EndSplineSet
Validated: 1
EndChar

StartChar: igrave
Encoding: 236 236 306
Width: 256
Flags: MW
HStem: 0 21G<79 194 79 79> 778 20G<-33 81 81 81>
VStem: 79 115<0 415 415 415>
LayerCount: 2
Fore
SplineSet
194 429 m 1
 194 0 l 1
 79 0 l 1
 79 415 l 1
 45 517 l 1
 153 553 l 1
 194 429 l 1
81 798 m 1
 210 588 l 1
 115 588 l 1
 -33 798 l 1
 81 798 l 1
EndSplineSet
Validated: 1
EndChar

StartChar: idieresis
Encoding: 239 239 307
Width: 256
Flags: MW
HStem: 0 21G<79 194 79 79> 605 129<14 69 14 69 205 260>
VStem: 79 115<0 415 415 415>
LayerCount: 2
Fore
SplineSet
194 429 m 1
 194 0 l 1
 79 0 l 1
 79 415 l 1
 45 517 l 1
 153 553 l 1
 194 429 l 1
14 605 m 1
 -23 642 l 1
 -23 697 l 1
 14 734 l 1
 69 734 l 1
 106 697 l 1
 106 642 l 1
 69 605 l 1
 14 605 l 1
205 605 m 1
 168 642 l 1
 168 697 l 1
 205 734 l 1
 260 734 l 1
 297 697 l 1
 297 642 l 1
 260 605 l 1
 205 605 l 1
EndSplineSet
Validated: 1
EndChar

StartChar: gbreve
Encoding: 287 287 308
Width: 554
Flags: MW
HStem: -168 95<192 387 192 433 180 387> -18 95<181 387 135 433> 132 105<227 363 227 413 181 363> 438 105<208 331 208 208> 618 90<233 340 233 378 195 340> 618 160<195 216 357 378 195 195>
VStem: 62 115<287 407 287 448 287 448> 394 115<268 383 383 383>
LayerCount: 2
Fore
SplineSet
192 -73 m 1xf7
 387 -73 l 1
 401 -59 l 1
 401 -32 l 1
 387 -18 l 1
 135 -18 l 1
 62 55 l 1
 62 154 l 1
 108 200 l 1
 62 246 l 1
 62 448 l 1
 158 543 l 1
 369 543 l 1
 496 574 l 1
 519 481 l 1
 442 462 l 1
 509 404 l 1
 509 227 l 1
 413 132 l 1
 181 132 l 1
 167 118 l 1
 167 91 l 1
 181 77 l 1
 433 77 l 1
 506 4 l 1
 506 -95 l 1
 433 -168 l 1
 180 -168 l 1
 55 -129 l 1
 83 -39 l 1
 192 -73 l 1xf7
394 383 m 1
 331 438 l 1
 208 438 l 1
 177 407 l 1
 177 287 l 1
 227 237 l 1
 363 237 l 1
 394 268 l 1
 394 383 l 1
452 691 m 1
 378 618 l 1
 195 618 l 1
 121 691 l 1
 121 778 l 1
 216 778 l 1xf7
 216 725 l 1
 233 708 l 1
 340 708 l 1xfb
 357 725 l 1
 357 778 l 1
 452 778 l 1
 452 691 l 1
EndSplineSet
Validated: 1
EndChar

StartChar: ograve
Encoding: 242 242 309
Width: 557
Flags: MW
HStem: 0 105<201 356 201 407 150 356> 438 105<201 356 201 201> 778 20G<96 210 210 210>
VStem: 55 115<136 407 136 447 136 447> 387 115<136 407 407 407>
LayerCount: 2
Fore
SplineSet
502 96 m 1
 407 0 l 1
 150 0 l 1
 55 96 l 1
 55 447 l 1
 150 543 l 1
 407 543 l 1
 502 447 l 1
 502 96 l 1
201 105 m 1
 356 105 l 1
 387 136 l 1
 387 407 l 1
 356 438 l 1
 201 438 l 1
 170 407 l 1
 170 136 l 1
 201 105 l 1
210 798 m 1
 339 588 l 1
 244 588 l 1
 96 798 l 1
 210 798 l 1
EndSplineSet
Validated: 1
EndChar

StartChar: ugrave
Encoding: 249 249 310
Width: 574
Flags: MW
HStem: -10 21G<436 436> 0 105<201 328 201 359 151 328> 758 20G<100 214 214 214>
VStem: 55 115<136 543 136 543 136 543> 383 115<168 543>
LayerCount: 2
Fore
SplineSet
498 140 m 1x78
 529 13 l 1
 436 -10 l 1xb8
 417 67 l 1
 359 0 l 1
 151 0 l 1
 55 95 l 1
 55 543 l 1
 170 543 l 1
 170 136 l 1
 201 105 l 1
 328 105 l 1
 383 168 l 1
 383 543 l 1
 498 543 l 1
 498 140 l 1x78
214 778 m 1
 343 568 l 1
 248 568 l 1
 100 778 l 1
 214 778 l 1
EndSplineSet
Validated: 1
EndChar

StartChar: ucircumflex
Encoding: 251 251 311
Width: 574
Flags: MW
HStem: -10 21G<436 436> 0 105<201 328 201 359 151 328> 713 20G<227 326 326 326>
VStem: 55 115<136 543 136 543 136 543> 383 115<168 543>
LayerCount: 2
Fore
SplineSet
498 140 m 1x78
 529 13 l 1
 436 -10 l 1xb8
 417 67 l 1
 359 0 l 1
 151 0 l 1
 55 95 l 1
 55 543 l 1
 170 543 l 1
 170 136 l 1
 201 105 l 1
 328 105 l 1
 383 168 l 1
 383 543 l 1
 498 543 l 1
 498 140 l 1x78
85 583 m 1
 227 733 l 1
 326 733 l 1
 468 583 l 1
 373 583 l 1
 276 673 l 1
 180 583 l 1
 85 583 l 1
EndSplineSet
Validated: 1
EndChar

StartChar: dotlessi
Encoding: 305 305 312
Width: 256
Flags: MW
HStem: 0 21G<79 194 79 79> 533 20G<153 153>
VStem: 79 115<0 415 415 415>
LayerCount: 2
Fore
SplineSet
194 429 m 1
 194 0 l 1
 79 0 l 1
 79 415 l 1
 45 517 l 1
 153 553 l 1
 194 429 l 1
EndSplineSet
Validated: 1
EndChar

StartChar: scedilla
Encoding: 351 351 313
Width: 491
Flags: MW
HStem: -315 21G<147 147 147 227> 0 105<173 312 173 364 151 312> 438 105<178 318 178 178>
LayerCount: 2
Fore
SplineSet
146 385 m 1
 160 362 l 1
 421 272 l 1
 459 210 l 1
 459 95 l 1
 364 0 l 1
 151 0 l 1
 25 42 l 1
 59 143 l 1
 173 105 l 1
 312 105 l 1
 344 137 l 1
 344 160 l 1
 330 183 l 1
 69 273 l 1
 31 335 l 1
 31 448 l 1
 126 543 l 1
 340 543 l 1
 466 501 l 1
 432 400 l 1
 318 438 l 1
 178 438 l 1
 146 406 l 1
 146 385 l 1
147 -315 m 1
 207 -45 l 1
 327 -45 l 1
 227 -315 l 1
 147 -315 l 1
EndSplineSet
Validated: 1
EndChar

StartChar: ydieresis
Encoding: 255 255 314
Width: 521
Flags: MW
HStem: -168 105<86 191 86 243 86 191> -20 20G<209 229 209 209> 605 129<140 195 140 195 331 386>
LayerCount: 2
Fore
SplineSet
287 185 m 1
 409 558 l 1
 516 523 l 1
 313 -98 l 1
 243 -168 l 1
 86 -168 l 1
 86 -63 l 1
 191 -63 l 1
 217 -37 l 1
 229 0 l 1
 209 0 l 1
 5 517 l 1
 110 558 l 1
 257 185 l 1
 270 126 l 1
 274 126 l 1
 287 185 l 1
140 605 m 1
 103 642 l 1
 103 697 l 1
 140 734 l 1
 195 734 l 1
 232 697 l 1
 232 642 l 1
 195 605 l 1
 140 605 l 1
331 605 m 1
 294 642 l 1
 294 697 l 1
 331 734 l 1
 386 734 l 1
 423 697 l 1
 423 642 l 1
 386 605 l 1
 331 605 l 1
EndSplineSet
Validated: 1
EndChar

StartChar: Ccedilla
Encoding: 199 199 315
Width: 606
Flags: MW
HStem: -250 95<245 333 245 369 245 333> -110 215<250 250 250 333> 0 105<227 250 176 409 340 340 340 409 227 461> 605 105<227 398 227 227>
VStem: 60 115<157 553 157 594 157 594> 250 194<-110 -90 -175 0 -175 0> 450 115<470 553 553 553>
LayerCount: 2
Fore
SplineSet
250 -110 m 1xde
 250 0 l 1
 176 0 l 1
 60 116 l 1
 60 594 l 1
 176 710 l 1
 449 710 l 1
 565 594 l 1
 565 470 l 1
 450 470 l 1
 450 553 l 1
 398 605 l 1
 227 605 l 1
 175 553 l 1
 175 157 l 1
 227 105 l 1
 409 105 l 1
 497 193 l 1
 576 115 l 1
 461 0 l 1
 340 0 l 1xbe
 340 -15 l 1
 369 -15 l 1
 444 -90 l 1
 444 -175 l 1
 369 -250 l 1
 245 -250 l 1
 245 -155 l 1
 333 -155 l 1
 344 -144 l 1
 344 -121 l 1
 333 -110 l 1
 250 -110 l 1xde
EndSplineSet
Validated: 1
EndChar

StartChar: ccedilla
Encoding: 231 231 316
Width: 529
Flags: MW
HStem: -250 95<221 309 221 345 221 309> -110 215<226 226 226 309> 0 105<201 226 151 362 316 316 316 362 201 376> 330 213<382 401 151 497 382 382> 438 105<201 351 201 201>
VStem: 55 115<136 407 136 448 136 448> 226 194<-110 -90 -175 0 -175 0> 382 115<330 407 407 407>
LayerCount: 2
Fore
SplineSet
226 -110 m 1xd6
 226 0 l 1xb6
 151 0 l 1
 55 95 l 1
 55 448 l 1
 151 543 l 1
 401 543 l 1
 497 448 l 1
 497 330 l 1
 382 330 l 1xb5
 382 407 l 1
 351 438 l 1
 201 438 l 1
 170 407 l 1
 170 136 l 1
 201 105 l 1
 362 105 l 1
 472 140 l 1
 504 40 l 1
 376 0 l 1
 316 0 l 1xad
 316 -15 l 1
 345 -15 l 1
 420 -90 l 1
 420 -175 l 1
 345 -250 l 1
 221 -250 l 1
 221 -155 l 1
 309 -155 l 1
 320 -144 l 1
 320 -121 l 1
 309 -110 l 1
 226 -110 l 1xd6
EndSplineSet
Validated: 1
EndChar

StartChar: eogonek
Encoding: 281 281 317
Width: 535
Flags: MW
HStem: -160 95<311 409 311 409 275 409> 0 105<151 357 151 357 300 357 201 372 300 300> 210 105<170 356 170 411 170 356> 438 105<201 201 201 351>
VStem: 55 115<136 210 136 315 315 407> 200 209<-85 -65 -160 0 -160 0> 382 115<341 407 407 407>
LayerCount: 2
Fore
SplineSet
357 105 m 1xfa
 469 140 l 1
 500 40 l 1
 372 0 l 1
 300 0 l 1
 300 -54 l 1
 311 -65 l 1
 409 -65 l 1
 409 -160 l 1
 275 -160 l 1
 200 -85 l 1
 200 0 l 1xfc
 151 0 l 1
 55 95 l 1
 55 448 l 1
 151 543 l 1
 401 543 l 1
 497 448 l 1
 497 295 l 1
 411 210 l 1
 170 210 l 1
 170 136 l 1
 201 105 l 1
 357 105 l 1xfa
201 438 m 1
 170 407 l 1
 170 315 l 1
 356 315 l 1
 382 341 l 1
 382 407 l 1xfa
 351 438 l 1
 201 438 l 1
EndSplineSet
Validated: 1
EndChar

StartChar: Eogonek
Encoding: 280 280 318
Width: 553
Flags: MW
HStem: -160 95<342 440 342 440 306 440> 0 105<185 231 331 331 331 523> 318 105<185 481 185 481> 605 105<185 523 185 185>
VStem: 70 115<105 318 423 605> 231 209<-85 -65 -160 0 -160 0>
LayerCount: 2
Fore
SplineSet
70 0 m 1
 70 710 l 1
 523 710 l 1
 523 605 l 1
 185 605 l 1
 185 423 l 1
 481 423 l 1
 481 318 l 1
 185 318 l 1
 185 105 l 1
 523 105 l 1
 523 0 l 1
 331 0 l 1
 331 -54 l 1
 342 -65 l 1
 440 -65 l 1
 440 -160 l 1
 306 -160 l 1
 231 -85 l 1
 231 0 l 1
 70 0 l 1
EndSplineSet
Validated: 1
EndChar

StartChar: divide
Encoding: 247 247 319
Width: 500
Flags: MW
HStem: 120 21G<222 222 222 277> 292 105<20 480 20 480> 550 20G<222 277 277 277>
VStem: 185 129<157 212 157 212 478 533>
LayerCount: 2
Fore
SplineSet
20 397 m 1
 480 397 l 1
 480 292 l 1
 20 292 l 1
 20 397 l 1
222 120 m 1
 185 157 l 1
 185 212 l 1
 222 249 l 1
 277 249 l 1
 314 212 l 1
 314 157 l 1
 277 120 l 1
 222 120 l 1
222 441 m 1
 185 478 l 1
 185 533 l 1
 222 570 l 1
 277 570 l 1
 314 533 l 1
 314 478 l 1
 277 441 l 1
 222 441 l 1
EndSplineSet
Validated: 1
EndChar

StartChar: multiply
Encoding: 215 215 320
Width: 439
Flags: MW
HStem: 145 21G<94 94 337 337> 525 20G<100 100 345 345>
LayerCount: 2
Fore
SplineSet
19 463 m 1
 100 545 l 1
 223 422 l 1
 345 545 l 1
 419 470 l 1
 297 348 l 1
 419 226 l 1
 337 145 l 1
 216 267 l 1
 94 145 l 1
 20 219 l 1
 141 341 l 1
 19 463 l 1
EndSplineSet
Validated: 1
EndChar

StartChar: Atilde
Encoding: 195 195 321
Width: 594
Flags: MW
HStem: -20 21G<117 117 477 477> 169 105<211 383 211 416 178 383> 916 20G<321 399 399 399>
LayerCount: 2
Fore
SplineSet
416 169 m 1
 178 169 l 1
 117 -20 l 1
 10 14 l 1
 233 710 l 1
 361 710 l 1
 584 14 l 1
 477 -20 l 1
 416 169 l 1
284 502 m 1
 211 274 l 1
 383 274 l 1
 310 502 l 1
 299 570 l 1
 295 570 l 1
 284 502 l 1
399 936 m 1
 496 839 l 1
 418 762 l 1
 347 831 l 1
 256 755 l 1
 178 755 l 1
 81 852 l 1
 159 929 l 1
 230 860 l 1
 321 936 l 1
 399 936 l 1
EndSplineSet
Validated: 1
EndChar

StartChar: Ntilde
Encoding: 209 209 322
Width: 646
Flags: MW
HStem: 0 21G<70 185 70 70 465 576 465 465> 916 20G<337 415 415 415>
VStem: 70 115<0 455 0 710> 461 115<255 710 0 710>
LayerCount: 2
Fore
SplineSet
181 710 m 1
 442 254 l 1
 466 193 l 1
 470 193 l 1
 461 255 l 1
 461 710 l 1
 576 710 l 1
 576 0 l 1
 465 0 l 1
 204 456 l 1
 180 517 l 1
 176 517 l 1
 185 455 l 1
 185 0 l 1
 70 0 l 1
 70 710 l 1
 181 710 l 1
415 936 m 1
 512 839 l 1
 434 762 l 1
 363 831 l 1
 272 755 l 1
 194 755 l 1
 97 852 l 1
 175 929 l 1
 246 860 l 1
 337 936 l 1
 415 936 l 1
EndSplineSet
Validated: 1
EndChar

StartChar: Otilde
Encoding: 213 213 323
Width: 655
Flags: MW
HStem: 0 105<232 423 232 469 186 423> 605 105<232 423 232 232> 916 20G<351 429 429 429>
VStem: 60 115<157 552 157 595 157 595> 480 115<158 552 552 552>
LayerCount: 2
Fore
SplineSet
186 710 m 1
 469 710 l 1
 595 595 l 1
 595 115 l 1
 469 0 l 1
 186 0 l 1
 60 115 l 1
 60 595 l 1
 186 710 l 1
480 552 m 1
 423 605 l 1
 232 605 l 1
 175 552 l 1
 175 157 l 1
 232 105 l 1
 423 105 l 1
 480 158 l 1
 480 552 l 1
429 936 m 1
 526 839 l 1
 448 762 l 1
 377 831 l 1
 286 755 l 1
 208 755 l 1
 111 852 l 1
 189 929 l 1
 260 860 l 1
 351 936 l 1
 429 936 l 1
EndSplineSet
Validated: 1
EndChar

StartChar: atilde
Encoding: 227 227 324
Width: 564
Flags: MW
HStem: -10 21G<426 426> 0 105<191 318 191 349 141 318> 219 105<191 373 191 191> 438 105<196 342 196 196> 744 20G<305 383 383 383>
VStem: 373 115<168 219 219 219 324 407 407 407>
LayerCount: 2
Fore
SplineSet
181 543 m 1x7c
 392 543 l 1
 488 448 l 1
 488 140 l 1
 519 13 l 1
 426 -10 l 1xbc
 407 67 l 1
 349 0 l 1
 141 0 l 1
 45 95 l 1
 45 229 l 1
 141 324 l 1
 373 324 l 1
 373 407 l 1
 342 438 l 1
 196 438 l 1
 84 403 l 1
 53 503 l 1
 181 543 l 1x7c
373 168 m 1
 373 219 l 1
 191 219 l 1
 160 188 l 1
 160 136 l 1
 191 105 l 1
 318 105 l 1x7c
 373 168 l 1
383 764 m 1
 480 667 l 1
 402 590 l 1
 331 659 l 1
 240 583 l 1
 162 583 l 1
 65 680 l 1
 143 757 l 1
 214 688 l 1
 305 764 l 1
 383 764 l 1
EndSplineSet
Validated: 1
EndChar

StartChar: ntilde
Encoding: 241 241 325
Width: 574
Flags: MW
HStem: 0 21G<76 191 76 76 404 519 404 404> 438 105<246 373 246 246> 744 20G<332 410 410 410>
VStem: 76 115<0 375 0 403 0 403> 404 115<0 407 407 407>
LayerCount: 2
Fore
SplineSet
76 403 m 1
 45 530 l 1
 138 553 l 1
 157 476 l 1
 215 543 l 1
 423 543 l 1
 519 448 l 1
 519 0 l 1
 404 0 l 1
 404 407 l 1
 373 438 l 1
 246 438 l 1
 191 375 l 1
 191 0 l 1
 76 0 l 1
 76 403 l 1
410 764 m 1
 507 667 l 1
 429 590 l 1
 358 659 l 1
 267 583 l 1
 189 583 l 1
 92 680 l 1
 170 757 l 1
 241 688 l 1
 332 764 l 1
 410 764 l 1
EndSplineSet
Validated: 1
EndChar

StartChar: otilde
Encoding: 245 245 326
Width: 557
Flags: MW
HStem: 0 105<201 356 201 407 150 356> 438 105<201 356 201 201> 744 20G<315 393 393 393>
VStem: 55 115<136 407 136 447 136 447> 387 115<136 407 407 407>
LayerCount: 2
Fore
SplineSet
502 96 m 1
 407 0 l 1
 150 0 l 1
 55 96 l 1
 55 447 l 1
 150 543 l 1
 407 543 l 1
 502 447 l 1
 502 96 l 1
201 105 m 1
 356 105 l 1
 387 136 l 1
 387 407 l 1
 356 438 l 1
 201 438 l 1
 170 407 l 1
 170 136 l 1
 201 105 l 1
393 764 m 1
 490 667 l 1
 412 590 l 1
 341 659 l 1
 250 583 l 1
 172 583 l 1
 75 680 l 1
 153 757 l 1
 224 688 l 1
 315 764 l 1
 393 764 l 1
EndSplineSet
Validated: 1
EndChar

StartChar: Rcommaaccent
Encoding: 342 342 327
Width: 627
Flags: MW
HStem: -305 21G<194 194 194 274> -20 20G 274 105<185 235 185 412 400 400 400 412 185 466> 605 105<185 412 185 185>
VStem: 70 115<0 274 379 605> 460 115<426 558 558 558>
LayerCount: 2
Fore
SplineSet
412 605 m 1
 185 605 l 1
 185 379 l 1
 412 379 l 1
 460 426 l 1
 460 558 l 1
 412 605 l 1
398 263 m 1
 587 56 l 1
 503 -20 l 1
 235 274 l 1
 185 274 l 1
 185 0 l 1
 70 0 l 1
 70 710 l 1
 466 710 l 1
 575 602 l 1
 575 382 l 1
 466 274 l 1
 400 274 l 1
 377 284 l 1
 375 281 l 1
 398 263 l 1
194 -305 m 1
 254 -35 l 1
 374 -35 l 1
 274 -305 l 1
 194 -305 l 1
EndSplineSet
Validated: 1
EndChar

StartChar: rcommaaccent
Encoding: 343 343 328
Width: 499
Flags: MW
HStem: -305 21G<24 24 24 104> -20 20G<76 191 76 76> 438 105<246 246 246 333> 533 20G<138 138>
VStem: 76 115<0 375 0 403 0 403>
LayerCount: 2
Fore
SplineSet
246 438 m 1xe8
 191 375 l 1
 191 0 l 1
 76 0 l 1
 76 403 l 1
 45 530 l 1
 138 553 l 1xd8
 157 476 l 1
 215 543 l 1
 381 543 l 1
 499 428 l 1
 423 350 l 1
 333 438 l 1
 246 438 l 1xe8
24 -305 m 1xe8
 84 -35 l 1
 204 -35 l 1
 104 -305 l 1
 24 -305 l 1xe8
EndSplineSet
Validated: 1
EndChar

StartChar: Edotaccent
Encoding: 278 278 329
Width: 553
Flags: MW
HStem: 0 105<185 523 185 523> 318 105<185 481 185 481> 605 105<185 523 185 185> 889 20G<271 326 326 326>
VStem: 70 115<105 318 423 605>
LayerCount: 2
Fore
SplineSet
70 0 m 1
 70 710 l 1
 523 710 l 1
 523 605 l 1
 185 605 l 1
 185 423 l 1
 481 423 l 1
 481 318 l 1
 185 318 l 1
 185 105 l 1
 523 105 l 1
 523 0 l 1
 70 0 l 1
271 780 m 1
 234 817 l 1
 234 872 l 1
 271 909 l 1
 326 909 l 1
 363 872 l 1
 363 817 l 1
 326 780 l 1
 271 780 l 1
EndSplineSet
Validated: 1
EndChar

StartChar: edotaccent
Encoding: 279 279 330
Width: 535
Flags: MW
HStem: 0 105<201 357 201 372 151 357> 210 105<170 356 170 411 170 356> 438 105<201 201 201 351> 714 20G<249 304 304 304>
VStem: 55 115<136 210 136 315 315 407> 382 115<341 407 407 407>
LayerCount: 2
Fore
SplineSet
357 105 m 1
 469 140 l 1
 500 40 l 1
 372 0 l 1
 151 0 l 1
 55 95 l 1
 55 448 l 1
 151 543 l 1
 401 543 l 1
 497 448 l 1
 497 295 l 1
 411 210 l 1
 170 210 l 1
 170 136 l 1
 201 105 l 1
 357 105 l 1
201 438 m 1
 170 407 l 1
 170 315 l 1
 356 315 l 1
 382 341 l 1
 382 407 l 1
 351 438 l 1
 201 438 l 1
249 605 m 1
 212 642 l 1
 212 697 l 1
 249 734 l 1
 304 734 l 1
 341 697 l 1
 341 642 l 1
 304 605 l 1
 249 605 l 1
EndSplineSet
Validated: 1
EndChar

StartChar: Gcommaaccent
Encoding: 290 290 331
Width: 625
Flags: MW
HStem: -305 21G<196 196 196 276> 0 105<225 400 225 450 175 400> 276 105<297 450 297 527> 605 105<225 400 225 225>
VStem: 60 115<156 554> 450 115<156 276 276 276 470 554 554 554>
LayerCount: 2
Fore
SplineSet
565 595 m 1
 565 470 l 1
 450 470 l 1
 450 554 l 1
 400 605 l 1
 225 605 l 1
 175 554 l 1
 175 156 l 1
 225 105 l 1
 400 105 l 1
 450 156 l 1
 450 276 l 1
 297 276 l 1
 297 381 l 1
 527 381 l 1
 565 343 l 1
 565 115 l 1
 450 0 l 1
 175 0 l 1
 60 115 l 1
 60 595 l 1
 175 710 l 1
 450 710 l 1
 565 595 l 1
196 -305 m 1
 256 -35 l 1
 376 -35 l 1
 276 -305 l 1
 196 -305 l 1
EndSplineSet
Validated: 1
EndChar

StartChar: Kcommaaccent
Encoding: 310 310 332
Width: 577
Flags: MW
HStem: -305 21G<194 194 194 274> -20 20G 710 20G
VStem: 70 115<0 223 393 710>
LayerCount: 2
Fore
SplineSet
345 404 m 1
 566 38 l 1
 470 -20 l 1
 267 316 l 1
 185 223 l 1
 185 0 l 1
 70 0 l 1
 70 710 l 1
 185 710 l 1
 185 393 l 1
 482 730 l 1
 567 656 l 1
 345 404 l 1
194 -305 m 1
 254 -35 l 1
 374 -35 l 1
 274 -305 l 1
 194 -305 l 1
EndSplineSet
Validated: 1
EndChar

StartChar: Lcommaaccent
Encoding: 315 315 333
Width: 528
Flags: MW
HStem: -305 21G<194 194 194 274> 0 105<185 518 185 518> 690 20G<70 185 185 185>
VStem: 70 115<105 710 105 710 105 710>
LayerCount: 2
Fore
SplineSet
70 0 m 1
 70 710 l 1
 185 710 l 1
 185 105 l 1
 518 105 l 1
 518 0 l 1
 70 0 l 1
194 -305 m 1
 254 -35 l 1
 374 -35 l 1
 274 -305 l 1
 194 -305 l 1
EndSplineSet
Validated: 1
EndChar

StartChar: Ncommaaccent
Encoding: 325 325 334
Width: 646
Flags: MW
HStem: -305 21G<203 203 203 283> -20 20G<70 185 70 70 465 576 465 465> 690 20G<70 181 181 181 461 576 576 576>
VStem: 70 115<0 455 0 710> 461 115<255 710 0 710>
LayerCount: 2
Fore
SplineSet
181 710 m 1
 442 254 l 1
 466 193 l 1
 470 193 l 1
 461 255 l 1
 461 710 l 1
 576 710 l 1
 576 0 l 1
 465 0 l 1
 204 456 l 1
 180 517 l 1
 176 517 l 1
 185 455 l 1
 185 0 l 1
 70 0 l 1
 70 710 l 1
 181 710 l 1
203 -305 m 1
 263 -35 l 1
 383 -35 l 1
 283 -305 l 1
 203 -305 l 1
EndSplineSet
Validated: 1
EndChar

StartChar: gcommaaccent
Encoding: 291 291 335
Width: 554
Flags: MW
HStem: -168 95<192 387 192 433 180 387> -18 95<181 387 135 433> 132 105<227 363 227 413 181 363> 438 105<208 331 208 208> 828 20G<320 400 400 400>
VStem: 62 115<287 407 287 448 287 448> 394 115<268 383 383 383>
LayerCount: 2
Fore
SplineSet
192 -73 m 1
 387 -73 l 1
 401 -59 l 1
 401 -32 l 1
 387 -18 l 1
 135 -18 l 1
 62 55 l 1
 62 154 l 1
 108 200 l 1
 62 246 l 1
 62 448 l 1
 158 543 l 1
 369 543 l 1
 496 574 l 1
 519 481 l 1
 442 462 l 1
 509 404 l 1
 509 227 l 1
 413 132 l 1
 181 132 l 1
 167 118 l 1
 167 91 l 1
 181 77 l 1
 433 77 l 1
 506 4 l 1
 506 -95 l 1
 433 -168 l 1
 180 -168 l 1
 55 -129 l 1
 83 -39 l 1
 192 -73 l 1
394 383 m 1
 331 438 l 1
 208 438 l 1
 177 407 l 1
 177 287 l 1
 227 237 l 1
 363 237 l 1
 394 268 l 1
 394 383 l 1
400 848 m 1
 340 578 l 1
 220 578 l 1
 320 848 l 1
 400 848 l 1
EndSplineSet
Validated: 1
EndChar

StartChar: kcommaaccent
Encoding: 311 311 336
Width: 516
Flags: MW
HStem: -305 21G<187 187 187 267> -20 20G<89 204 89 89> 700 20G<163 163>
VStem: 89 115<0 186 334 582 582 582>
LayerCount: 2
Fore
SplineSet
204 596 m 1
 204 334 l 1
 440 558 l 1
 516 478 l 1
 337 308 l 1
 516 48 l 1
 425 -15 l 1
 254 233 l 1
 204 186 l 1
 204 0 l 1
 89 0 l 1
 89 582 l 1
 55 684 l 1
 163 720 l 1
 204 596 l 1
187 -305 m 1
 247 -35 l 1
 367 -35 l 1
 267 -305 l 1
 187 -305 l 1
EndSplineSet
Validated: 1
EndChar

StartChar: lcommaaccent
Encoding: 316 316 337
Width: 249
Flags: MW
HStem: -305 21G<27 27 27 107> -35 35<87 194 79 207 79 207> 700 20G<153 153>
VStem: 79 115<0 582 582 582>
LayerCount: 2
Fore
SplineSet
194 596 m 1
 194 0 l 1
 79 0 l 1
 79 582 l 1
 45 684 l 1
 153 720 l 1
 194 596 l 1
27 -305 m 1
 87 -35 l 1
 207 -35 l 1
 107 -305 l 1
 27 -305 l 1
EndSplineSet
Validated: 1
EndChar

StartChar: ncommaaccent
Encoding: 326 326 338
Width: 574
Flags: MW
HStem: -305 21G<191 191 191 271> -20 20G<76 191 76 76 404 519 404 404> 438 105<246 373 246 246> 533 20G<138 138>
VStem: 76 115<0 375> 404 115<0 407 407 407>
LayerCount: 2
Fore
SplineSet
76 403 m 1xec
 45 530 l 1
 138 553 l 1xdc
 157 476 l 1
 215 543 l 1
 423 543 l 1
 519 448 l 1
 519 0 l 1
 404 0 l 1
 404 407 l 1
 373 438 l 1
 246 438 l 1
 191 375 l 1
 191 0 l 1
 76 0 l 1
 76 403 l 1xec
191 -305 m 1
 251 -35 l 1
 371 -35 l 1
 271 -305 l 1
 191 -305 l 1
EndSplineSet
Validated: 1
EndChar

StartChar: Amacron
Encoding: 256 256 339
Width: 594
Flags: MW
HStem: -20 21G<117 117 477 477> 169 105<211 383 211 416 178 383> 765 105<153 441 153 441>
LayerCount: 2
Fore
SplineSet
416 169 m 1
 178 169 l 1
 117 -20 l 1
 10 14 l 1
 233 710 l 1
 361 710 l 1
 584 14 l 1
 477 -20 l 1
 416 169 l 1
284 502 m 1
 211 274 l 1
 383 274 l 1
 310 502 l 1
 299 570 l 1
 295 570 l 1
 284 502 l 1
153 765 m 1
 153 870 l 1
 441 870 l 1
 441 765 l 1
 153 765 l 1
EndSplineSet
Validated: 1
EndChar

StartChar: Emacron
Encoding: 274 274 340
Width: 553
Flags: MW
HStem: 0 105<185 523 185 523> 318 105<185 481 185 481> 605 105<185 523 185 185> 765 105<160 448 160 448>
VStem: 70 115<105 318 423 605>
LayerCount: 2
Fore
SplineSet
70 0 m 1
 70 710 l 1
 523 710 l 1
 523 605 l 1
 185 605 l 1
 185 423 l 1
 481 423 l 1
 481 318 l 1
 185 318 l 1
 185 105 l 1
 523 105 l 1
 523 0 l 1
 70 0 l 1
160 765 m 1
 160 870 l 1
 448 870 l 1
 448 765 l 1
 160 765 l 1
EndSplineSet
Validated: 1
EndChar

StartChar: Omacron
Encoding: 332 332 341
Width: 655
Flags: MW
HStem: 0 105<232 423 232 469 186 423> 605 105<232 423 232 232> 765 105<184 472 184 472>
VStem: 60 115<157 552 157 595 157 595> 480 115<158 552 552 552>
LayerCount: 2
Fore
SplineSet
186 710 m 1
 469 710 l 1
 595 595 l 1
 595 115 l 1
 469 0 l 1
 186 0 l 1
 60 115 l 1
 60 595 l 1
 186 710 l 1
480 552 m 1
 423 605 l 1
 232 605 l 1
 175 552 l 1
 175 157 l 1
 232 105 l 1
 423 105 l 1
 480 158 l 1
 480 552 l 1
184 765 m 1
 184 870 l 1
 472 870 l 1
 472 765 l 1
 184 765 l 1
EndSplineSet
Validated: 1
EndChar

StartChar: Umacron
Encoding: 362 362 342
Width: 625
Flags: MW
HStem: 0 105<176 399 226 399 226 449> 765 105<168 456 168 456>
VStem: 60 115<157 710 157 710 157 710> 450 115<157 710 115 710>
LayerCount: 2
Fore
SplineSet
176 0 m 1
 60 115 l 1
 60 710 l 1
 175 710 l 1
 175 157 l 1
 226 105 l 1
 399 105 l 1
 450 157 l 1
 450 710 l 1
 565 710 l 1
 565 115 l 1
 449 0 l 1
 176 0 l 1
168 765 m 1
 168 870 l 1
 456 870 l 1
 456 765 l 1
 168 765 l 1
EndSplineSet
Validated: 1
EndChar

StartChar: amacron
Encoding: 257 257 343
Width: 564
Flags: MW
HStem: -10 21G<426 426> 0 105<191 318 191 349 141 318> 219 105<191 373 191 191> 438 105<196 342 196 196> 598 105<135 423 135 423>
VStem: 373 115<168 219 219 219 324 407 407 407>
LayerCount: 2
Fore
SplineSet
181 543 m 1x7c
 392 543 l 1
 488 448 l 1
 488 140 l 1
 519 13 l 1
 426 -10 l 1xbc
 407 67 l 1
 349 0 l 1
 141 0 l 1
 45 95 l 1
 45 229 l 1
 141 324 l 1
 373 324 l 1
 373 407 l 1
 342 438 l 1
 196 438 l 1
 84 403 l 1
 53 503 l 1
 181 543 l 1x7c
373 168 m 1
 373 219 l 1
 191 219 l 1
 160 188 l 1
 160 136 l 1
 191 105 l 1
 318 105 l 1x7c
 373 168 l 1
135 598 m 1
 135 703 l 1
 423 703 l 1
 423 598 l 1
 135 598 l 1
EndSplineSet
Validated: 1
EndChar

StartChar: emacron
Encoding: 275 275 344
Width: 535
Flags: MW
HStem: 0 105<201 357 201 372 151 357> 210 105<170 356 170 411 170 356> 438 105<201 201 201 351> 598 105<135 423 135 423>
VStem: 55 115<136 210 136 315 315 407> 382 115<341 407 407 407>
LayerCount: 2
Fore
SplineSet
357 105 m 1
 469 140 l 1
 500 40 l 1
 372 0 l 1
 151 0 l 1
 55 95 l 1
 55 448 l 1
 151 543 l 1
 401 543 l 1
 497 448 l 1
 497 295 l 1
 411 210 l 1
 170 210 l 1
 170 136 l 1
 201 105 l 1
 357 105 l 1
201 438 m 1
 170 407 l 1
 170 315 l 1
 356 315 l 1
 382 341 l 1
 382 407 l 1
 351 438 l 1
 201 438 l 1
135 598 m 1
 135 703 l 1
 423 703 l 1
 423 598 l 1
 135 598 l 1
EndSplineSet
Validated: 1
EndChar

StartChar: imacron
Encoding: 299 299 345
Width: 256
Flags: MW
HStem: 0 21G<79 194 79 79> 598 105<-14 274 -14 274>
VStem: 79 115<0 415 415 415>
LayerCount: 2
Fore
SplineSet
194 429 m 1
 194 0 l 1
 79 0 l 1
 79 415 l 1
 45 517 l 1
 153 553 l 1
 194 429 l 1
-14 598 m 1
 -14 703 l 1
 274 703 l 1
 274 598 l 1
 -14 598 l 1
EndSplineSet
Validated: 1
EndChar

StartChar: omacron
Encoding: 333 333 346
Width: 557
Flags: MW
HStem: 0 105<201 356 201 407 150 356> 438 105<201 356 201 201> 598 105<137 425 137 425>
VStem: 55 115<136 407 136 447 136 447> 387 115<136 407 407 407>
LayerCount: 2
Fore
SplineSet
502 96 m 1
 407 0 l 1
 150 0 l 1
 55 96 l 1
 55 447 l 1
 150 543 l 1
 407 543 l 1
 502 447 l 1
 502 96 l 1
201 105 m 1
 356 105 l 1
 387 136 l 1
 387 407 l 1
 356 438 l 1
 201 438 l 1
 170 407 l 1
 170 136 l 1
 201 105 l 1
137 598 m 1
 137 703 l 1
 425 703 l 1
 425 598 l 1
 137 598 l 1
EndSplineSet
Validated: 1
EndChar

StartChar: umacron
Encoding: 363 363 347
Width: 574
Flags: MW
HStem: -10 21G<436 436> 0 105<201 328 201 359 151 328> 598 105<135 423 135 423>
VStem: 55 115<136 543 136 543 136 543> 383 115<168 543>
LayerCount: 2
Fore
SplineSet
498 140 m 1x78
 529 13 l 1
 436 -10 l 1xb8
 417 67 l 1
 359 0 l 1
 151 0 l 1
 55 95 l 1
 55 543 l 1
 170 543 l 1
 170 136 l 1
 201 105 l 1
 328 105 l 1
 383 168 l 1
 383 543 l 1
 498 543 l 1
 498 140 l 1x78
135 598 m 1
 135 703 l 1
 423 703 l 1
 423 598 l 1
 135 598 l 1
EndSplineSet
Validated: 1
EndChar

StartChar: Aring
Encoding: 197 197 348
Width: 594
Flags: MW
HStem: -20 21G<117 117 477 477> 169 105<211 383 211 416 178 383> 835 20G<252 342 342 342>
LayerCount: 2
Fore
SplineSet
342 855 m 1
 417 780 l 1
 417 700 l 1
 377 660 l 1
 584 14 l 1
 477 -20 l 1
 416 169 l 1
 178 169 l 1
 117 -20 l 1
 10 14 l 1
 217 660 l 1
 177 700 l 1
 177 780 l 1
 252 855 l 1
 342 855 l 1
284 502 m 1
 211 274 l 1
 383 274 l 1
 310 502 l 1
 299 570 l 1
 295 570 l 1
 284 502 l 1
316 770 m 1
 278 770 l 1
 267 759 l 1
 267 721 l 1
 278 710 l 1
 316 710 l 1
 327 721 l 1
 327 759 l 1
 316 770 l 1
EndSplineSet
Validated: 1
EndChar

StartChar: aring
Encoding: 229 229 349
Width: 564
Flags: MW
HStem: -10 21G<426 426> 0 105<191 318 191 349 141 318> 219 105<191 373 191 191> 438 105<196 342 196 196> 588 230<240 330 240 330>
VStem: 373 115<168 219 219 219 324 407 407 407>
LayerCount: 2
Fore
SplineSet
181 543 m 1x7c
 392 543 l 1
 488 448 l 1
 488 140 l 1
 519 13 l 1
 426 -10 l 1xbc
 407 67 l 1
 349 0 l 1
 141 0 l 1
 45 95 l 1
 45 229 l 1
 141 324 l 1
 373 324 l 1
 373 407 l 1
 342 438 l 1
 196 438 l 1
 84 403 l 1
 53 503 l 1
 181 543 l 1x7c
373 168 m 1
 373 219 l 1
 191 219 l 1
 160 188 l 1
 160 136 l 1
 191 105 l 1
 318 105 l 1x7c
 373 168 l 1
304 733 m 1
 266 733 l 1
 255 722 l 1
 255 684 l 1
 266 673 l 1
 304 673 l 1
 315 684 l 1
 315 722 l 1
 304 733 l 1
330 818 m 1
 405 743 l 1
 405 663 l 1
 330 588 l 1
 240 588 l 1
 165 663 l 1
 165 743 l 1
 240 818 l 1
 330 818 l 1
EndSplineSet
Validated: 1
EndChar

StartChar: uring
Encoding: 367 367 350
Width: 574
Flags: MW
HStem: -10 21G<436 436> 0 105<201 328 201 359 151 328> 588 230<235 325 235 325>
VStem: 55 115<136 543 136 543 136 543> 383 115<168 543>
LayerCount: 2
Fore
SplineSet
498 140 m 1x78
 529 13 l 1
 436 -10 l 1xb8
 417 67 l 1
 359 0 l 1
 151 0 l 1
 55 95 l 1
 55 543 l 1
 170 543 l 1
 170 136 l 1
 201 105 l 1
 328 105 l 1
 383 168 l 1
 383 543 l 1
 498 543 l 1
 498 140 l 1x78
299 733 m 1
 261 733 l 1
 250 722 l 1
 250 684 l 1
 261 673 l 1
 299 673 l 1
 310 684 l 1
 310 722 l 1
 299 733 l 1
325 818 m 1
 400 743 l 1
 400 663 l 1
 325 588 l 1
 235 588 l 1
 160 663 l 1
 160 743 l 1
 235 818 l 1
 325 818 l 1
EndSplineSet
Validated: 1
EndChar

StartChar: Uring
Encoding: 366 366 351
Width: 625
Flags: MW
HStem: 0 105<176 399 226 399 226 449> 745 156<268 283 343 358 268 268>
VStem: 60 115<157 710 157 710 157 710> 193 90<841 901 841 901 841 901> 343 90<841 901 820 901> 450 115<157 710 115 710>
LayerCount: 2
Fore
SplineSet
176 0 m 1
 60 115 l 1
 60 710 l 1
 175 710 l 1
 175 157 l 1
 226 105 l 1
 399 105 l 1
 450 157 l 1
 450 710 l 1
 565 710 l 1
 565 115 l 1
 449 0 l 1
 176 0 l 1
332 830 m 1
 343 841 l 1
 343 901 l 1
 433 901 l 1
 433 820 l 1
 358 745 l 1
 268 745 l 1
 193 820 l 1
 193 901 l 1
 283 901 l 1
 283 841 l 1
 294 830 l 1
 332 830 l 1
EndSplineSet
Validated: 1
EndChar

StartChar: Iogonek
Encoding: 302 302 352
Width: 397
Flags: MW
HStem: -160 95<259 357 259 357 223 357> 0 105<40 141 40 148 40 141 256 357> 605 105<40 141 40 357 256 256 256 357>
VStem: 141 115<105 605 105 605> 141 216<-160 605>
LayerCount: 2
Fore
SplineSet
148 0 m 1xe8
 40 0 l 1
 40 105 l 1
 141 105 l 1
 141 605 l 1
 40 605 l 1
 40 710 l 1
 357 710 l 1
 357 605 l 1xe8
 256 605 l 1
 256 105 l 1xf0
 357 105 l 1
 357 0 l 1
 248 0 l 1
 248 -54 l 1
 259 -65 l 1
 357 -65 l 1
 357 -160 l 1
 223 -160 l 1
 148 -85 l 1
 148 0 l 1xe8
EndSplineSet
Validated: 1
EndChar

StartChar: Uogonek
Encoding: 370 370 353
Width: 625
Flags: MW
HStem: -160 95<373 471 373 471 337 471> 0 105<176 399 226 262 362 362 362 399 226 449> 690 20G<60 175 175 175 450 565 565 565>
VStem: 60 115<157 710 157 710 157 710> 262 209<-85 -65 -160 0 -160 0> 450 115<157 710 115 710>
LayerCount: 2
Fore
SplineSet
176 0 m 1xf8
 60 115 l 1
 60 710 l 1
 175 710 l 1
 175 157 l 1
 226 105 l 1
 399 105 l 1
 450 157 l 1
 450 710 l 1
 565 710 l 1
 565 115 l 1xf4
 449 0 l 1
 362 0 l 1
 362 -54 l 1
 373 -65 l 1
 471 -65 l 1
 471 -160 l 1
 337 -160 l 1
 262 -85 l 1
 262 0 l 1
 176 0 l 1xf8
EndSplineSet
Validated: 1
EndChar

StartChar: Aogonek
Encoding: 260 260 354
Width: 594
Flags: MW
HStem: -160 95<471 569 471 569 435 569> 169 105<211 383 211 416 178 383> 690 20G<233 361 361 361>
VStem: 360 209<-85 -65 -160 -3 -160 -3>
LayerCount: 2
Fore
SplineSet
416 169 m 1
 178 169 l 1
 117 -20 l 1
 10 14 l 1
 233 710 l 1
 361 710 l 1
 575 41 l 1
 460 -41 l 1
 460 -54 l 1
 471 -65 l 1
 569 -65 l 1
 569 -160 l 1
 435 -160 l 1
 360 -85 l 1
 360 -3 l 1
 450 62 l 1
 416 169 l 1
284 502 m 1
 211 274 l 1
 383 274 l 1
 310 502 l 1
 299 570 l 1
 295 570 l 1
 284 502 l 1
EndSplineSet
Validated: 1
EndChar

StartChar: aogonek
Encoding: 261 261 355
Width: 564
Flags: MW
HStem: -160 80<447 552 447 552 418 552> 0 105<191 318 191 349 141 318> 219 105<191 373 191 191> 438 105<196 342 196 196>
VStem: 343 209<-93 -80 -160 -26 -160 -26> 373 115<168 219 219 219 324 407 407 407>
LayerCount: 2
Fore
SplineSet
343 -26 m 1xf8
 416 31 l 1
 407 67 l 1
 349 0 l 1
 141 0 l 1
 45 95 l 1
 45 229 l 1
 141 324 l 1
 373 324 l 1
 373 407 l 1
 342 438 l 1
 196 438 l 1
 84 403 l 1
 53 503 l 1
 181 543 l 1
 392 543 l 1
 488 448 l 1
 488 140 l 1xf4
 518 16 l 1
 435 -49 l 1
 435 -69 l 1
 447 -80 l 1
 552 -80 l 1
 552 -160 l 1
 418 -160 l 1
 343 -93 l 1
 343 -26 l 1xf8
373 168 m 1xf4
 373 219 l 1
 191 219 l 1
 160 188 l 1
 160 136 l 1
 191 105 l 1
 318 105 l 1
 373 168 l 1xf4
EndSplineSet
Validated: 1
EndChar

StartChar: uogonek
Encoding: 371 371 356
Width: 574
Flags: MW
HStem: -160 72<457 562 457 562 428 562> 0 105<201 328 201 359 151 328> 523 20G<55 170 170 170 383 498 498 498>
VStem: 55 115<136 543 136 543 136 543> 353 209<-93 -88 -160 -26 -160 -26> 383 115<168 543 140 543>
LayerCount: 2
Fore
SplineSet
353 -26 m 1xf8
 426 31 l 1
 417 67 l 1
 359 0 l 1
 151 0 l 1
 55 95 l 1
 55 543 l 1
 170 543 l 1
 170 136 l 1
 201 105 l 1
 328 105 l 1
 383 168 l 1
 383 543 l 1
 498 543 l 1
 498 140 l 1xf4
 528 16 l 1
 445 -49 l 1
 445 -77 l 1
 457 -88 l 1
 562 -88 l 1
 562 -160 l 1
 428 -160 l 1
 353 -93 l 1
 353 -26 l 1xf8
EndSplineSet
Validated: 1
EndChar

StartChar: iogonek
Encoding: 303 303 357
Width: 256
Flags: MW
HStem: -160 72<123 228 123 228 94 228> 714 20G<109 164 164 164>
VStem: 19 209<-93 -88 -160 -26 -160 -26> 79 115<21 415 415 415>
LayerCount: 2
Fore
SplineSet
194 429 m 1xd0
 194 16 l 1xd0
 111 -49 l 1
 111 -77 l 1
 123 -88 l 1
 228 -88 l 1
 228 -160 l 1
 94 -160 l 1
 19 -93 l 1
 19 -26 l 1xe0
 79 21 l 1
 79 415 l 1
 45 517 l 1
 153 553 l 1
 194 429 l 1xd0
109 605 m 1
 72 642 l 1
 72 697 l 1
 109 734 l 1
 164 734 l 1
 201 697 l 1
 201 642 l 1
 164 605 l 1
 109 605 l 1
EndSplineSet
Validated: 1
EndChar

StartChar: Lslash
Encoding: 321 321 358
Width: 528
Flags: MW
HStem: 0 105<185 518 185 518> 690 20G<70 185 185 185>
VStem: -20 205<201 318 318 318> 70 115<105 267 267 267 467 710> 70 220<0 544 267 544 429 544 429 710 429 710>
LayerCount: 2
Fore
SplineSet
290 544 m 1xc8
 290 429 l 1xc8
 185 351 l 1
 185 105 l 1
 518 105 l 1
 518 0 l 1
 70 0 l 1
 70 267 l 1xd0
 -20 201 l 1
 -20 318 l 1xe0
 70 383 l 1
 70 710 l 1xd0
 185 710 l 1
 185 467 l 1xe0
 290 544 l 1xc8
EndSplineSet
Validated: 1
EndChar

StartChar: lslash
Encoding: 322 322 359
Width: 249
Flags: MW
HStem: 0 21G<79 194 79 79> 700 20G<153 153>
VStem: -20 214<152 269 269 269> 79 115<0 225 225 225 425 582 582 582> 79 211<0 495 225 495 380 495 380 582 380 582>
LayerCount: 2
Fore
SplineSet
290 495 m 1xc8
 290 380 l 1xc8
 194 309 l 1
 194 0 l 1
 79 0 l 1
 79 225 l 1xd0
 -20 152 l 1
 -20 269 l 1xe0
 79 341 l 1
 79 582 l 1xd0
 45 684 l 1
 153 720 l 1
 194 596 l 1
 194 425 l 1xe0
 290 495 l 1xc8
EndSplineSet
Validated: 1
EndChar

StartChar: ae
Encoding: 230 230 360
Width: 823
Flags: MW
HStem: 0 105<191 303 191 334 141 303 504 645> 214 105<191 358 191 191 473 644> 438 105<196 327 196 196 504 639 504 504>
VStem: 358 115<168 214 136 214 319 407> 670 115<345 407 407 407>
LayerCount: 2
Fore
SplineSet
645 105 m 1
 757 140 l 1
 788 40 l 1
 660 0 l 1
 454 0 l 1
 389 64 l 1
 334 0 l 1
 141 0 l 1
 45 95 l 1
 45 229 l 1
 141 319 l 1
 358 319 l 1
 358 407 l 1
 327 438 l 1
 196 438 l 1
 84 403 l 1
 53 503 l 1
 181 543 l 1
 377 543 l 1
 415 505 l 1
 454 543 l 1
 689 543 l 1
 785 448 l 1
 785 299 l 1
 699 214 l 1
 473 214 l 1
 473 136 l 1
 504 105 l 1
 645 105 l 1
504 438 m 1
 473 407 l 1
 473 319 l 1
 644 319 l 1
 670 345 l 1
 670 407 l 1
 639 438 l 1
 504 438 l 1
358 168 m 1
 358 214 l 1
 191 214 l 1
 160 183 l 1
 160 136 l 1
 191 105 l 1
 303 105 l 1
 358 168 l 1
EndSplineSet
Validated: 1
EndChar

StartChar: AE
Encoding: 198 198 361
Width: 934
Flags: MW
HStem: -20 21G<108 108> 0 105<575 904 575 904> 169 105<270 460 270 460 212 460> 318 105<575 862 575 862> 605 105<453 460 453 453 575 904 575 575>
VStem: 460 115<105 169 169 169 274 318 423 605>
LayerCount: 2
Fore
SplineSet
460 0 m 1x7c
 460 169 l 1
 212 169 l 1
 108 -20 l 1xbc
 10 34 l 1
 383 710 l 1
 904 710 l 1
 904 605 l 1
 575 605 l 1
 575 423 l 1
 862 423 l 1
 862 318 l 1
 575 318 l 1
 575 105 l 1
 904 105 l 1
 904 0 l 1
 460 0 l 1x7c
460 274 m 1x7c
 460 605 l 1
 453 605 l 1
 270 274 l 1
 460 274 l 1x7c
EndSplineSet
Validated: 1
EndChar

StartChar: oe
Encoding: 339 339 362
Width: 867
Flags: MW
HStem: 0 105<201 356 201 407 150 356 533 689> 210 105<502 688 502 743 502 688> 438 105<201 356 201 201 533 683 533 533>
VStem: 55 115<136 407 136 447 136 447> 387 115<136 210 136 315 315 407> 714 115<341 407 407 407>
LayerCount: 2
Fore
SplineSet
689 105 m 1
 801 140 l 1
 832 40 l 1
 704 0 l 1
 483 0 l 1
 444 38 l 1
 407 0 l 1
 150 0 l 1
 55 96 l 1
 55 447 l 1
 150 543 l 1
 407 543 l 1
 444 505 l 1
 483 543 l 1
 733 543 l 1
 829 448 l 1
 829 295 l 1
 743 210 l 1
 502 210 l 1
 502 136 l 1
 533 105 l 1
 689 105 l 1
201 105 m 1
 356 105 l 1
 387 136 l 1
 387 407 l 1
 356 438 l 1
 201 438 l 1
 170 407 l 1
 170 136 l 1
 201 105 l 1
533 438 m 1
 502 407 l 1
 502 315 l 1
 688 315 l 1
 714 341 l 1
 714 407 l 1
 683 438 l 1
 533 438 l 1
EndSplineSet
Validated: 1
EndChar

StartChar: OE
Encoding: 338 338 363
Width: 913
Flags: MW
HStem: 0 105<186 440 232 440 555 883> 318 105<555 841 555 841> 605 105<232 440 232 232 555 883 555 555>
VStem: 60 115<157 157 157 552> 440 115<105 318 423 605>
LayerCount: 2
Fore
SplineSet
186 0 m 1
 60 115 l 1
 60 595 l 1
 186 710 l 1
 883 710 l 1
 883 605 l 1
 555 605 l 1
 555 423 l 1
 841 423 l 1
 841 318 l 1
 555 318 l 1
 555 105 l 1
 883 105 l 1
 883 0 l 1
 186 0 l 1
175 157 m 1
 232 105 l 1
 440 105 l 1
 440 605 l 1
 232 605 l 1
 175 552 l 1
 175 157 l 1
EndSplineSet
Validated: 1
EndChar

StartChar: germandbls
Encoding: 223 223 364
Width: 625
Flags: MW
HStem: 0 21G<70 185 70 70 360 360 360 480> 605 105<216 403 216 216>
VStem: 70 115<0 574 0 614 0 614> 460 115<137 208 208 208>
LayerCount: 2
Fore
SplineSet
185 574 m 1
 185 0 l 1
 70 0 l 1
 70 614 l 1
 166 710 l 1
 453 710 l 1
 549 614 l 1
 549 501 l 1
 422 399 l 1
 422 378 l 1
 436 355 l 1
 537 320 l 1
 575 258 l 1
 575 95 l 1
 480 0 l 1
 360 0 l 1
 234 42 l 1
 268 143 l 1
 382 105 l 1
 428 105 l 1
 460 137 l 1
 460 208 l 1
 446 231 l 1
 345 266 l 1
 307 328 l 1
 307 441 l 1
 434 543 l 1
 434 574 l 1
 403 605 l 1
 216 605 l 1
 185 574 l 1
EndSplineSet
Validated: 1
EndChar

StartChar: Oslash
Encoding: 216 216 365
Width: 655
Flags: MW
HStem: -30 21G<141 141> 0 105<229 423 229 469 186 423> 605 105<232 426 232 232> 720 20G<514 514>
VStem: 60 115<222 552 222 595 222 595> 480 115<158 487 487 487>
LayerCount: 2
Fore
SplineSet
141 -30 m 1
 49 30 l 1
 88 89 l 1
 60 115 l 1
 60 595 l 1
 186 710 l 1
 469 710 l 1
 485 695 l 1
 514 740 l 1
 606 680 l 1
 567 620 l 1
 595 595 l 1
 595 115 l 1
 469 0 l 1
 186 0 l 1
 170 14 l 1
 141 -30 l 1
175 552 m 1
 175 222 l 1
 426 605 l 1
 232 605 l 1
 175 552 l 1
423 105 m 1
 480 158 l 1
 480 487 l 1
 229 105 l 1
 423 105 l 1
EndSplineSet
Validated: 1
EndChar

StartChar: oslash
Encoding: 248 248 366
Width: 557
Flags: MW
HStem: -11 21G<110 110> 0 105<150 356 209 356 209 407> 438 105<201 348 201 201> 534 20G<447 447>
VStem: 55 115<211 407 211 447 211 447> 387 115<136 332 332 332>
LayerCount: 2
Fore
SplineSet
150 0 m 1x5c
 131 16 l 1
 110 -11 l 1
 46 36 l 1
 76 75 l 1
 55 96 l 1
 55 447 l 1
 150 543 l 1
 407 543 l 1xac
 426 527 l 1
 447 554 l 1
 511 507 l 1
 481 468 l 1
 502 447 l 1
 502 96 l 1
 407 0 l 1
 150 0 l 1x5c
356 105 m 1x6c
 387 136 l 1
 387 332 l 1
 209 105 l 1
 356 105 l 1x6c
170 407 m 1
 170 211 l 1
 348 438 l 1
 201 438 l 1
 170 407 l 1
EndSplineSet
Validated: 1
EndChar

StartChar: yen
Encoding: 165 165 367
Width: 588
Flags: MW
HStem: 0 21G<236 351 236 236> 115 90<69 236 69 236 351 508> 240 90<69 182 69 226 69 182 406 508> 710 20G<114 114 474 474>
VStem: 236 115<0 115 0 115 205 219 0 221 0 221>
LayerCount: 2
Fore
SplineSet
69 115 m 1
 69 205 l 1
 236 205 l 1
 236 221 l 1
 226 240 l 1
 69 240 l 1
 69 330 l 1
 182 330 l 1
 10 678 l 1
 114 730 l 1
 281 392 l 1
 292 334 l 1
 296 334 l 1
 307 392 l 1
 474 730 l 1
 578 678 l 1
 406 330 l 1
 508 330 l 1
 508 240 l 1
 361 240 l 1
 351 219 l 1
 351 205 l 1
 508 205 l 1
 508 115 l 1
 351 115 l 1
 351 0 l 1
 236 0 l 1
 236 115 l 1
 69 115 l 1
EndSplineSet
Validated: 1
EndChar

StartChar: cent
Encoding: 162 162 368
Width: 529
Flags: MW
HStem: -70 175<228 332 228 228> 0 105<201 228 151 362 332 362 201 376 332 332> 330 213<382 401 151 497 382 382> 438 105<201 228 332 351 201 201> 438 175<228 332 228 351 201 332>
VStem: 55 115<136 407 136 448 136 448> 228 104<-70 0 -70 0 543 613> 382 115<330 407 407 407>
LayerCount: 2
Fore
SplineSet
332 543 m 1xa7
 401 543 l 1
 497 448 l 1
 497 330 l 1
 382 330 l 1xa7
 382 407 l 1
 351 438 l 1
 201 438 l 1
 170 407 l 1
 170 136 l 1
 201 105 l 1
 362 105 l 1
 472 140 l 1
 504 40 l 1
 376 0 l 1
 332 0 l 1x57
 332 -70 l 1
 228 -70 l 1xa7
 228 0 l 1
 151 0 l 1
 55 95 l 1
 55 448 l 1
 151 543 l 1
 228 543 l 1x67
 228 613 l 1
 332 613 l 1x8f
 332 543 l 1xa7
EndSplineSet
Validated: 1
EndChar

StartChar: apple
Encoding: 65537 -1 369
Width: 2345
Flags: HMW
HStem: -20 20G<20 340 20 20 340 660 340 340 670 670 670 830 830 830 830 990 1380 1665 1380 1380 1700 1700 1700 2020> -10 21G<1137.5 1232.5 2030 2077.5> 665 20G<632.5 727.5>
VStem: 670 180<0 562.5 320 562.5> 2030 170<112.5 207.5 112.5 330 112.5 330>
LayerCount: 2
Fore
SplineSet
1355 160 m 0x78
 1355 65 1280 -10 1185 -10 c 0
 1090 -10 1015 65 1015 160 c 0
 1015 255 1090 330 1185 330 c 0
 1280 330 1355 255 1355 160 c 0x78
340 0 m 1xb8
 20 0 l 1
 20 320 l 1
 340 0 l 1xb8
2020 0 m 1
 1700 0 l 1
 1860 320 l 1
 2020 0 l 1
2200 160 m 0
 2200 65 2125 -10 2030 -10 c 1x78
 2030 330 l 1
 2125 330 2200 255 2200 160 c 0
1690 320 m 1
 1690 25 l 1
 1405 320 l 1
 1690 320 l 1
1380 0 m 1xb8
 1380 295 l 1
 1665 0 l 1
 1380 0 l 1xb8
670 320 m 1
 830 0 l 1
 670 0 l 1
 670 320 l 1
990 320 m 1
 990 0 l 1
 830 0 l 1
 990 320 l 1
340 0 m 1
 340 160 l 5
 660 0 l 1
 340 0 l 1
340 320 m 1
 660 320 l 1
 340 160 l 1
 340 320 l 1
485 355 m 1
 165 355 l 1
 485 675 l 1
 485 355 l 1
850 515 m 0
 850 420 775 345 680 345 c 0
 585 345 510 420 510 515 c 0
 510 610 585 685 680 685 c 0
 775 685 850 610 850 515 c 0
820 675 m 1
 1140 675 l 1
 980 355 l 1
 820 675 l 1
1345 355 m 1
 1025 355 l 1
 1185 675 l 1
 1345 355 l 1
1665 675 m 1
 1665 380 l 1
 1380 675 l 1
 1665 675 l 1
1355 355 m 1
 1355 650 l 1
 1640 355 l 1
 1355 355 l 1
2015 675 m 1
 2015 380 l 1
 1730 675 l 1
 2015 675 l 1
1705 355 m 1
 1705 650 l 1
 1990 355 l 1
 1705 355 l 1
2025 675 m 1
 2345 675 l 1
 2185 355 l 1
 2025 675 l 1
EndSplineSet
Validated: 5
EndChar

StartChar: universal
Encoding: 8704 8704 371
Width: 594
Flags: HW
HStem: -20 21G<117 117 477 477> 169 105<211 383 211 416 178 383> 690 20G<233 361 361 361>
LayerCount: 2
Fore
SplineSet
171 544 m 1
 409 543 l 1
 471 732 l 1
 578 697 l 1
 353 2 l 1
 225 2 l 1
 4 699 l 1
 111 733 l 1
 171 544 l 1
302 210 m 1
 376 438 l 1
 204 438 l 1
 276 210 l 1
 287 142 l 1
 291 142 l 1
 302 210 l 1
EndSplineSet
Validated: 1
EndChar

StartChar: infinity
Encoding: 8734 8734 372
Width: 623
Flags: HW
HStem: 0 105<228 395 228 447 176 395> 312 105<241 241 241 382> 605 105<233 233 233 390>
VStem: 60 115<157 261 157 297 157 297> 448 115<157 261 261 261>
LayerCount: 2
Fore
SplineSet
116.766601562 276.076171875 m 1
 168 221 l 1
 217.787109375 221.076171875 l 1
 262.170898438 276.772460938 l 1
 263.208007812 427.76953125 l 1
 219.594726562 484.0703125 l 1
 169 484 l 1
 117.845703125 433.073242188 l 1
 116.766601562 276.076171875 l 1
367.202148438 281.05078125 m 1
 417.748046875 214.702148438 l 1
 452 214 l 1
 502.697265625 267.939453125 l 1
 503.844726562 434.935546875 l 1
 453 487 l 1
 419.624023438 487.6953125 l 1
 368.171875 422.047851562 l 1
 367.202148438 281.05078125 l 1
11.412109375 224.799804688 m 1
 13.2060546875 485.79296875 l 1
 129 601 l 1
 250 601 l 1
 315.819335938 516.41015625 l 1
 384.415039062 602.940429688 l 1
 495 603 l 1
 609.200195312 486.211914062 l 1
 607.336914062 215.21875 l 1
 490 105 l 1
 381 105 l 1
 313.557617188 187.416992188 l 1
 247.99609375 105.866210938 l 1
 125 106 l 1
 11.412109375 224.799804688 l 1
EndSplineSet
EndChar
